%TF.GenerationSoftware,KiCad,Pcbnew,(5.1.9)-1*%
%TF.CreationDate,2021-12-27T23:36:38+01:00*%
%TF.ProjectId,heart,68656172-742e-46b6-9963-61645f706362,rev?*%
%TF.SameCoordinates,Original*%
%TF.FileFunction,Paste,Bot*%
%TF.FilePolarity,Positive*%
%FSLAX46Y46*%
G04 Gerber Fmt 4.6, Leading zero omitted, Abs format (unit mm)*
G04 Created by KiCad (PCBNEW (5.1.9)-1) date 2021-12-27 23:36:38*
%MOMM*%
%LPD*%
G01*
G04 APERTURE LIST*
%ADD10R,6.000000X5.500000*%
%ADD11R,0.800000X1.000000*%
%ADD12R,1.500000X0.700000*%
G04 APERTURE END LIST*
D10*
%TO.C,CR2450*%
X65300000Y-82000000D03*
X34700000Y-82000000D03*
%TD*%
D11*
%TO.C,SW1*%
X68220000Y-68350000D03*
X68220000Y-75650000D03*
X70430000Y-75650000D03*
X70430000Y-68350000D03*
D12*
X67570000Y-74250000D03*
X67570000Y-72750000D03*
X67570000Y-69750000D03*
%TD*%
%TO.C,C0*%
G36*
G01*
X67462500Y-64100001D02*
X67462500Y-61899999D01*
G75*
G02*
X67712499Y-61650000I249999J0D01*
G01*
X68537501Y-61650000D01*
G75*
G02*
X68787500Y-61899999I0J-249999D01*
G01*
X68787500Y-64100001D01*
G75*
G02*
X68537501Y-64350000I-249999J0D01*
G01*
X67712499Y-64350000D01*
G75*
G02*
X67462500Y-64100001I0J249999D01*
G01*
G37*
G36*
G01*
X64337500Y-64100001D02*
X64337500Y-61899999D01*
G75*
G02*
X64587499Y-61650000I249999J0D01*
G01*
X65412501Y-61650000D01*
G75*
G02*
X65662500Y-61899999I0J-249999D01*
G01*
X65662500Y-64100001D01*
G75*
G02*
X65412501Y-64350000I-249999J0D01*
G01*
X64587499Y-64350000D01*
G75*
G02*
X64337500Y-64100001I0J249999D01*
G01*
G37*
%TD*%
%TO.C,C1*%
G36*
G01*
X66100000Y-60750000D02*
X66100000Y-60250000D01*
G75*
G02*
X66325000Y-60025000I225000J0D01*
G01*
X66775000Y-60025000D01*
G75*
G02*
X67000000Y-60250000I0J-225000D01*
G01*
X67000000Y-60750000D01*
G75*
G02*
X66775000Y-60975000I-225000J0D01*
G01*
X66325000Y-60975000D01*
G75*
G02*
X66100000Y-60750000I0J225000D01*
G01*
G37*
G36*
G01*
X64550000Y-60750000D02*
X64550000Y-60250000D01*
G75*
G02*
X64775000Y-60025000I225000J0D01*
G01*
X65225000Y-60025000D01*
G75*
G02*
X65450000Y-60250000I0J-225000D01*
G01*
X65450000Y-60750000D01*
G75*
G02*
X65225000Y-60975000I-225000J0D01*
G01*
X64775000Y-60975000D01*
G75*
G02*
X64550000Y-60750000I0J225000D01*
G01*
G37*
%TD*%
%TO.C,R24*%
G36*
G01*
X32720000Y-77860000D02*
X32720000Y-78230000D01*
G75*
G02*
X32585000Y-78365000I-135000J0D01*
G01*
X32315000Y-78365000D01*
G75*
G02*
X32180000Y-78230000I0J135000D01*
G01*
X32180000Y-77860000D01*
G75*
G02*
X32315000Y-77725000I135000J0D01*
G01*
X32585000Y-77725000D01*
G75*
G02*
X32720000Y-77860000I0J-135000D01*
G01*
G37*
G36*
G01*
X33740000Y-77860000D02*
X33740000Y-78230000D01*
G75*
G02*
X33605000Y-78365000I-135000J0D01*
G01*
X33335000Y-78365000D01*
G75*
G02*
X33200000Y-78230000I0J135000D01*
G01*
X33200000Y-77860000D01*
G75*
G02*
X33335000Y-77725000I135000J0D01*
G01*
X33605000Y-77725000D01*
G75*
G02*
X33740000Y-77860000I0J-135000D01*
G01*
G37*
%TD*%
M02*
