%TF.GenerationSoftware,KiCad,Pcbnew,(5.1.9)-1*%
%TF.CreationDate,2021-12-29T11:52:55+01:00*%
%TF.ProjectId,heart,68656172-742e-46b6-9963-61645f706362,rev?*%
%TF.SameCoordinates,Original*%
%TF.FileFunction,Paste,Bot*%
%TF.FilePolarity,Positive*%
%FSLAX46Y46*%
G04 Gerber Fmt 4.6, Leading zero omitted, Abs format (unit mm)*
G04 Created by KiCad (PCBNEW (5.1.9)-1) date 2021-12-29 11:52:55*
%MOMM*%
%LPD*%
G01*
G04 APERTURE LIST*
%ADD10R,6.000000X5.500000*%
%ADD11R,0.800000X1.000000*%
%ADD12R,1.500000X0.700000*%
G04 APERTURE END LIST*
%TO.C,C1*%
G36*
G01*
X67750000Y-61695000D02*
X67750000Y-61355000D01*
G75*
G02*
X67890000Y-61215000I140000J0D01*
G01*
X68170000Y-61215000D01*
G75*
G02*
X68310000Y-61355000I0J-140000D01*
G01*
X68310000Y-61695000D01*
G75*
G02*
X68170000Y-61835000I-140000J0D01*
G01*
X67890000Y-61835000D01*
G75*
G02*
X67750000Y-61695000I0J140000D01*
G01*
G37*
G36*
G01*
X66790000Y-61695000D02*
X66790000Y-61355000D01*
G75*
G02*
X66930000Y-61215000I140000J0D01*
G01*
X67210000Y-61215000D01*
G75*
G02*
X67350000Y-61355000I0J-140000D01*
G01*
X67350000Y-61695000D01*
G75*
G02*
X67210000Y-61835000I-140000J0D01*
G01*
X66930000Y-61835000D01*
G75*
G02*
X66790000Y-61695000I0J140000D01*
G01*
G37*
%TD*%
D10*
%TO.C,CR2450*%
X65300000Y-82000000D03*
X34700000Y-82000000D03*
%TD*%
D11*
%TO.C,SW1*%
X68220000Y-69350000D03*
X68220000Y-76650000D03*
X70430000Y-76650000D03*
X70430000Y-69350000D03*
D12*
X67570000Y-75250000D03*
X67570000Y-73750000D03*
X67570000Y-70750000D03*
%TD*%
%TO.C,C0*%
G36*
G01*
X67462500Y-65100002D02*
X67462500Y-62899998D01*
G75*
G02*
X67712498Y-62650000I249998J0D01*
G01*
X68537502Y-62650000D01*
G75*
G02*
X68787500Y-62899998I0J-249998D01*
G01*
X68787500Y-65100002D01*
G75*
G02*
X68537502Y-65350000I-249998J0D01*
G01*
X67712498Y-65350000D01*
G75*
G02*
X67462500Y-65100002I0J249998D01*
G01*
G37*
G36*
G01*
X64337500Y-65100002D02*
X64337500Y-62899998D01*
G75*
G02*
X64587498Y-62650000I249998J0D01*
G01*
X65412502Y-62650000D01*
G75*
G02*
X65662500Y-62899998I0J-249998D01*
G01*
X65662500Y-65100002D01*
G75*
G02*
X65412502Y-65350000I-249998J0D01*
G01*
X64587498Y-65350000D01*
G75*
G02*
X64337500Y-65100002I0J249998D01*
G01*
G37*
%TD*%
%TO.C,R24*%
G36*
G01*
X32720000Y-77860000D02*
X32720000Y-78230000D01*
G75*
G02*
X32585000Y-78365000I-135000J0D01*
G01*
X32315000Y-78365000D01*
G75*
G02*
X32180000Y-78230000I0J135000D01*
G01*
X32180000Y-77860000D01*
G75*
G02*
X32315000Y-77725000I135000J0D01*
G01*
X32585000Y-77725000D01*
G75*
G02*
X32720000Y-77860000I0J-135000D01*
G01*
G37*
G36*
G01*
X33740000Y-77860000D02*
X33740000Y-78230000D01*
G75*
G02*
X33605000Y-78365000I-135000J0D01*
G01*
X33335000Y-78365000D01*
G75*
G02*
X33200000Y-78230000I0J135000D01*
G01*
X33200000Y-77860000D01*
G75*
G02*
X33335000Y-77725000I135000J0D01*
G01*
X33605000Y-77725000D01*
G75*
G02*
X33740000Y-77860000I0J-135000D01*
G01*
G37*
%TD*%
M02*
