%TF.GenerationSoftware,KiCad,Pcbnew,(5.1.9)-1*%
%TF.CreationDate,2021-12-29T11:52:56+01:00*%
%TF.ProjectId,heart,68656172-742e-46b6-9963-61645f706362,rev?*%
%TF.SameCoordinates,Original*%
%TF.FileFunction,Soldermask,Bot*%
%TF.FilePolarity,Negative*%
%FSLAX46Y46*%
G04 Gerber Fmt 4.6, Leading zero omitted, Abs format (unit mm)*
G04 Created by KiCad (PCBNEW (5.1.9)-1) date 2021-12-29 11:52:56*
%MOMM*%
%LPD*%
G01*
G04 APERTURE LIST*
%ADD10R,1.500000X1.000000*%
%ADD11C,0.100000*%
%ADD12C,2.700000*%
%ADD13C,20.000000*%
%ADD14R,6.000000X5.500000*%
%ADD15R,0.800000X1.000000*%
%ADD16R,1.500000X0.700000*%
%ADD17R,1.000000X1.000000*%
G04 APERTURE END LIST*
%TO.C,C1*%
G36*
G01*
X67750000Y-61695000D02*
X67750000Y-61355000D01*
G75*
G02*
X67890000Y-61215000I140000J0D01*
G01*
X68170000Y-61215000D01*
G75*
G02*
X68310000Y-61355000I0J-140000D01*
G01*
X68310000Y-61695000D01*
G75*
G02*
X68170000Y-61835000I-140000J0D01*
G01*
X67890000Y-61835000D01*
G75*
G02*
X67750000Y-61695000I0J140000D01*
G01*
G37*
G36*
G01*
X66790000Y-61695000D02*
X66790000Y-61355000D01*
G75*
G02*
X66930000Y-61215000I140000J0D01*
G01*
X67210000Y-61215000D01*
G75*
G02*
X67350000Y-61355000I0J-140000D01*
G01*
X67350000Y-61695000D01*
G75*
G02*
X67210000Y-61835000I-140000J0D01*
G01*
X66930000Y-61835000D01*
G75*
G02*
X66790000Y-61695000I0J140000D01*
G01*
G37*
%TD*%
D10*
%TO.C,PA2*%
X37000000Y-62950000D03*
D11*
G36*
X36250602Y-61650000D02*
G01*
X36250602Y-61625466D01*
X36255412Y-61576635D01*
X36264984Y-61528510D01*
X36279228Y-61481555D01*
X36298005Y-61436222D01*
X36321136Y-61392949D01*
X36348396Y-61352150D01*
X36379524Y-61314221D01*
X36414221Y-61279524D01*
X36452150Y-61248396D01*
X36492949Y-61221136D01*
X36536222Y-61198005D01*
X36581555Y-61179228D01*
X36628510Y-61164984D01*
X36676635Y-61155412D01*
X36725466Y-61150602D01*
X36750000Y-61150602D01*
X36750000Y-61150000D01*
X37250000Y-61150000D01*
X37250000Y-61150602D01*
X37274534Y-61150602D01*
X37323365Y-61155412D01*
X37371490Y-61164984D01*
X37418445Y-61179228D01*
X37463778Y-61198005D01*
X37507051Y-61221136D01*
X37547850Y-61248396D01*
X37585779Y-61279524D01*
X37620476Y-61314221D01*
X37651604Y-61352150D01*
X37678864Y-61392949D01*
X37701995Y-61436222D01*
X37720772Y-61481555D01*
X37735016Y-61528510D01*
X37744588Y-61576635D01*
X37749398Y-61625466D01*
X37749398Y-61650000D01*
X37750000Y-61650000D01*
X37750000Y-62200000D01*
X36250000Y-62200000D01*
X36250000Y-61650000D01*
X36250602Y-61650000D01*
G37*
G36*
X37750000Y-63700000D02*
G01*
X37750000Y-64250000D01*
X37749398Y-64250000D01*
X37749398Y-64274534D01*
X37744588Y-64323365D01*
X37735016Y-64371490D01*
X37720772Y-64418445D01*
X37701995Y-64463778D01*
X37678864Y-64507051D01*
X37651604Y-64547850D01*
X37620476Y-64585779D01*
X37585779Y-64620476D01*
X37547850Y-64651604D01*
X37507051Y-64678864D01*
X37463778Y-64701995D01*
X37418445Y-64720772D01*
X37371490Y-64735016D01*
X37323365Y-64744588D01*
X37274534Y-64749398D01*
X37250000Y-64749398D01*
X37250000Y-64750000D01*
X36750000Y-64750000D01*
X36750000Y-64749398D01*
X36725466Y-64749398D01*
X36676635Y-64744588D01*
X36628510Y-64735016D01*
X36581555Y-64720772D01*
X36536222Y-64701995D01*
X36492949Y-64678864D01*
X36452150Y-64651604D01*
X36414221Y-64620476D01*
X36379524Y-64585779D01*
X36348396Y-64547850D01*
X36321136Y-64507051D01*
X36298005Y-64463778D01*
X36279228Y-64418445D01*
X36264984Y-64371490D01*
X36255412Y-64323365D01*
X36250602Y-64274534D01*
X36250602Y-64250000D01*
X36250000Y-64250000D01*
X36250000Y-63700000D01*
X37750000Y-63700000D01*
G37*
%TD*%
D10*
%TO.C,PA1*%
X33135000Y-62950000D03*
D11*
G36*
X32385602Y-61650000D02*
G01*
X32385602Y-61625466D01*
X32390412Y-61576635D01*
X32399984Y-61528510D01*
X32414228Y-61481555D01*
X32433005Y-61436222D01*
X32456136Y-61392949D01*
X32483396Y-61352150D01*
X32514524Y-61314221D01*
X32549221Y-61279524D01*
X32587150Y-61248396D01*
X32627949Y-61221136D01*
X32671222Y-61198005D01*
X32716555Y-61179228D01*
X32763510Y-61164984D01*
X32811635Y-61155412D01*
X32860466Y-61150602D01*
X32885000Y-61150602D01*
X32885000Y-61150000D01*
X33385000Y-61150000D01*
X33385000Y-61150602D01*
X33409534Y-61150602D01*
X33458365Y-61155412D01*
X33506490Y-61164984D01*
X33553445Y-61179228D01*
X33598778Y-61198005D01*
X33642051Y-61221136D01*
X33682850Y-61248396D01*
X33720779Y-61279524D01*
X33755476Y-61314221D01*
X33786604Y-61352150D01*
X33813864Y-61392949D01*
X33836995Y-61436222D01*
X33855772Y-61481555D01*
X33870016Y-61528510D01*
X33879588Y-61576635D01*
X33884398Y-61625466D01*
X33884398Y-61650000D01*
X33885000Y-61650000D01*
X33885000Y-62200000D01*
X32385000Y-62200000D01*
X32385000Y-61650000D01*
X32385602Y-61650000D01*
G37*
G36*
X33885000Y-63700000D02*
G01*
X33885000Y-64250000D01*
X33884398Y-64250000D01*
X33884398Y-64274534D01*
X33879588Y-64323365D01*
X33870016Y-64371490D01*
X33855772Y-64418445D01*
X33836995Y-64463778D01*
X33813864Y-64507051D01*
X33786604Y-64547850D01*
X33755476Y-64585779D01*
X33720779Y-64620476D01*
X33682850Y-64651604D01*
X33642051Y-64678864D01*
X33598778Y-64701995D01*
X33553445Y-64720772D01*
X33506490Y-64735016D01*
X33458365Y-64744588D01*
X33409534Y-64749398D01*
X33385000Y-64749398D01*
X33385000Y-64750000D01*
X32885000Y-64750000D01*
X32885000Y-64749398D01*
X32860466Y-64749398D01*
X32811635Y-64744588D01*
X32763510Y-64735016D01*
X32716555Y-64720772D01*
X32671222Y-64701995D01*
X32627949Y-64678864D01*
X32587150Y-64651604D01*
X32549221Y-64620476D01*
X32514524Y-64585779D01*
X32483396Y-64547850D01*
X32456136Y-64507051D01*
X32433005Y-64463778D01*
X32414228Y-64418445D01*
X32399984Y-64371490D01*
X32390412Y-64323365D01*
X32385602Y-64274534D01*
X32385602Y-64250000D01*
X32385000Y-64250000D01*
X32385000Y-63700000D01*
X33885000Y-63700000D01*
G37*
%TD*%
D12*
%TO.C,REF\u002A\u002A*%
X50000000Y-60800000D03*
%TD*%
D13*
%TO.C,CR2450*%
X50000000Y-82000000D03*
D14*
X65300000Y-82000000D03*
X34700000Y-82000000D03*
%TD*%
D15*
%TO.C,SW1*%
X68220000Y-69350000D03*
X68220000Y-76650000D03*
X70430000Y-76650000D03*
X70430000Y-69350000D03*
D16*
X67570000Y-75250000D03*
X67570000Y-73750000D03*
X67570000Y-70750000D03*
%TD*%
D11*
%TO.C,RST*%
G36*
X32170000Y-76869398D02*
G01*
X32145466Y-76869398D01*
X32096635Y-76864588D01*
X32048510Y-76855016D01*
X32001555Y-76840772D01*
X31956222Y-76821995D01*
X31912949Y-76798864D01*
X31872150Y-76771604D01*
X31834221Y-76740476D01*
X31799524Y-76705779D01*
X31768396Y-76667850D01*
X31741136Y-76627051D01*
X31718005Y-76583778D01*
X31699228Y-76538445D01*
X31684984Y-76491490D01*
X31675412Y-76443365D01*
X31670602Y-76394534D01*
X31670602Y-76370000D01*
X31670000Y-76370000D01*
X31670000Y-75870000D01*
X31670602Y-75870000D01*
X31670602Y-75845466D01*
X31675412Y-75796635D01*
X31684984Y-75748510D01*
X31699228Y-75701555D01*
X31718005Y-75656222D01*
X31741136Y-75612949D01*
X31768396Y-75572150D01*
X31799524Y-75534221D01*
X31834221Y-75499524D01*
X31872150Y-75468396D01*
X31912949Y-75441136D01*
X31956222Y-75418005D01*
X32001555Y-75399228D01*
X32048510Y-75384984D01*
X32096635Y-75375412D01*
X32145466Y-75370602D01*
X32170000Y-75370602D01*
X32170000Y-75370000D01*
X32670000Y-75370000D01*
X32670000Y-76870000D01*
X32170000Y-76870000D01*
X32170000Y-76869398D01*
G37*
G36*
X32970000Y-75370000D02*
G01*
X33470000Y-75370000D01*
X33470000Y-75370602D01*
X33494534Y-75370602D01*
X33543365Y-75375412D01*
X33591490Y-75384984D01*
X33638445Y-75399228D01*
X33683778Y-75418005D01*
X33727051Y-75441136D01*
X33767850Y-75468396D01*
X33805779Y-75499524D01*
X33840476Y-75534221D01*
X33871604Y-75572150D01*
X33898864Y-75612949D01*
X33921995Y-75656222D01*
X33940772Y-75701555D01*
X33955016Y-75748510D01*
X33964588Y-75796635D01*
X33969398Y-75845466D01*
X33969398Y-75870000D01*
X33970000Y-75870000D01*
X33970000Y-76370000D01*
X33969398Y-76370000D01*
X33969398Y-76394534D01*
X33964588Y-76443365D01*
X33955016Y-76491490D01*
X33940772Y-76538445D01*
X33921995Y-76583778D01*
X33898864Y-76627051D01*
X33871604Y-76667850D01*
X33840476Y-76705779D01*
X33805779Y-76740476D01*
X33767850Y-76771604D01*
X33727051Y-76798864D01*
X33683778Y-76821995D01*
X33638445Y-76840772D01*
X33591490Y-76855016D01*
X33543365Y-76864588D01*
X33494534Y-76869398D01*
X33470000Y-76869398D01*
X33470000Y-76870000D01*
X32970000Y-76870000D01*
X32970000Y-75370000D01*
G37*
%TD*%
%TO.C,C0*%
G36*
G01*
X67462500Y-65100002D02*
X67462500Y-62899998D01*
G75*
G02*
X67712498Y-62650000I249998J0D01*
G01*
X68537502Y-62650000D01*
G75*
G02*
X68787500Y-62899998I0J-249998D01*
G01*
X68787500Y-65100002D01*
G75*
G02*
X68537502Y-65350000I-249998J0D01*
G01*
X67712498Y-65350000D01*
G75*
G02*
X67462500Y-65100002I0J249998D01*
G01*
G37*
G36*
G01*
X64337500Y-65100002D02*
X64337500Y-62899998D01*
G75*
G02*
X64587498Y-62650000I249998J0D01*
G01*
X65412502Y-62650000D01*
G75*
G02*
X65662500Y-62899998I0J-249998D01*
G01*
X65662500Y-65100002D01*
G75*
G02*
X65412502Y-65350000I-249998J0D01*
G01*
X64587498Y-65350000D01*
G75*
G02*
X64337500Y-65100002I0J249998D01*
G01*
G37*
%TD*%
D17*
%TO.C,J4*%
X32170000Y-73820000D03*
%TD*%
%TO.C,J3*%
X32170000Y-69820000D03*
%TD*%
%TO.C,J2*%
X32170000Y-71820000D03*
%TD*%
%TO.C,J1*%
X32170000Y-67820000D03*
%TD*%
%TO.C,R24*%
G36*
G01*
X32720000Y-77860000D02*
X32720000Y-78230000D01*
G75*
G02*
X32585000Y-78365000I-135000J0D01*
G01*
X32315000Y-78365000D01*
G75*
G02*
X32180000Y-78230000I0J135000D01*
G01*
X32180000Y-77860000D01*
G75*
G02*
X32315000Y-77725000I135000J0D01*
G01*
X32585000Y-77725000D01*
G75*
G02*
X32720000Y-77860000I0J-135000D01*
G01*
G37*
G36*
G01*
X33740000Y-77860000D02*
X33740000Y-78230000D01*
G75*
G02*
X33605000Y-78365000I-135000J0D01*
G01*
X33335000Y-78365000D01*
G75*
G02*
X33200000Y-78230000I0J135000D01*
G01*
X33200000Y-77860000D01*
G75*
G02*
X33335000Y-77725000I135000J0D01*
G01*
X33605000Y-77725000D01*
G75*
G02*
X33740000Y-77860000I0J-135000D01*
G01*
G37*
%TD*%
D11*
%TO.C,JP2*%
G36*
X64250602Y-68100000D02*
G01*
X64250602Y-68075466D01*
X64255412Y-68026635D01*
X64264984Y-67978510D01*
X64279228Y-67931555D01*
X64298005Y-67886222D01*
X64321136Y-67842949D01*
X64348396Y-67802150D01*
X64379524Y-67764221D01*
X64414221Y-67729524D01*
X64452150Y-67698396D01*
X64492949Y-67671136D01*
X64536222Y-67648005D01*
X64581555Y-67629228D01*
X64628510Y-67614984D01*
X64676635Y-67605412D01*
X64725466Y-67600602D01*
X64750000Y-67600602D01*
X64750000Y-67600000D01*
X65250000Y-67600000D01*
X65250000Y-67600602D01*
X65274534Y-67600602D01*
X65323365Y-67605412D01*
X65371490Y-67614984D01*
X65418445Y-67629228D01*
X65463778Y-67648005D01*
X65507051Y-67671136D01*
X65547850Y-67698396D01*
X65585779Y-67729524D01*
X65620476Y-67764221D01*
X65651604Y-67802150D01*
X65678864Y-67842949D01*
X65701995Y-67886222D01*
X65720772Y-67931555D01*
X65735016Y-67978510D01*
X65744588Y-68026635D01*
X65749398Y-68075466D01*
X65749398Y-68100000D01*
X65750000Y-68100000D01*
X65750000Y-68600000D01*
X64250000Y-68600000D01*
X64250000Y-68100000D01*
X64250602Y-68100000D01*
G37*
G36*
X65750000Y-68900000D02*
G01*
X65750000Y-69400000D01*
X65749398Y-69400000D01*
X65749398Y-69424534D01*
X65744588Y-69473365D01*
X65735016Y-69521490D01*
X65720772Y-69568445D01*
X65701995Y-69613778D01*
X65678864Y-69657051D01*
X65651604Y-69697850D01*
X65620476Y-69735779D01*
X65585779Y-69770476D01*
X65547850Y-69801604D01*
X65507051Y-69828864D01*
X65463778Y-69851995D01*
X65418445Y-69870772D01*
X65371490Y-69885016D01*
X65323365Y-69894588D01*
X65274534Y-69899398D01*
X65250000Y-69899398D01*
X65250000Y-69900000D01*
X64750000Y-69900000D01*
X64750000Y-69899398D01*
X64725466Y-69899398D01*
X64676635Y-69894588D01*
X64628510Y-69885016D01*
X64581555Y-69870772D01*
X64536222Y-69851995D01*
X64492949Y-69828864D01*
X64452150Y-69801604D01*
X64414221Y-69770476D01*
X64379524Y-69735779D01*
X64348396Y-69697850D01*
X64321136Y-69657051D01*
X64298005Y-69613778D01*
X64279228Y-69568445D01*
X64264984Y-69521490D01*
X64255412Y-69473365D01*
X64250602Y-69424534D01*
X64250602Y-69400000D01*
X64250000Y-69400000D01*
X64250000Y-68900000D01*
X65750000Y-68900000D01*
G37*
%TD*%
%TO.C,JP1*%
G36*
X64250602Y-72950000D02*
G01*
X64250602Y-72925466D01*
X64255412Y-72876635D01*
X64264984Y-72828510D01*
X64279228Y-72781555D01*
X64298005Y-72736222D01*
X64321136Y-72692949D01*
X64348396Y-72652150D01*
X64379524Y-72614221D01*
X64414221Y-72579524D01*
X64452150Y-72548396D01*
X64492949Y-72521136D01*
X64536222Y-72498005D01*
X64581555Y-72479228D01*
X64628510Y-72464984D01*
X64676635Y-72455412D01*
X64725466Y-72450602D01*
X64750000Y-72450602D01*
X64750000Y-72450000D01*
X65250000Y-72450000D01*
X65250000Y-72450602D01*
X65274534Y-72450602D01*
X65323365Y-72455412D01*
X65371490Y-72464984D01*
X65418445Y-72479228D01*
X65463778Y-72498005D01*
X65507051Y-72521136D01*
X65547850Y-72548396D01*
X65585779Y-72579524D01*
X65620476Y-72614221D01*
X65651604Y-72652150D01*
X65678864Y-72692949D01*
X65701995Y-72736222D01*
X65720772Y-72781555D01*
X65735016Y-72828510D01*
X65744588Y-72876635D01*
X65749398Y-72925466D01*
X65749398Y-72950000D01*
X65750000Y-72950000D01*
X65750000Y-73450000D01*
X64250000Y-73450000D01*
X64250000Y-72950000D01*
X64250602Y-72950000D01*
G37*
G36*
X65750000Y-73750000D02*
G01*
X65750000Y-74250000D01*
X65749398Y-74250000D01*
X65749398Y-74274534D01*
X65744588Y-74323365D01*
X65735016Y-74371490D01*
X65720772Y-74418445D01*
X65701995Y-74463778D01*
X65678864Y-74507051D01*
X65651604Y-74547850D01*
X65620476Y-74585779D01*
X65585779Y-74620476D01*
X65547850Y-74651604D01*
X65507051Y-74678864D01*
X65463778Y-74701995D01*
X65418445Y-74720772D01*
X65371490Y-74735016D01*
X65323365Y-74744588D01*
X65274534Y-74749398D01*
X65250000Y-74749398D01*
X65250000Y-74750000D01*
X64750000Y-74750000D01*
X64750000Y-74749398D01*
X64725466Y-74749398D01*
X64676635Y-74744588D01*
X64628510Y-74735016D01*
X64581555Y-74720772D01*
X64536222Y-74701995D01*
X64492949Y-74678864D01*
X64452150Y-74651604D01*
X64414221Y-74620476D01*
X64379524Y-74585779D01*
X64348396Y-74547850D01*
X64321136Y-74507051D01*
X64298005Y-74463778D01*
X64279228Y-74418445D01*
X64264984Y-74371490D01*
X64255412Y-74323365D01*
X64250602Y-74274534D01*
X64250602Y-74250000D01*
X64250000Y-74250000D01*
X64250000Y-73750000D01*
X65750000Y-73750000D01*
G37*
%TD*%
M02*
