%TF.GenerationSoftware,KiCad,Pcbnew,(5.1.9)-1*%
%TF.CreationDate,2021-12-29T11:52:55+01:00*%
%TF.ProjectId,heart,68656172-742e-46b6-9963-61645f706362,rev?*%
%TF.SameCoordinates,Original*%
%TF.FileFunction,Copper,L1,Top*%
%TF.FilePolarity,Positive*%
%FSLAX46Y46*%
G04 Gerber Fmt 4.6, Leading zero omitted, Abs format (unit mm)*
G04 Created by KiCad (PCBNEW (5.1.9)-1) date 2021-12-29 11:52:55*
%MOMM*%
%LPD*%
G01*
G04 APERTURE LIST*
%TA.AperFunction,SMDPad,CuDef*%
%ADD10C,4.000000*%
%TD*%
%TA.AperFunction,SMDPad,CuDef*%
%ADD11R,1.060000X0.650000*%
%TD*%
%TA.AperFunction,ViaPad*%
%ADD12C,0.600000*%
%TD*%
%TA.AperFunction,Conductor*%
%ADD13C,0.250000*%
%TD*%
%TA.AperFunction,Conductor*%
%ADD14C,0.500000*%
%TD*%
G04 APERTURE END LIST*
%TO.P,U3,16*%
%TO.N,Net-(U3-Pad16)*%
%TA.AperFunction,SMDPad,CuDef*%
G36*
G01*
X49325000Y-83962500D02*
X49325000Y-83587500D01*
G75*
G02*
X49412500Y-83500000I87500J0D01*
G01*
X49587500Y-83500000D01*
G75*
G02*
X49675000Y-83587500I0J-87500D01*
G01*
X49675000Y-83962500D01*
G75*
G02*
X49587500Y-84050000I-87500J0D01*
G01*
X49412500Y-84050000D01*
G75*
G02*
X49325000Y-83962500I0J87500D01*
G01*
G37*
%TD.AperFunction*%
%TO.P,U3,15*%
%TO.N,Net-(U3-Pad15)*%
%TA.AperFunction,SMDPad,CuDef*%
G36*
G01*
X49825000Y-83962500D02*
X49825000Y-83587500D01*
G75*
G02*
X49912500Y-83500000I87500J0D01*
G01*
X50087500Y-83500000D01*
G75*
G02*
X50175000Y-83587500I0J-87500D01*
G01*
X50175000Y-83962500D01*
G75*
G02*
X50087500Y-84050000I-87500J0D01*
G01*
X49912500Y-84050000D01*
G75*
G02*
X49825000Y-83962500I0J87500D01*
G01*
G37*
%TD.AperFunction*%
%TO.P,U3,14*%
%TO.N,+3V0*%
%TA.AperFunction,SMDPad,CuDef*%
G36*
G01*
X50325000Y-83962500D02*
X50325000Y-83587500D01*
G75*
G02*
X50412500Y-83500000I87500J0D01*
G01*
X50587500Y-83500000D01*
G75*
G02*
X50675000Y-83587500I0J-87500D01*
G01*
X50675000Y-83962500D01*
G75*
G02*
X50587500Y-84050000I-87500J0D01*
G01*
X50412500Y-84050000D01*
G75*
G02*
X50325000Y-83962500I0J87500D01*
G01*
G37*
%TD.AperFunction*%
%TO.P,U3,13*%
%TO.N,Net-(U3-Pad13)*%
%TA.AperFunction,SMDPad,CuDef*%
G36*
G01*
X50950000Y-84087500D02*
X50950000Y-83912500D01*
G75*
G02*
X51037500Y-83825000I87500J0D01*
G01*
X51412500Y-83825000D01*
G75*
G02*
X51500000Y-83912500I0J-87500D01*
G01*
X51500000Y-84087500D01*
G75*
G02*
X51412500Y-84175000I-87500J0D01*
G01*
X51037500Y-84175000D01*
G75*
G02*
X50950000Y-84087500I0J87500D01*
G01*
G37*
%TD.AperFunction*%
%TO.P,U3,12*%
%TO.N,GND*%
%TA.AperFunction,SMDPad,CuDef*%
G36*
G01*
X50950000Y-84587500D02*
X50950000Y-84412500D01*
G75*
G02*
X51037500Y-84325000I87500J0D01*
G01*
X51412500Y-84325000D01*
G75*
G02*
X51500000Y-84412500I0J-87500D01*
G01*
X51500000Y-84587500D01*
G75*
G02*
X51412500Y-84675000I-87500J0D01*
G01*
X51037500Y-84675000D01*
G75*
G02*
X50950000Y-84587500I0J87500D01*
G01*
G37*
%TD.AperFunction*%
%TO.P,U3,11*%
%TO.N,LIS3DH_INT1*%
%TA.AperFunction,SMDPad,CuDef*%
G36*
G01*
X50950000Y-85087500D02*
X50950000Y-84912500D01*
G75*
G02*
X51037500Y-84825000I87500J0D01*
G01*
X51412500Y-84825000D01*
G75*
G02*
X51500000Y-84912500I0J-87500D01*
G01*
X51500000Y-85087500D01*
G75*
G02*
X51412500Y-85175000I-87500J0D01*
G01*
X51037500Y-85175000D01*
G75*
G02*
X50950000Y-85087500I0J87500D01*
G01*
G37*
%TD.AperFunction*%
%TO.P,U3,10*%
%TO.N,GND*%
%TA.AperFunction,SMDPad,CuDef*%
G36*
G01*
X50950000Y-85587500D02*
X50950000Y-85412500D01*
G75*
G02*
X51037500Y-85325000I87500J0D01*
G01*
X51412500Y-85325000D01*
G75*
G02*
X51500000Y-85412500I0J-87500D01*
G01*
X51500000Y-85587500D01*
G75*
G02*
X51412500Y-85675000I-87500J0D01*
G01*
X51037500Y-85675000D01*
G75*
G02*
X50950000Y-85587500I0J87500D01*
G01*
G37*
%TD.AperFunction*%
%TO.P,U3,9*%
%TO.N,LIS3DH_INT2*%
%TA.AperFunction,SMDPad,CuDef*%
G36*
G01*
X50950000Y-86087500D02*
X50950000Y-85912500D01*
G75*
G02*
X51037500Y-85825000I87500J0D01*
G01*
X51412500Y-85825000D01*
G75*
G02*
X51500000Y-85912500I0J-87500D01*
G01*
X51500000Y-86087500D01*
G75*
G02*
X51412500Y-86175000I-87500J0D01*
G01*
X51037500Y-86175000D01*
G75*
G02*
X50950000Y-86087500I0J87500D01*
G01*
G37*
%TD.AperFunction*%
%TO.P,U3,8*%
%TO.N,Net-(R25-Pad1)*%
%TA.AperFunction,SMDPad,CuDef*%
G36*
G01*
X50325000Y-86412500D02*
X50325000Y-86037500D01*
G75*
G02*
X50412500Y-85950000I87500J0D01*
G01*
X50587500Y-85950000D01*
G75*
G02*
X50675000Y-86037500I0J-87500D01*
G01*
X50675000Y-86412500D01*
G75*
G02*
X50587500Y-86500000I-87500J0D01*
G01*
X50412500Y-86500000D01*
G75*
G02*
X50325000Y-86412500I0J87500D01*
G01*
G37*
%TD.AperFunction*%
%TO.P,U3,7*%
%TO.N,Net-(R26-Pad2)*%
%TA.AperFunction,SMDPad,CuDef*%
G36*
G01*
X49825000Y-86412500D02*
X49825000Y-86037500D01*
G75*
G02*
X49912500Y-85950000I87500J0D01*
G01*
X50087500Y-85950000D01*
G75*
G02*
X50175000Y-86037500I0J-87500D01*
G01*
X50175000Y-86412500D01*
G75*
G02*
X50087500Y-86500000I-87500J0D01*
G01*
X49912500Y-86500000D01*
G75*
G02*
X49825000Y-86412500I0J87500D01*
G01*
G37*
%TD.AperFunction*%
%TO.P,U3,6*%
%TO.N,I2C_SDA*%
%TA.AperFunction,SMDPad,CuDef*%
G36*
G01*
X49325000Y-86412500D02*
X49325000Y-86037500D01*
G75*
G02*
X49412500Y-85950000I87500J0D01*
G01*
X49587500Y-85950000D01*
G75*
G02*
X49675000Y-86037500I0J-87500D01*
G01*
X49675000Y-86412500D01*
G75*
G02*
X49587500Y-86500000I-87500J0D01*
G01*
X49412500Y-86500000D01*
G75*
G02*
X49325000Y-86412500I0J87500D01*
G01*
G37*
%TD.AperFunction*%
%TO.P,U3,5*%
%TO.N,GND*%
%TA.AperFunction,SMDPad,CuDef*%
G36*
G01*
X48500000Y-86087500D02*
X48500000Y-85912500D01*
G75*
G02*
X48587500Y-85825000I87500J0D01*
G01*
X48962500Y-85825000D01*
G75*
G02*
X49050000Y-85912500I0J-87500D01*
G01*
X49050000Y-86087500D01*
G75*
G02*
X48962500Y-86175000I-87500J0D01*
G01*
X48587500Y-86175000D01*
G75*
G02*
X48500000Y-86087500I0J87500D01*
G01*
G37*
%TD.AperFunction*%
%TO.P,U3,4*%
%TO.N,I2C_SCL*%
%TA.AperFunction,SMDPad,CuDef*%
G36*
G01*
X48500000Y-85587500D02*
X48500000Y-85412500D01*
G75*
G02*
X48587500Y-85325000I87500J0D01*
G01*
X48962500Y-85325000D01*
G75*
G02*
X49050000Y-85412500I0J-87500D01*
G01*
X49050000Y-85587500D01*
G75*
G02*
X48962500Y-85675000I-87500J0D01*
G01*
X48587500Y-85675000D01*
G75*
G02*
X48500000Y-85587500I0J87500D01*
G01*
G37*
%TD.AperFunction*%
%TO.P,U3,3*%
%TO.N,Net-(U3-Pad3)*%
%TA.AperFunction,SMDPad,CuDef*%
G36*
G01*
X48500000Y-85087500D02*
X48500000Y-84912500D01*
G75*
G02*
X48587500Y-84825000I87500J0D01*
G01*
X48962500Y-84825000D01*
G75*
G02*
X49050000Y-84912500I0J-87500D01*
G01*
X49050000Y-85087500D01*
G75*
G02*
X48962500Y-85175000I-87500J0D01*
G01*
X48587500Y-85175000D01*
G75*
G02*
X48500000Y-85087500I0J87500D01*
G01*
G37*
%TD.AperFunction*%
%TO.P,U3,2*%
%TO.N,Net-(U3-Pad2)*%
%TA.AperFunction,SMDPad,CuDef*%
G36*
G01*
X48500000Y-84587500D02*
X48500000Y-84412500D01*
G75*
G02*
X48587500Y-84325000I87500J0D01*
G01*
X48962500Y-84325000D01*
G75*
G02*
X49050000Y-84412500I0J-87500D01*
G01*
X49050000Y-84587500D01*
G75*
G02*
X48962500Y-84675000I-87500J0D01*
G01*
X48587500Y-84675000D01*
G75*
G02*
X48500000Y-84587500I0J87500D01*
G01*
G37*
%TD.AperFunction*%
%TO.P,U3,1*%
%TO.N,+3V0*%
%TA.AperFunction,SMDPad,CuDef*%
G36*
G01*
X48500000Y-84087500D02*
X48500000Y-83912500D01*
G75*
G02*
X48587500Y-83825000I87500J0D01*
G01*
X48962500Y-83825000D01*
G75*
G02*
X49050000Y-83912500I0J-87500D01*
G01*
X49050000Y-84087500D01*
G75*
G02*
X48962500Y-84175000I-87500J0D01*
G01*
X48587500Y-84175000D01*
G75*
G02*
X48500000Y-84087500I0J87500D01*
G01*
G37*
%TD.AperFunction*%
%TD*%
%TO.P,U2,24*%
%TO.N,+3V0*%
%TA.AperFunction,SMDPad,CuDef*%
G36*
G01*
X52125000Y-74025000D02*
X52125000Y-73825000D01*
G75*
G02*
X52225000Y-73725000I100000J0D01*
G01*
X53500000Y-73725000D01*
G75*
G02*
X53600000Y-73825000I0J-100000D01*
G01*
X53600000Y-74025000D01*
G75*
G02*
X53500000Y-74125000I-100000J0D01*
G01*
X52225000Y-74125000D01*
G75*
G02*
X52125000Y-74025000I0J100000D01*
G01*
G37*
%TD.AperFunction*%
%TO.P,U2,23*%
%TO.N,I2C_SDA*%
%TA.AperFunction,SMDPad,CuDef*%
G36*
G01*
X52125000Y-74675000D02*
X52125000Y-74475000D01*
G75*
G02*
X52225000Y-74375000I100000J0D01*
G01*
X53500000Y-74375000D01*
G75*
G02*
X53600000Y-74475000I0J-100000D01*
G01*
X53600000Y-74675000D01*
G75*
G02*
X53500000Y-74775000I-100000J0D01*
G01*
X52225000Y-74775000D01*
G75*
G02*
X52125000Y-74675000I0J100000D01*
G01*
G37*
%TD.AperFunction*%
%TO.P,U2,22*%
%TO.N,I2C_SCL*%
%TA.AperFunction,SMDPad,CuDef*%
G36*
G01*
X52125000Y-75325000D02*
X52125000Y-75125000D01*
G75*
G02*
X52225000Y-75025000I100000J0D01*
G01*
X53500000Y-75025000D01*
G75*
G02*
X53600000Y-75125000I0J-100000D01*
G01*
X53600000Y-75325000D01*
G75*
G02*
X53500000Y-75425000I-100000J0D01*
G01*
X52225000Y-75425000D01*
G75*
G02*
X52125000Y-75325000I0J100000D01*
G01*
G37*
%TD.AperFunction*%
%TO.P,U2,21*%
%TO.N,GND*%
%TA.AperFunction,SMDPad,CuDef*%
G36*
G01*
X52125000Y-75975000D02*
X52125000Y-75775000D01*
G75*
G02*
X52225000Y-75675000I100000J0D01*
G01*
X53500000Y-75675000D01*
G75*
G02*
X53600000Y-75775000I0J-100000D01*
G01*
X53600000Y-75975000D01*
G75*
G02*
X53500000Y-76075000I-100000J0D01*
G01*
X52225000Y-76075000D01*
G75*
G02*
X52125000Y-75975000I0J100000D01*
G01*
G37*
%TD.AperFunction*%
%TO.P,U2,20*%
%TO.N,Net-(R15-Pad1)*%
%TA.AperFunction,SMDPad,CuDef*%
G36*
G01*
X52125000Y-76625000D02*
X52125000Y-76425000D01*
G75*
G02*
X52225000Y-76325000I100000J0D01*
G01*
X53500000Y-76325000D01*
G75*
G02*
X53600000Y-76425000I0J-100000D01*
G01*
X53600000Y-76625000D01*
G75*
G02*
X53500000Y-76725000I-100000J0D01*
G01*
X52225000Y-76725000D01*
G75*
G02*
X52125000Y-76625000I0J100000D01*
G01*
G37*
%TD.AperFunction*%
%TO.P,U2,19*%
%TO.N,Net-(R14-Pad1)*%
%TA.AperFunction,SMDPad,CuDef*%
G36*
G01*
X52125000Y-77275000D02*
X52125000Y-77075000D01*
G75*
G02*
X52225000Y-76975000I100000J0D01*
G01*
X53500000Y-76975000D01*
G75*
G02*
X53600000Y-77075000I0J-100000D01*
G01*
X53600000Y-77275000D01*
G75*
G02*
X53500000Y-77375000I-100000J0D01*
G01*
X52225000Y-77375000D01*
G75*
G02*
X52125000Y-77275000I0J100000D01*
G01*
G37*
%TD.AperFunction*%
%TO.P,U2,18*%
%TO.N,Net-(R13-Pad1)*%
%TA.AperFunction,SMDPad,CuDef*%
G36*
G01*
X52125000Y-77925000D02*
X52125000Y-77725000D01*
G75*
G02*
X52225000Y-77625000I100000J0D01*
G01*
X53500000Y-77625000D01*
G75*
G02*
X53600000Y-77725000I0J-100000D01*
G01*
X53600000Y-77925000D01*
G75*
G02*
X53500000Y-78025000I-100000J0D01*
G01*
X52225000Y-78025000D01*
G75*
G02*
X52125000Y-77925000I0J100000D01*
G01*
G37*
%TD.AperFunction*%
%TO.P,U2,17*%
%TO.N,Net-(R12-Pad1)*%
%TA.AperFunction,SMDPad,CuDef*%
G36*
G01*
X52125000Y-78575000D02*
X52125000Y-78375000D01*
G75*
G02*
X52225000Y-78275000I100000J0D01*
G01*
X53500000Y-78275000D01*
G75*
G02*
X53600000Y-78375000I0J-100000D01*
G01*
X53600000Y-78575000D01*
G75*
G02*
X53500000Y-78675000I-100000J0D01*
G01*
X52225000Y-78675000D01*
G75*
G02*
X52125000Y-78575000I0J100000D01*
G01*
G37*
%TD.AperFunction*%
%TO.P,U2,16*%
%TO.N,Net-(R11-Pad1)*%
%TA.AperFunction,SMDPad,CuDef*%
G36*
G01*
X52125000Y-79225000D02*
X52125000Y-79025000D01*
G75*
G02*
X52225000Y-78925000I100000J0D01*
G01*
X53500000Y-78925000D01*
G75*
G02*
X53600000Y-79025000I0J-100000D01*
G01*
X53600000Y-79225000D01*
G75*
G02*
X53500000Y-79325000I-100000J0D01*
G01*
X52225000Y-79325000D01*
G75*
G02*
X52125000Y-79225000I0J100000D01*
G01*
G37*
%TD.AperFunction*%
%TO.P,U2,15*%
%TO.N,Net-(R10-Pad1)*%
%TA.AperFunction,SMDPad,CuDef*%
G36*
G01*
X52125000Y-79875000D02*
X52125000Y-79675000D01*
G75*
G02*
X52225000Y-79575000I100000J0D01*
G01*
X53500000Y-79575000D01*
G75*
G02*
X53600000Y-79675000I0J-100000D01*
G01*
X53600000Y-79875000D01*
G75*
G02*
X53500000Y-79975000I-100000J0D01*
G01*
X52225000Y-79975000D01*
G75*
G02*
X52125000Y-79875000I0J100000D01*
G01*
G37*
%TD.AperFunction*%
%TO.P,U2,14*%
%TO.N,Net-(R9-Pad1)*%
%TA.AperFunction,SMDPad,CuDef*%
G36*
G01*
X52125000Y-80525000D02*
X52125000Y-80325000D01*
G75*
G02*
X52225000Y-80225000I100000J0D01*
G01*
X53500000Y-80225000D01*
G75*
G02*
X53600000Y-80325000I0J-100000D01*
G01*
X53600000Y-80525000D01*
G75*
G02*
X53500000Y-80625000I-100000J0D01*
G01*
X52225000Y-80625000D01*
G75*
G02*
X52125000Y-80525000I0J100000D01*
G01*
G37*
%TD.AperFunction*%
%TO.P,U2,13*%
%TO.N,Net-(R8-Pad1)*%
%TA.AperFunction,SMDPad,CuDef*%
G36*
G01*
X52125000Y-81175000D02*
X52125000Y-80975000D01*
G75*
G02*
X52225000Y-80875000I100000J0D01*
G01*
X53500000Y-80875000D01*
G75*
G02*
X53600000Y-80975000I0J-100000D01*
G01*
X53600000Y-81175000D01*
G75*
G02*
X53500000Y-81275000I-100000J0D01*
G01*
X52225000Y-81275000D01*
G75*
G02*
X52125000Y-81175000I0J100000D01*
G01*
G37*
%TD.AperFunction*%
%TO.P,U2,12*%
%TO.N,GND*%
%TA.AperFunction,SMDPad,CuDef*%
G36*
G01*
X46400000Y-81175000D02*
X46400000Y-80975000D01*
G75*
G02*
X46500000Y-80875000I100000J0D01*
G01*
X47775000Y-80875000D01*
G75*
G02*
X47875000Y-80975000I0J-100000D01*
G01*
X47875000Y-81175000D01*
G75*
G02*
X47775000Y-81275000I-100000J0D01*
G01*
X46500000Y-81275000D01*
G75*
G02*
X46400000Y-81175000I0J100000D01*
G01*
G37*
%TD.AperFunction*%
%TO.P,U2,11*%
%TO.N,Net-(R7-Pad1)*%
%TA.AperFunction,SMDPad,CuDef*%
G36*
G01*
X46400000Y-80525000D02*
X46400000Y-80325000D01*
G75*
G02*
X46500000Y-80225000I100000J0D01*
G01*
X47775000Y-80225000D01*
G75*
G02*
X47875000Y-80325000I0J-100000D01*
G01*
X47875000Y-80525000D01*
G75*
G02*
X47775000Y-80625000I-100000J0D01*
G01*
X46500000Y-80625000D01*
G75*
G02*
X46400000Y-80525000I0J100000D01*
G01*
G37*
%TD.AperFunction*%
%TO.P,U2,10*%
%TO.N,Net-(R6-Pad1)*%
%TA.AperFunction,SMDPad,CuDef*%
G36*
G01*
X46400000Y-79875000D02*
X46400000Y-79675000D01*
G75*
G02*
X46500000Y-79575000I100000J0D01*
G01*
X47775000Y-79575000D01*
G75*
G02*
X47875000Y-79675000I0J-100000D01*
G01*
X47875000Y-79875000D01*
G75*
G02*
X47775000Y-79975000I-100000J0D01*
G01*
X46500000Y-79975000D01*
G75*
G02*
X46400000Y-79875000I0J100000D01*
G01*
G37*
%TD.AperFunction*%
%TO.P,U2,9*%
%TO.N,Net-(R5-Pad1)*%
%TA.AperFunction,SMDPad,CuDef*%
G36*
G01*
X46400000Y-79225000D02*
X46400000Y-79025000D01*
G75*
G02*
X46500000Y-78925000I100000J0D01*
G01*
X47775000Y-78925000D01*
G75*
G02*
X47875000Y-79025000I0J-100000D01*
G01*
X47875000Y-79225000D01*
G75*
G02*
X47775000Y-79325000I-100000J0D01*
G01*
X46500000Y-79325000D01*
G75*
G02*
X46400000Y-79225000I0J100000D01*
G01*
G37*
%TD.AperFunction*%
%TO.P,U2,8*%
%TO.N,Net-(R4-Pad1)*%
%TA.AperFunction,SMDPad,CuDef*%
G36*
G01*
X46400000Y-78575000D02*
X46400000Y-78375000D01*
G75*
G02*
X46500000Y-78275000I100000J0D01*
G01*
X47775000Y-78275000D01*
G75*
G02*
X47875000Y-78375000I0J-100000D01*
G01*
X47875000Y-78575000D01*
G75*
G02*
X47775000Y-78675000I-100000J0D01*
G01*
X46500000Y-78675000D01*
G75*
G02*
X46400000Y-78575000I0J100000D01*
G01*
G37*
%TD.AperFunction*%
%TO.P,U2,7*%
%TO.N,Net-(R3-Pad1)*%
%TA.AperFunction,SMDPad,CuDef*%
G36*
G01*
X46400000Y-77925000D02*
X46400000Y-77725000D01*
G75*
G02*
X46500000Y-77625000I100000J0D01*
G01*
X47775000Y-77625000D01*
G75*
G02*
X47875000Y-77725000I0J-100000D01*
G01*
X47875000Y-77925000D01*
G75*
G02*
X47775000Y-78025000I-100000J0D01*
G01*
X46500000Y-78025000D01*
G75*
G02*
X46400000Y-77925000I0J100000D01*
G01*
G37*
%TD.AperFunction*%
%TO.P,U2,6*%
%TO.N,Net-(R2-Pad1)*%
%TA.AperFunction,SMDPad,CuDef*%
G36*
G01*
X46400000Y-77275000D02*
X46400000Y-77075000D01*
G75*
G02*
X46500000Y-76975000I100000J0D01*
G01*
X47775000Y-76975000D01*
G75*
G02*
X47875000Y-77075000I0J-100000D01*
G01*
X47875000Y-77275000D01*
G75*
G02*
X47775000Y-77375000I-100000J0D01*
G01*
X46500000Y-77375000D01*
G75*
G02*
X46400000Y-77275000I0J100000D01*
G01*
G37*
%TD.AperFunction*%
%TO.P,U2,5*%
%TO.N,Net-(R1-Pad1)*%
%TA.AperFunction,SMDPad,CuDef*%
G36*
G01*
X46400000Y-76625000D02*
X46400000Y-76425000D01*
G75*
G02*
X46500000Y-76325000I100000J0D01*
G01*
X47775000Y-76325000D01*
G75*
G02*
X47875000Y-76425000I0J-100000D01*
G01*
X47875000Y-76625000D01*
G75*
G02*
X47775000Y-76725000I-100000J0D01*
G01*
X46500000Y-76725000D01*
G75*
G02*
X46400000Y-76625000I0J100000D01*
G01*
G37*
%TD.AperFunction*%
%TO.P,U2,4*%
%TO.N,Net-(R0-Pad1)*%
%TA.AperFunction,SMDPad,CuDef*%
G36*
G01*
X46400000Y-75975000D02*
X46400000Y-75775000D01*
G75*
G02*
X46500000Y-75675000I100000J0D01*
G01*
X47775000Y-75675000D01*
G75*
G02*
X47875000Y-75775000I0J-100000D01*
G01*
X47875000Y-75975000D01*
G75*
G02*
X47775000Y-76075000I-100000J0D01*
G01*
X46500000Y-76075000D01*
G75*
G02*
X46400000Y-75975000I0J100000D01*
G01*
G37*
%TD.AperFunction*%
%TO.P,U2,3*%
%TO.N,TCA6416A_RESET*%
%TA.AperFunction,SMDPad,CuDef*%
G36*
G01*
X46400000Y-75325000D02*
X46400000Y-75125000D01*
G75*
G02*
X46500000Y-75025000I100000J0D01*
G01*
X47775000Y-75025000D01*
G75*
G02*
X47875000Y-75125000I0J-100000D01*
G01*
X47875000Y-75325000D01*
G75*
G02*
X47775000Y-75425000I-100000J0D01*
G01*
X46500000Y-75425000D01*
G75*
G02*
X46400000Y-75325000I0J100000D01*
G01*
G37*
%TD.AperFunction*%
%TO.P,U2,2*%
%TO.N,+3V0*%
%TA.AperFunction,SMDPad,CuDef*%
G36*
G01*
X46400000Y-74675000D02*
X46400000Y-74475000D01*
G75*
G02*
X46500000Y-74375000I100000J0D01*
G01*
X47775000Y-74375000D01*
G75*
G02*
X47875000Y-74475000I0J-100000D01*
G01*
X47875000Y-74675000D01*
G75*
G02*
X47775000Y-74775000I-100000J0D01*
G01*
X46500000Y-74775000D01*
G75*
G02*
X46400000Y-74675000I0J100000D01*
G01*
G37*
%TD.AperFunction*%
%TO.P,U2,1*%
%TO.N,Net-(U2-Pad1)*%
%TA.AperFunction,SMDPad,CuDef*%
G36*
G01*
X46400000Y-74025000D02*
X46400000Y-73825000D01*
G75*
G02*
X46500000Y-73725000I100000J0D01*
G01*
X47775000Y-73725000D01*
G75*
G02*
X47875000Y-73825000I0J-100000D01*
G01*
X47875000Y-74025000D01*
G75*
G02*
X47775000Y-74125000I-100000J0D01*
G01*
X46500000Y-74125000D01*
G75*
G02*
X46400000Y-74025000I0J100000D01*
G01*
G37*
%TD.AperFunction*%
%TD*%
D10*
%TO.P,J5,1*%
%TO.N,Net-(C10-Pad2)*%
X50000000Y-96050000D03*
%TD*%
D11*
%TO.P,U4,5*%
%TO.N,Net-(U4-Pad5)*%
X51100000Y-90000000D03*
%TO.P,U4,6*%
%TO.N,Net-(C10-Pad2)*%
X51100000Y-89050000D03*
%TO.P,U4,4*%
%TO.N,Net-(U4-Pad4)*%
X51100000Y-90950000D03*
%TO.P,U4,3*%
%TO.N,TOUCH_KEY_1*%
X48900000Y-90950000D03*
%TO.P,U4,2*%
%TO.N,GND*%
X48900000Y-90000000D03*
%TO.P,U4,1*%
%TO.N,+3V0*%
X48900000Y-89050000D03*
%TD*%
%TO.P,C11,2*%
%TO.N,+3V0*%
%TA.AperFunction,SMDPad,CuDef*%
G36*
G01*
X46170000Y-89300000D02*
X45830000Y-89300000D01*
G75*
G02*
X45690000Y-89160000I0J140000D01*
G01*
X45690000Y-88880000D01*
G75*
G02*
X45830000Y-88740000I140000J0D01*
G01*
X46170000Y-88740000D01*
G75*
G02*
X46310000Y-88880000I0J-140000D01*
G01*
X46310000Y-89160000D01*
G75*
G02*
X46170000Y-89300000I-140000J0D01*
G01*
G37*
%TD.AperFunction*%
%TO.P,C11,1*%
%TO.N,GND*%
%TA.AperFunction,SMDPad,CuDef*%
G36*
G01*
X46170000Y-90260000D02*
X45830000Y-90260000D01*
G75*
G02*
X45690000Y-90120000I0J140000D01*
G01*
X45690000Y-89840000D01*
G75*
G02*
X45830000Y-89700000I140000J0D01*
G01*
X46170000Y-89700000D01*
G75*
G02*
X46310000Y-89840000I0J-140000D01*
G01*
X46310000Y-90120000D01*
G75*
G02*
X46170000Y-90260000I-140000J0D01*
G01*
G37*
%TD.AperFunction*%
%TD*%
%TO.P,C10,2*%
%TO.N,Net-(C10-Pad2)*%
%TA.AperFunction,SMDPad,CuDef*%
G36*
G01*
X54170000Y-89300000D02*
X53830000Y-89300000D01*
G75*
G02*
X53690000Y-89160000I0J140000D01*
G01*
X53690000Y-88880000D01*
G75*
G02*
X53830000Y-88740000I140000J0D01*
G01*
X54170000Y-88740000D01*
G75*
G02*
X54310000Y-88880000I0J-140000D01*
G01*
X54310000Y-89160000D01*
G75*
G02*
X54170000Y-89300000I-140000J0D01*
G01*
G37*
%TD.AperFunction*%
%TO.P,C10,1*%
%TO.N,GND*%
%TA.AperFunction,SMDPad,CuDef*%
G36*
G01*
X54170000Y-90260000D02*
X53830000Y-90260000D01*
G75*
G02*
X53690000Y-90120000I0J140000D01*
G01*
X53690000Y-89840000D01*
G75*
G02*
X53830000Y-89700000I140000J0D01*
G01*
X54170000Y-89700000D01*
G75*
G02*
X54310000Y-89840000I0J-140000D01*
G01*
X54310000Y-90120000D01*
G75*
G02*
X54170000Y-90260000I-140000J0D01*
G01*
G37*
%TD.AperFunction*%
%TD*%
%TO.P,D4,2*%
%TO.N,+3V0*%
%TA.AperFunction,SMDPad,CuDef*%
G36*
G01*
X30256250Y-73150000D02*
X29743750Y-73150000D01*
G75*
G02*
X29525000Y-72931250I0J218750D01*
G01*
X29525000Y-72493750D01*
G75*
G02*
X29743750Y-72275000I218750J0D01*
G01*
X30256250Y-72275000D01*
G75*
G02*
X30475000Y-72493750I0J-218750D01*
G01*
X30475000Y-72931250D01*
G75*
G02*
X30256250Y-73150000I-218750J0D01*
G01*
G37*
%TD.AperFunction*%
%TO.P,D4,1*%
%TO.N,Net-(D4-Pad1)*%
%TA.AperFunction,SMDPad,CuDef*%
G36*
G01*
X30256250Y-74725000D02*
X29743750Y-74725000D01*
G75*
G02*
X29525000Y-74506250I0J218750D01*
G01*
X29525000Y-74068750D01*
G75*
G02*
X29743750Y-73850000I218750J0D01*
G01*
X30256250Y-73850000D01*
G75*
G02*
X30475000Y-74068750I0J-218750D01*
G01*
X30475000Y-74506250D01*
G75*
G02*
X30256250Y-74725000I-218750J0D01*
G01*
G37*
%TD.AperFunction*%
%TD*%
%TO.P,D7,2*%
%TO.N,+3V0*%
%TA.AperFunction,SMDPad,CuDef*%
G36*
G01*
X42756250Y-92150000D02*
X42243750Y-92150000D01*
G75*
G02*
X42025000Y-91931250I0J218750D01*
G01*
X42025000Y-91493750D01*
G75*
G02*
X42243750Y-91275000I218750J0D01*
G01*
X42756250Y-91275000D01*
G75*
G02*
X42975000Y-91493750I0J-218750D01*
G01*
X42975000Y-91931250D01*
G75*
G02*
X42756250Y-92150000I-218750J0D01*
G01*
G37*
%TD.AperFunction*%
%TO.P,D7,1*%
%TO.N,Net-(D7-Pad1)*%
%TA.AperFunction,SMDPad,CuDef*%
G36*
G01*
X42756250Y-93725000D02*
X42243750Y-93725000D01*
G75*
G02*
X42025000Y-93506250I0J218750D01*
G01*
X42025000Y-93068750D01*
G75*
G02*
X42243750Y-92850000I218750J0D01*
G01*
X42756250Y-92850000D01*
G75*
G02*
X42975000Y-93068750I0J-218750D01*
G01*
X42975000Y-93506250D01*
G75*
G02*
X42756250Y-93725000I-218750J0D01*
G01*
G37*
%TD.AperFunction*%
%TD*%
%TO.P,R26,2*%
%TO.N,Net-(R26-Pad2)*%
%TA.AperFunction,SMDPad,CuDef*%
G36*
G01*
X53760000Y-85815000D02*
X53760000Y-86185000D01*
G75*
G02*
X53625000Y-86320000I-135000J0D01*
G01*
X53355000Y-86320000D01*
G75*
G02*
X53220000Y-86185000I0J135000D01*
G01*
X53220000Y-85815000D01*
G75*
G02*
X53355000Y-85680000I135000J0D01*
G01*
X53625000Y-85680000D01*
G75*
G02*
X53760000Y-85815000I0J-135000D01*
G01*
G37*
%TD.AperFunction*%
%TO.P,R26,1*%
%TO.N,GND*%
%TA.AperFunction,SMDPad,CuDef*%
G36*
G01*
X54780000Y-85815000D02*
X54780000Y-86185000D01*
G75*
G02*
X54645000Y-86320000I-135000J0D01*
G01*
X54375000Y-86320000D01*
G75*
G02*
X54240000Y-86185000I0J135000D01*
G01*
X54240000Y-85815000D01*
G75*
G02*
X54375000Y-85680000I135000J0D01*
G01*
X54645000Y-85680000D01*
G75*
G02*
X54780000Y-85815000I0J-135000D01*
G01*
G37*
%TD.AperFunction*%
%TD*%
%TO.P,R25,2*%
%TO.N,+3V0*%
%TA.AperFunction,SMDPad,CuDef*%
G36*
G01*
X54240000Y-85185000D02*
X54240000Y-84815000D01*
G75*
G02*
X54375000Y-84680000I135000J0D01*
G01*
X54645000Y-84680000D01*
G75*
G02*
X54780000Y-84815000I0J-135000D01*
G01*
X54780000Y-85185000D01*
G75*
G02*
X54645000Y-85320000I-135000J0D01*
G01*
X54375000Y-85320000D01*
G75*
G02*
X54240000Y-85185000I0J135000D01*
G01*
G37*
%TD.AperFunction*%
%TO.P,R25,1*%
%TO.N,Net-(R25-Pad1)*%
%TA.AperFunction,SMDPad,CuDef*%
G36*
G01*
X53220000Y-85185000D02*
X53220000Y-84815000D01*
G75*
G02*
X53355000Y-84680000I135000J0D01*
G01*
X53625000Y-84680000D01*
G75*
G02*
X53760000Y-84815000I0J-135000D01*
G01*
X53760000Y-85185000D01*
G75*
G02*
X53625000Y-85320000I-135000J0D01*
G01*
X53355000Y-85320000D01*
G75*
G02*
X53220000Y-85185000I0J135000D01*
G01*
G37*
%TD.AperFunction*%
%TD*%
%TO.P,R15,2*%
%TO.N,Net-(D15-Pad1)*%
%TA.AperFunction,SMDPad,CuDef*%
G36*
G01*
X57740000Y-75185000D02*
X57740000Y-74815000D01*
G75*
G02*
X57875000Y-74680000I135000J0D01*
G01*
X58145000Y-74680000D01*
G75*
G02*
X58280000Y-74815000I0J-135000D01*
G01*
X58280000Y-75185000D01*
G75*
G02*
X58145000Y-75320000I-135000J0D01*
G01*
X57875000Y-75320000D01*
G75*
G02*
X57740000Y-75185000I0J135000D01*
G01*
G37*
%TD.AperFunction*%
%TO.P,R15,1*%
%TO.N,Net-(R15-Pad1)*%
%TA.AperFunction,SMDPad,CuDef*%
G36*
G01*
X56720000Y-75185000D02*
X56720000Y-74815000D01*
G75*
G02*
X56855000Y-74680000I135000J0D01*
G01*
X57125000Y-74680000D01*
G75*
G02*
X57260000Y-74815000I0J-135000D01*
G01*
X57260000Y-75185000D01*
G75*
G02*
X57125000Y-75320000I-135000J0D01*
G01*
X56855000Y-75320000D01*
G75*
G02*
X56720000Y-75185000I0J135000D01*
G01*
G37*
%TD.AperFunction*%
%TD*%
%TO.P,R14,2*%
%TO.N,Net-(D14-Pad1)*%
%TA.AperFunction,SMDPad,CuDef*%
G36*
G01*
X57740000Y-76185000D02*
X57740000Y-75815000D01*
G75*
G02*
X57875000Y-75680000I135000J0D01*
G01*
X58145000Y-75680000D01*
G75*
G02*
X58280000Y-75815000I0J-135000D01*
G01*
X58280000Y-76185000D01*
G75*
G02*
X58145000Y-76320000I-135000J0D01*
G01*
X57875000Y-76320000D01*
G75*
G02*
X57740000Y-76185000I0J135000D01*
G01*
G37*
%TD.AperFunction*%
%TO.P,R14,1*%
%TO.N,Net-(R14-Pad1)*%
%TA.AperFunction,SMDPad,CuDef*%
G36*
G01*
X56720000Y-76185000D02*
X56720000Y-75815000D01*
G75*
G02*
X56855000Y-75680000I135000J0D01*
G01*
X57125000Y-75680000D01*
G75*
G02*
X57260000Y-75815000I0J-135000D01*
G01*
X57260000Y-76185000D01*
G75*
G02*
X57125000Y-76320000I-135000J0D01*
G01*
X56855000Y-76320000D01*
G75*
G02*
X56720000Y-76185000I0J135000D01*
G01*
G37*
%TD.AperFunction*%
%TD*%
%TO.P,R13,2*%
%TO.N,Net-(D13-Pad1)*%
%TA.AperFunction,SMDPad,CuDef*%
G36*
G01*
X57740000Y-77185000D02*
X57740000Y-76815000D01*
G75*
G02*
X57875000Y-76680000I135000J0D01*
G01*
X58145000Y-76680000D01*
G75*
G02*
X58280000Y-76815000I0J-135000D01*
G01*
X58280000Y-77185000D01*
G75*
G02*
X58145000Y-77320000I-135000J0D01*
G01*
X57875000Y-77320000D01*
G75*
G02*
X57740000Y-77185000I0J135000D01*
G01*
G37*
%TD.AperFunction*%
%TO.P,R13,1*%
%TO.N,Net-(R13-Pad1)*%
%TA.AperFunction,SMDPad,CuDef*%
G36*
G01*
X56720000Y-77185000D02*
X56720000Y-76815000D01*
G75*
G02*
X56855000Y-76680000I135000J0D01*
G01*
X57125000Y-76680000D01*
G75*
G02*
X57260000Y-76815000I0J-135000D01*
G01*
X57260000Y-77185000D01*
G75*
G02*
X57125000Y-77320000I-135000J0D01*
G01*
X56855000Y-77320000D01*
G75*
G02*
X56720000Y-77185000I0J135000D01*
G01*
G37*
%TD.AperFunction*%
%TD*%
%TO.P,R12,2*%
%TO.N,Net-(D12-Pad1)*%
%TA.AperFunction,SMDPad,CuDef*%
G36*
G01*
X57740000Y-78185000D02*
X57740000Y-77815000D01*
G75*
G02*
X57875000Y-77680000I135000J0D01*
G01*
X58145000Y-77680000D01*
G75*
G02*
X58280000Y-77815000I0J-135000D01*
G01*
X58280000Y-78185000D01*
G75*
G02*
X58145000Y-78320000I-135000J0D01*
G01*
X57875000Y-78320000D01*
G75*
G02*
X57740000Y-78185000I0J135000D01*
G01*
G37*
%TD.AperFunction*%
%TO.P,R12,1*%
%TO.N,Net-(R12-Pad1)*%
%TA.AperFunction,SMDPad,CuDef*%
G36*
G01*
X56720000Y-78185000D02*
X56720000Y-77815000D01*
G75*
G02*
X56855000Y-77680000I135000J0D01*
G01*
X57125000Y-77680000D01*
G75*
G02*
X57260000Y-77815000I0J-135000D01*
G01*
X57260000Y-78185000D01*
G75*
G02*
X57125000Y-78320000I-135000J0D01*
G01*
X56855000Y-78320000D01*
G75*
G02*
X56720000Y-78185000I0J135000D01*
G01*
G37*
%TD.AperFunction*%
%TD*%
%TO.P,R11,2*%
%TO.N,Net-(D11-Pad1)*%
%TA.AperFunction,SMDPad,CuDef*%
G36*
G01*
X57740000Y-79185000D02*
X57740000Y-78815000D01*
G75*
G02*
X57875000Y-78680000I135000J0D01*
G01*
X58145000Y-78680000D01*
G75*
G02*
X58280000Y-78815000I0J-135000D01*
G01*
X58280000Y-79185000D01*
G75*
G02*
X58145000Y-79320000I-135000J0D01*
G01*
X57875000Y-79320000D01*
G75*
G02*
X57740000Y-79185000I0J135000D01*
G01*
G37*
%TD.AperFunction*%
%TO.P,R11,1*%
%TO.N,Net-(R11-Pad1)*%
%TA.AperFunction,SMDPad,CuDef*%
G36*
G01*
X56720000Y-79185000D02*
X56720000Y-78815000D01*
G75*
G02*
X56855000Y-78680000I135000J0D01*
G01*
X57125000Y-78680000D01*
G75*
G02*
X57260000Y-78815000I0J-135000D01*
G01*
X57260000Y-79185000D01*
G75*
G02*
X57125000Y-79320000I-135000J0D01*
G01*
X56855000Y-79320000D01*
G75*
G02*
X56720000Y-79185000I0J135000D01*
G01*
G37*
%TD.AperFunction*%
%TD*%
%TO.P,R10,2*%
%TO.N,Net-(D10-Pad1)*%
%TA.AperFunction,SMDPad,CuDef*%
G36*
G01*
X57740000Y-80185000D02*
X57740000Y-79815000D01*
G75*
G02*
X57875000Y-79680000I135000J0D01*
G01*
X58145000Y-79680000D01*
G75*
G02*
X58280000Y-79815000I0J-135000D01*
G01*
X58280000Y-80185000D01*
G75*
G02*
X58145000Y-80320000I-135000J0D01*
G01*
X57875000Y-80320000D01*
G75*
G02*
X57740000Y-80185000I0J135000D01*
G01*
G37*
%TD.AperFunction*%
%TO.P,R10,1*%
%TO.N,Net-(R10-Pad1)*%
%TA.AperFunction,SMDPad,CuDef*%
G36*
G01*
X56720000Y-80185000D02*
X56720000Y-79815000D01*
G75*
G02*
X56855000Y-79680000I135000J0D01*
G01*
X57125000Y-79680000D01*
G75*
G02*
X57260000Y-79815000I0J-135000D01*
G01*
X57260000Y-80185000D01*
G75*
G02*
X57125000Y-80320000I-135000J0D01*
G01*
X56855000Y-80320000D01*
G75*
G02*
X56720000Y-80185000I0J135000D01*
G01*
G37*
%TD.AperFunction*%
%TD*%
%TO.P,R9,2*%
%TO.N,Net-(D9-Pad1)*%
%TA.AperFunction,SMDPad,CuDef*%
G36*
G01*
X57740000Y-81185000D02*
X57740000Y-80815000D01*
G75*
G02*
X57875000Y-80680000I135000J0D01*
G01*
X58145000Y-80680000D01*
G75*
G02*
X58280000Y-80815000I0J-135000D01*
G01*
X58280000Y-81185000D01*
G75*
G02*
X58145000Y-81320000I-135000J0D01*
G01*
X57875000Y-81320000D01*
G75*
G02*
X57740000Y-81185000I0J135000D01*
G01*
G37*
%TD.AperFunction*%
%TO.P,R9,1*%
%TO.N,Net-(R9-Pad1)*%
%TA.AperFunction,SMDPad,CuDef*%
G36*
G01*
X56720000Y-81185000D02*
X56720000Y-80815000D01*
G75*
G02*
X56855000Y-80680000I135000J0D01*
G01*
X57125000Y-80680000D01*
G75*
G02*
X57260000Y-80815000I0J-135000D01*
G01*
X57260000Y-81185000D01*
G75*
G02*
X57125000Y-81320000I-135000J0D01*
G01*
X56855000Y-81320000D01*
G75*
G02*
X56720000Y-81185000I0J135000D01*
G01*
G37*
%TD.AperFunction*%
%TD*%
%TO.P,R8,2*%
%TO.N,Net-(D8-Pad1)*%
%TA.AperFunction,SMDPad,CuDef*%
G36*
G01*
X57740000Y-82185000D02*
X57740000Y-81815000D01*
G75*
G02*
X57875000Y-81680000I135000J0D01*
G01*
X58145000Y-81680000D01*
G75*
G02*
X58280000Y-81815000I0J-135000D01*
G01*
X58280000Y-82185000D01*
G75*
G02*
X58145000Y-82320000I-135000J0D01*
G01*
X57875000Y-82320000D01*
G75*
G02*
X57740000Y-82185000I0J135000D01*
G01*
G37*
%TD.AperFunction*%
%TO.P,R8,1*%
%TO.N,Net-(R8-Pad1)*%
%TA.AperFunction,SMDPad,CuDef*%
G36*
G01*
X56720000Y-82185000D02*
X56720000Y-81815000D01*
G75*
G02*
X56855000Y-81680000I135000J0D01*
G01*
X57125000Y-81680000D01*
G75*
G02*
X57260000Y-81815000I0J-135000D01*
G01*
X57260000Y-82185000D01*
G75*
G02*
X57125000Y-82320000I-135000J0D01*
G01*
X56855000Y-82320000D01*
G75*
G02*
X56720000Y-82185000I0J135000D01*
G01*
G37*
%TD.AperFunction*%
%TD*%
%TO.P,R7,2*%
%TO.N,Net-(D7-Pad1)*%
%TA.AperFunction,SMDPad,CuDef*%
G36*
G01*
X42260000Y-81815000D02*
X42260000Y-82185000D01*
G75*
G02*
X42125000Y-82320000I-135000J0D01*
G01*
X41855000Y-82320000D01*
G75*
G02*
X41720000Y-82185000I0J135000D01*
G01*
X41720000Y-81815000D01*
G75*
G02*
X41855000Y-81680000I135000J0D01*
G01*
X42125000Y-81680000D01*
G75*
G02*
X42260000Y-81815000I0J-135000D01*
G01*
G37*
%TD.AperFunction*%
%TO.P,R7,1*%
%TO.N,Net-(R7-Pad1)*%
%TA.AperFunction,SMDPad,CuDef*%
G36*
G01*
X43280000Y-81815000D02*
X43280000Y-82185000D01*
G75*
G02*
X43145000Y-82320000I-135000J0D01*
G01*
X42875000Y-82320000D01*
G75*
G02*
X42740000Y-82185000I0J135000D01*
G01*
X42740000Y-81815000D01*
G75*
G02*
X42875000Y-81680000I135000J0D01*
G01*
X43145000Y-81680000D01*
G75*
G02*
X43280000Y-81815000I0J-135000D01*
G01*
G37*
%TD.AperFunction*%
%TD*%
%TO.P,R6,2*%
%TO.N,Net-(D6-Pad1)*%
%TA.AperFunction,SMDPad,CuDef*%
G36*
G01*
X42260000Y-80815000D02*
X42260000Y-81185000D01*
G75*
G02*
X42125000Y-81320000I-135000J0D01*
G01*
X41855000Y-81320000D01*
G75*
G02*
X41720000Y-81185000I0J135000D01*
G01*
X41720000Y-80815000D01*
G75*
G02*
X41855000Y-80680000I135000J0D01*
G01*
X42125000Y-80680000D01*
G75*
G02*
X42260000Y-80815000I0J-135000D01*
G01*
G37*
%TD.AperFunction*%
%TO.P,R6,1*%
%TO.N,Net-(R6-Pad1)*%
%TA.AperFunction,SMDPad,CuDef*%
G36*
G01*
X43280000Y-80815000D02*
X43280000Y-81185000D01*
G75*
G02*
X43145000Y-81320000I-135000J0D01*
G01*
X42875000Y-81320000D01*
G75*
G02*
X42740000Y-81185000I0J135000D01*
G01*
X42740000Y-80815000D01*
G75*
G02*
X42875000Y-80680000I135000J0D01*
G01*
X43145000Y-80680000D01*
G75*
G02*
X43280000Y-80815000I0J-135000D01*
G01*
G37*
%TD.AperFunction*%
%TD*%
%TO.P,R5,2*%
%TO.N,Net-(D5-Pad1)*%
%TA.AperFunction,SMDPad,CuDef*%
G36*
G01*
X42260000Y-79815000D02*
X42260000Y-80185000D01*
G75*
G02*
X42125000Y-80320000I-135000J0D01*
G01*
X41855000Y-80320000D01*
G75*
G02*
X41720000Y-80185000I0J135000D01*
G01*
X41720000Y-79815000D01*
G75*
G02*
X41855000Y-79680000I135000J0D01*
G01*
X42125000Y-79680000D01*
G75*
G02*
X42260000Y-79815000I0J-135000D01*
G01*
G37*
%TD.AperFunction*%
%TO.P,R5,1*%
%TO.N,Net-(R5-Pad1)*%
%TA.AperFunction,SMDPad,CuDef*%
G36*
G01*
X43280000Y-79815000D02*
X43280000Y-80185000D01*
G75*
G02*
X43145000Y-80320000I-135000J0D01*
G01*
X42875000Y-80320000D01*
G75*
G02*
X42740000Y-80185000I0J135000D01*
G01*
X42740000Y-79815000D01*
G75*
G02*
X42875000Y-79680000I135000J0D01*
G01*
X43145000Y-79680000D01*
G75*
G02*
X43280000Y-79815000I0J-135000D01*
G01*
G37*
%TD.AperFunction*%
%TD*%
%TO.P,R4,2*%
%TO.N,Net-(D4-Pad1)*%
%TA.AperFunction,SMDPad,CuDef*%
G36*
G01*
X42260000Y-78815000D02*
X42260000Y-79185000D01*
G75*
G02*
X42125000Y-79320000I-135000J0D01*
G01*
X41855000Y-79320000D01*
G75*
G02*
X41720000Y-79185000I0J135000D01*
G01*
X41720000Y-78815000D01*
G75*
G02*
X41855000Y-78680000I135000J0D01*
G01*
X42125000Y-78680000D01*
G75*
G02*
X42260000Y-78815000I0J-135000D01*
G01*
G37*
%TD.AperFunction*%
%TO.P,R4,1*%
%TO.N,Net-(R4-Pad1)*%
%TA.AperFunction,SMDPad,CuDef*%
G36*
G01*
X43280000Y-78815000D02*
X43280000Y-79185000D01*
G75*
G02*
X43145000Y-79320000I-135000J0D01*
G01*
X42875000Y-79320000D01*
G75*
G02*
X42740000Y-79185000I0J135000D01*
G01*
X42740000Y-78815000D01*
G75*
G02*
X42875000Y-78680000I135000J0D01*
G01*
X43145000Y-78680000D01*
G75*
G02*
X43280000Y-78815000I0J-135000D01*
G01*
G37*
%TD.AperFunction*%
%TD*%
%TO.P,R0,2*%
%TO.N,Net-(D0-Pad1)*%
%TA.AperFunction,SMDPad,CuDef*%
G36*
G01*
X42260000Y-74815000D02*
X42260000Y-75185000D01*
G75*
G02*
X42125000Y-75320000I-135000J0D01*
G01*
X41855000Y-75320000D01*
G75*
G02*
X41720000Y-75185000I0J135000D01*
G01*
X41720000Y-74815000D01*
G75*
G02*
X41855000Y-74680000I135000J0D01*
G01*
X42125000Y-74680000D01*
G75*
G02*
X42260000Y-74815000I0J-135000D01*
G01*
G37*
%TD.AperFunction*%
%TO.P,R0,1*%
%TO.N,Net-(R0-Pad1)*%
%TA.AperFunction,SMDPad,CuDef*%
G36*
G01*
X43280000Y-74815000D02*
X43280000Y-75185000D01*
G75*
G02*
X43145000Y-75320000I-135000J0D01*
G01*
X42875000Y-75320000D01*
G75*
G02*
X42740000Y-75185000I0J135000D01*
G01*
X42740000Y-74815000D01*
G75*
G02*
X42875000Y-74680000I135000J0D01*
G01*
X43145000Y-74680000D01*
G75*
G02*
X43280000Y-74815000I0J-135000D01*
G01*
G37*
%TD.AperFunction*%
%TD*%
%TO.P,R1,2*%
%TO.N,Net-(D1-Pad1)*%
%TA.AperFunction,SMDPad,CuDef*%
G36*
G01*
X42260000Y-75815000D02*
X42260000Y-76185000D01*
G75*
G02*
X42125000Y-76320000I-135000J0D01*
G01*
X41855000Y-76320000D01*
G75*
G02*
X41720000Y-76185000I0J135000D01*
G01*
X41720000Y-75815000D01*
G75*
G02*
X41855000Y-75680000I135000J0D01*
G01*
X42125000Y-75680000D01*
G75*
G02*
X42260000Y-75815000I0J-135000D01*
G01*
G37*
%TD.AperFunction*%
%TO.P,R1,1*%
%TO.N,Net-(R1-Pad1)*%
%TA.AperFunction,SMDPad,CuDef*%
G36*
G01*
X43280000Y-75815000D02*
X43280000Y-76185000D01*
G75*
G02*
X43145000Y-76320000I-135000J0D01*
G01*
X42875000Y-76320000D01*
G75*
G02*
X42740000Y-76185000I0J135000D01*
G01*
X42740000Y-75815000D01*
G75*
G02*
X42875000Y-75680000I135000J0D01*
G01*
X43145000Y-75680000D01*
G75*
G02*
X43280000Y-75815000I0J-135000D01*
G01*
G37*
%TD.AperFunction*%
%TD*%
%TO.P,R3,2*%
%TO.N,Net-(D3-Pad1)*%
%TA.AperFunction,SMDPad,CuDef*%
G36*
G01*
X42260000Y-77815000D02*
X42260000Y-78185000D01*
G75*
G02*
X42125000Y-78320000I-135000J0D01*
G01*
X41855000Y-78320000D01*
G75*
G02*
X41720000Y-78185000I0J135000D01*
G01*
X41720000Y-77815000D01*
G75*
G02*
X41855000Y-77680000I135000J0D01*
G01*
X42125000Y-77680000D01*
G75*
G02*
X42260000Y-77815000I0J-135000D01*
G01*
G37*
%TD.AperFunction*%
%TO.P,R3,1*%
%TO.N,Net-(R3-Pad1)*%
%TA.AperFunction,SMDPad,CuDef*%
G36*
G01*
X43280000Y-77815000D02*
X43280000Y-78185000D01*
G75*
G02*
X43145000Y-78320000I-135000J0D01*
G01*
X42875000Y-78320000D01*
G75*
G02*
X42740000Y-78185000I0J135000D01*
G01*
X42740000Y-77815000D01*
G75*
G02*
X42875000Y-77680000I135000J0D01*
G01*
X43145000Y-77680000D01*
G75*
G02*
X43280000Y-77815000I0J-135000D01*
G01*
G37*
%TD.AperFunction*%
%TD*%
%TO.P,R2,2*%
%TO.N,Net-(D2-Pad1)*%
%TA.AperFunction,SMDPad,CuDef*%
G36*
G01*
X42260000Y-76815000D02*
X42260000Y-77185000D01*
G75*
G02*
X42125000Y-77320000I-135000J0D01*
G01*
X41855000Y-77320000D01*
G75*
G02*
X41720000Y-77185000I0J135000D01*
G01*
X41720000Y-76815000D01*
G75*
G02*
X41855000Y-76680000I135000J0D01*
G01*
X42125000Y-76680000D01*
G75*
G02*
X42260000Y-76815000I0J-135000D01*
G01*
G37*
%TD.AperFunction*%
%TO.P,R2,1*%
%TO.N,Net-(R2-Pad1)*%
%TA.AperFunction,SMDPad,CuDef*%
G36*
G01*
X43280000Y-76815000D02*
X43280000Y-77185000D01*
G75*
G02*
X43145000Y-77320000I-135000J0D01*
G01*
X42875000Y-77320000D01*
G75*
G02*
X42740000Y-77185000I0J135000D01*
G01*
X42740000Y-76815000D01*
G75*
G02*
X42875000Y-76680000I135000J0D01*
G01*
X43145000Y-76680000D01*
G75*
G02*
X43280000Y-76815000I0J-135000D01*
G01*
G37*
%TD.AperFunction*%
%TD*%
%TO.P,R23,2*%
%TO.N,I2C_SDA*%
%TA.AperFunction,SMDPad,CuDef*%
G36*
G01*
X57260000Y-65815000D02*
X57260000Y-66185000D01*
G75*
G02*
X57125000Y-66320000I-135000J0D01*
G01*
X56855000Y-66320000D01*
G75*
G02*
X56720000Y-66185000I0J135000D01*
G01*
X56720000Y-65815000D01*
G75*
G02*
X56855000Y-65680000I135000J0D01*
G01*
X57125000Y-65680000D01*
G75*
G02*
X57260000Y-65815000I0J-135000D01*
G01*
G37*
%TD.AperFunction*%
%TO.P,R23,1*%
%TO.N,+3V0*%
%TA.AperFunction,SMDPad,CuDef*%
G36*
G01*
X58280000Y-65815000D02*
X58280000Y-66185000D01*
G75*
G02*
X58145000Y-66320000I-135000J0D01*
G01*
X57875000Y-66320000D01*
G75*
G02*
X57740000Y-66185000I0J135000D01*
G01*
X57740000Y-65815000D01*
G75*
G02*
X57875000Y-65680000I135000J0D01*
G01*
X58145000Y-65680000D01*
G75*
G02*
X58280000Y-65815000I0J-135000D01*
G01*
G37*
%TD.AperFunction*%
%TD*%
%TO.P,R22,2*%
%TO.N,+3V0*%
%TA.AperFunction,SMDPad,CuDef*%
G36*
G01*
X57740000Y-67185000D02*
X57740000Y-66815000D01*
G75*
G02*
X57875000Y-66680000I135000J0D01*
G01*
X58145000Y-66680000D01*
G75*
G02*
X58280000Y-66815000I0J-135000D01*
G01*
X58280000Y-67185000D01*
G75*
G02*
X58145000Y-67320000I-135000J0D01*
G01*
X57875000Y-67320000D01*
G75*
G02*
X57740000Y-67185000I0J135000D01*
G01*
G37*
%TD.AperFunction*%
%TO.P,R22,1*%
%TO.N,I2C_SCL*%
%TA.AperFunction,SMDPad,CuDef*%
G36*
G01*
X56720000Y-67185000D02*
X56720000Y-66815000D01*
G75*
G02*
X56855000Y-66680000I135000J0D01*
G01*
X57125000Y-66680000D01*
G75*
G02*
X57260000Y-66815000I0J-135000D01*
G01*
X57260000Y-67185000D01*
G75*
G02*
X57125000Y-67320000I-135000J0D01*
G01*
X56855000Y-67320000D01*
G75*
G02*
X56720000Y-67185000I0J135000D01*
G01*
G37*
%TD.AperFunction*%
%TD*%
%TO.P,R21,2*%
%TO.N,Net-(R21-Pad2)*%
%TA.AperFunction,SMDPad,CuDef*%
G36*
G01*
X42740000Y-65360000D02*
X42740000Y-64990000D01*
G75*
G02*
X42875000Y-64855000I135000J0D01*
G01*
X43145000Y-64855000D01*
G75*
G02*
X43280000Y-64990000I0J-135000D01*
G01*
X43280000Y-65360000D01*
G75*
G02*
X43145000Y-65495000I-135000J0D01*
G01*
X42875000Y-65495000D01*
G75*
G02*
X42740000Y-65360000I0J135000D01*
G01*
G37*
%TD.AperFunction*%
%TO.P,R21,1*%
%TO.N,GND*%
%TA.AperFunction,SMDPad,CuDef*%
G36*
G01*
X41720000Y-65360000D02*
X41720000Y-64990000D01*
G75*
G02*
X41855000Y-64855000I135000J0D01*
G01*
X42125000Y-64855000D01*
G75*
G02*
X42260000Y-64990000I0J-135000D01*
G01*
X42260000Y-65360000D01*
G75*
G02*
X42125000Y-65495000I-135000J0D01*
G01*
X41855000Y-65495000D01*
G75*
G02*
X41720000Y-65360000I0J135000D01*
G01*
G37*
%TD.AperFunction*%
%TD*%
%TO.P,D15,2*%
%TO.N,+3V0*%
%TA.AperFunction,SMDPad,CuDef*%
G36*
G01*
X55256250Y-61650000D02*
X54743750Y-61650000D01*
G75*
G02*
X54525000Y-61431250I0J218750D01*
G01*
X54525000Y-60993750D01*
G75*
G02*
X54743750Y-60775000I218750J0D01*
G01*
X55256250Y-60775000D01*
G75*
G02*
X55475000Y-60993750I0J-218750D01*
G01*
X55475000Y-61431250D01*
G75*
G02*
X55256250Y-61650000I-218750J0D01*
G01*
G37*
%TD.AperFunction*%
%TO.P,D15,1*%
%TO.N,Net-(D15-Pad1)*%
%TA.AperFunction,SMDPad,CuDef*%
G36*
G01*
X55256250Y-63225000D02*
X54743750Y-63225000D01*
G75*
G02*
X54525000Y-63006250I0J218750D01*
G01*
X54525000Y-62568750D01*
G75*
G02*
X54743750Y-62350000I218750J0D01*
G01*
X55256250Y-62350000D01*
G75*
G02*
X55475000Y-62568750I0J-218750D01*
G01*
X55475000Y-63006250D01*
G75*
G02*
X55256250Y-63225000I-218750J0D01*
G01*
G37*
%TD.AperFunction*%
%TD*%
%TO.P,D14,2*%
%TO.N,+3V0*%
%TA.AperFunction,SMDPad,CuDef*%
G36*
G01*
X60256250Y-59650000D02*
X59743750Y-59650000D01*
G75*
G02*
X59525000Y-59431250I0J218750D01*
G01*
X59525000Y-58993750D01*
G75*
G02*
X59743750Y-58775000I218750J0D01*
G01*
X60256250Y-58775000D01*
G75*
G02*
X60475000Y-58993750I0J-218750D01*
G01*
X60475000Y-59431250D01*
G75*
G02*
X60256250Y-59650000I-218750J0D01*
G01*
G37*
%TD.AperFunction*%
%TO.P,D14,1*%
%TO.N,Net-(D14-Pad1)*%
%TA.AperFunction,SMDPad,CuDef*%
G36*
G01*
X60256250Y-61225000D02*
X59743750Y-61225000D01*
G75*
G02*
X59525000Y-61006250I0J218750D01*
G01*
X59525000Y-60568750D01*
G75*
G02*
X59743750Y-60350000I218750J0D01*
G01*
X60256250Y-60350000D01*
G75*
G02*
X60475000Y-60568750I0J-218750D01*
G01*
X60475000Y-61006250D01*
G75*
G02*
X60256250Y-61225000I-218750J0D01*
G01*
G37*
%TD.AperFunction*%
%TD*%
%TO.P,D13,2*%
%TO.N,+3V0*%
%TA.AperFunction,SMDPad,CuDef*%
G36*
G01*
X65256250Y-59650000D02*
X64743750Y-59650000D01*
G75*
G02*
X64525000Y-59431250I0J218750D01*
G01*
X64525000Y-58993750D01*
G75*
G02*
X64743750Y-58775000I218750J0D01*
G01*
X65256250Y-58775000D01*
G75*
G02*
X65475000Y-58993750I0J-218750D01*
G01*
X65475000Y-59431250D01*
G75*
G02*
X65256250Y-59650000I-218750J0D01*
G01*
G37*
%TD.AperFunction*%
%TO.P,D13,1*%
%TO.N,Net-(D13-Pad1)*%
%TA.AperFunction,SMDPad,CuDef*%
G36*
G01*
X65256250Y-61225000D02*
X64743750Y-61225000D01*
G75*
G02*
X64525000Y-61006250I0J218750D01*
G01*
X64525000Y-60568750D01*
G75*
G02*
X64743750Y-60350000I218750J0D01*
G01*
X65256250Y-60350000D01*
G75*
G02*
X65475000Y-60568750I0J-218750D01*
G01*
X65475000Y-61006250D01*
G75*
G02*
X65256250Y-61225000I-218750J0D01*
G01*
G37*
%TD.AperFunction*%
%TD*%
%TO.P,D12,2*%
%TO.N,+3V0*%
%TA.AperFunction,SMDPad,CuDef*%
G36*
G01*
X70256250Y-64650000D02*
X69743750Y-64650000D01*
G75*
G02*
X69525000Y-64431250I0J218750D01*
G01*
X69525000Y-63993750D01*
G75*
G02*
X69743750Y-63775000I218750J0D01*
G01*
X70256250Y-63775000D01*
G75*
G02*
X70475000Y-63993750I0J-218750D01*
G01*
X70475000Y-64431250D01*
G75*
G02*
X70256250Y-64650000I-218750J0D01*
G01*
G37*
%TD.AperFunction*%
%TO.P,D12,1*%
%TO.N,Net-(D12-Pad1)*%
%TA.AperFunction,SMDPad,CuDef*%
G36*
G01*
X70256250Y-66225000D02*
X69743750Y-66225000D01*
G75*
G02*
X69525000Y-66006250I0J218750D01*
G01*
X69525000Y-65568750D01*
G75*
G02*
X69743750Y-65350000I218750J0D01*
G01*
X70256250Y-65350000D01*
G75*
G02*
X70475000Y-65568750I0J-218750D01*
G01*
X70475000Y-66006250D01*
G75*
G02*
X70256250Y-66225000I-218750J0D01*
G01*
G37*
%TD.AperFunction*%
%TD*%
%TO.P,D11,2*%
%TO.N,+3V0*%
%TA.AperFunction,SMDPad,CuDef*%
G36*
G01*
X70256250Y-73150000D02*
X69743750Y-73150000D01*
G75*
G02*
X69525000Y-72931250I0J218750D01*
G01*
X69525000Y-72493750D01*
G75*
G02*
X69743750Y-72275000I218750J0D01*
G01*
X70256250Y-72275000D01*
G75*
G02*
X70475000Y-72493750I0J-218750D01*
G01*
X70475000Y-72931250D01*
G75*
G02*
X70256250Y-73150000I-218750J0D01*
G01*
G37*
%TD.AperFunction*%
%TO.P,D11,1*%
%TO.N,Net-(D11-Pad1)*%
%TA.AperFunction,SMDPad,CuDef*%
G36*
G01*
X70256250Y-74725000D02*
X69743750Y-74725000D01*
G75*
G02*
X69525000Y-74506250I0J218750D01*
G01*
X69525000Y-74068750D01*
G75*
G02*
X69743750Y-73850000I218750J0D01*
G01*
X70256250Y-73850000D01*
G75*
G02*
X70475000Y-74068750I0J-218750D01*
G01*
X70475000Y-74506250D01*
G75*
G02*
X70256250Y-74725000I-218750J0D01*
G01*
G37*
%TD.AperFunction*%
%TD*%
%TO.P,D10,2*%
%TO.N,+3V0*%
%TA.AperFunction,SMDPad,CuDef*%
G36*
G01*
X67756250Y-82150000D02*
X67243750Y-82150000D01*
G75*
G02*
X67025000Y-81931250I0J218750D01*
G01*
X67025000Y-81493750D01*
G75*
G02*
X67243750Y-81275000I218750J0D01*
G01*
X67756250Y-81275000D01*
G75*
G02*
X67975000Y-81493750I0J-218750D01*
G01*
X67975000Y-81931250D01*
G75*
G02*
X67756250Y-82150000I-218750J0D01*
G01*
G37*
%TD.AperFunction*%
%TO.P,D10,1*%
%TO.N,Net-(D10-Pad1)*%
%TA.AperFunction,SMDPad,CuDef*%
G36*
G01*
X67756250Y-83725000D02*
X67243750Y-83725000D01*
G75*
G02*
X67025000Y-83506250I0J218750D01*
G01*
X67025000Y-83068750D01*
G75*
G02*
X67243750Y-82850000I218750J0D01*
G01*
X67756250Y-82850000D01*
G75*
G02*
X67975000Y-83068750I0J-218750D01*
G01*
X67975000Y-83506250D01*
G75*
G02*
X67756250Y-83725000I-218750J0D01*
G01*
G37*
%TD.AperFunction*%
%TD*%
%TO.P,D9,2*%
%TO.N,+3V0*%
%TA.AperFunction,SMDPad,CuDef*%
G36*
G01*
X62756250Y-87150000D02*
X62243750Y-87150000D01*
G75*
G02*
X62025000Y-86931250I0J218750D01*
G01*
X62025000Y-86493750D01*
G75*
G02*
X62243750Y-86275000I218750J0D01*
G01*
X62756250Y-86275000D01*
G75*
G02*
X62975000Y-86493750I0J-218750D01*
G01*
X62975000Y-86931250D01*
G75*
G02*
X62756250Y-87150000I-218750J0D01*
G01*
G37*
%TD.AperFunction*%
%TO.P,D9,1*%
%TO.N,Net-(D9-Pad1)*%
%TA.AperFunction,SMDPad,CuDef*%
G36*
G01*
X62756250Y-88725000D02*
X62243750Y-88725000D01*
G75*
G02*
X62025000Y-88506250I0J218750D01*
G01*
X62025000Y-88068750D01*
G75*
G02*
X62243750Y-87850000I218750J0D01*
G01*
X62756250Y-87850000D01*
G75*
G02*
X62975000Y-88068750I0J-218750D01*
G01*
X62975000Y-88506250D01*
G75*
G02*
X62756250Y-88725000I-218750J0D01*
G01*
G37*
%TD.AperFunction*%
%TD*%
%TO.P,D8,2*%
%TO.N,+3V0*%
%TA.AperFunction,SMDPad,CuDef*%
G36*
G01*
X57756250Y-92150000D02*
X57243750Y-92150000D01*
G75*
G02*
X57025000Y-91931250I0J218750D01*
G01*
X57025000Y-91493750D01*
G75*
G02*
X57243750Y-91275000I218750J0D01*
G01*
X57756250Y-91275000D01*
G75*
G02*
X57975000Y-91493750I0J-218750D01*
G01*
X57975000Y-91931250D01*
G75*
G02*
X57756250Y-92150000I-218750J0D01*
G01*
G37*
%TD.AperFunction*%
%TO.P,D8,1*%
%TO.N,Net-(D8-Pad1)*%
%TA.AperFunction,SMDPad,CuDef*%
G36*
G01*
X57756250Y-93725000D02*
X57243750Y-93725000D01*
G75*
G02*
X57025000Y-93506250I0J218750D01*
G01*
X57025000Y-93068750D01*
G75*
G02*
X57243750Y-92850000I218750J0D01*
G01*
X57756250Y-92850000D01*
G75*
G02*
X57975000Y-93068750I0J-218750D01*
G01*
X57975000Y-93506250D01*
G75*
G02*
X57756250Y-93725000I-218750J0D01*
G01*
G37*
%TD.AperFunction*%
%TD*%
%TO.P,D6,2*%
%TO.N,+3V0*%
%TA.AperFunction,SMDPad,CuDef*%
G36*
G01*
X37756250Y-87150000D02*
X37243750Y-87150000D01*
G75*
G02*
X37025000Y-86931250I0J218750D01*
G01*
X37025000Y-86493750D01*
G75*
G02*
X37243750Y-86275000I218750J0D01*
G01*
X37756250Y-86275000D01*
G75*
G02*
X37975000Y-86493750I0J-218750D01*
G01*
X37975000Y-86931250D01*
G75*
G02*
X37756250Y-87150000I-218750J0D01*
G01*
G37*
%TD.AperFunction*%
%TO.P,D6,1*%
%TO.N,Net-(D6-Pad1)*%
%TA.AperFunction,SMDPad,CuDef*%
G36*
G01*
X37756250Y-88725000D02*
X37243750Y-88725000D01*
G75*
G02*
X37025000Y-88506250I0J218750D01*
G01*
X37025000Y-88068750D01*
G75*
G02*
X37243750Y-87850000I218750J0D01*
G01*
X37756250Y-87850000D01*
G75*
G02*
X37975000Y-88068750I0J-218750D01*
G01*
X37975000Y-88506250D01*
G75*
G02*
X37756250Y-88725000I-218750J0D01*
G01*
G37*
%TD.AperFunction*%
%TD*%
%TO.P,D5,2*%
%TO.N,+3V0*%
%TA.AperFunction,SMDPad,CuDef*%
G36*
G01*
X32756250Y-82150000D02*
X32243750Y-82150000D01*
G75*
G02*
X32025000Y-81931250I0J218750D01*
G01*
X32025000Y-81493750D01*
G75*
G02*
X32243750Y-81275000I218750J0D01*
G01*
X32756250Y-81275000D01*
G75*
G02*
X32975000Y-81493750I0J-218750D01*
G01*
X32975000Y-81931250D01*
G75*
G02*
X32756250Y-82150000I-218750J0D01*
G01*
G37*
%TD.AperFunction*%
%TO.P,D5,1*%
%TO.N,Net-(D5-Pad1)*%
%TA.AperFunction,SMDPad,CuDef*%
G36*
G01*
X32756250Y-83725000D02*
X32243750Y-83725000D01*
G75*
G02*
X32025000Y-83506250I0J218750D01*
G01*
X32025000Y-83068750D01*
G75*
G02*
X32243750Y-82850000I218750J0D01*
G01*
X32756250Y-82850000D01*
G75*
G02*
X32975000Y-83068750I0J-218750D01*
G01*
X32975000Y-83506250D01*
G75*
G02*
X32756250Y-83725000I-218750J0D01*
G01*
G37*
%TD.AperFunction*%
%TD*%
%TO.P,D3,2*%
%TO.N,+3V0*%
%TA.AperFunction,SMDPad,CuDef*%
G36*
G01*
X30256250Y-64650000D02*
X29743750Y-64650000D01*
G75*
G02*
X29525000Y-64431250I0J218750D01*
G01*
X29525000Y-63993750D01*
G75*
G02*
X29743750Y-63775000I218750J0D01*
G01*
X30256250Y-63775000D01*
G75*
G02*
X30475000Y-63993750I0J-218750D01*
G01*
X30475000Y-64431250D01*
G75*
G02*
X30256250Y-64650000I-218750J0D01*
G01*
G37*
%TD.AperFunction*%
%TO.P,D3,1*%
%TO.N,Net-(D3-Pad1)*%
%TA.AperFunction,SMDPad,CuDef*%
G36*
G01*
X30256250Y-66225000D02*
X29743750Y-66225000D01*
G75*
G02*
X29525000Y-66006250I0J218750D01*
G01*
X29525000Y-65568750D01*
G75*
G02*
X29743750Y-65350000I218750J0D01*
G01*
X30256250Y-65350000D01*
G75*
G02*
X30475000Y-65568750I0J-218750D01*
G01*
X30475000Y-66006250D01*
G75*
G02*
X30256250Y-66225000I-218750J0D01*
G01*
G37*
%TD.AperFunction*%
%TD*%
%TO.P,D2,2*%
%TO.N,+3V0*%
%TA.AperFunction,SMDPad,CuDef*%
G36*
G01*
X35256250Y-59650000D02*
X34743750Y-59650000D01*
G75*
G02*
X34525000Y-59431250I0J218750D01*
G01*
X34525000Y-58993750D01*
G75*
G02*
X34743750Y-58775000I218750J0D01*
G01*
X35256250Y-58775000D01*
G75*
G02*
X35475000Y-58993750I0J-218750D01*
G01*
X35475000Y-59431250D01*
G75*
G02*
X35256250Y-59650000I-218750J0D01*
G01*
G37*
%TD.AperFunction*%
%TO.P,D2,1*%
%TO.N,Net-(D2-Pad1)*%
%TA.AperFunction,SMDPad,CuDef*%
G36*
G01*
X35256250Y-61225000D02*
X34743750Y-61225000D01*
G75*
G02*
X34525000Y-61006250I0J218750D01*
G01*
X34525000Y-60568750D01*
G75*
G02*
X34743750Y-60350000I218750J0D01*
G01*
X35256250Y-60350000D01*
G75*
G02*
X35475000Y-60568750I0J-218750D01*
G01*
X35475000Y-61006250D01*
G75*
G02*
X35256250Y-61225000I-218750J0D01*
G01*
G37*
%TD.AperFunction*%
%TD*%
%TO.P,D1,2*%
%TO.N,+3V0*%
%TA.AperFunction,SMDPad,CuDef*%
G36*
G01*
X40256250Y-59650000D02*
X39743750Y-59650000D01*
G75*
G02*
X39525000Y-59431250I0J218750D01*
G01*
X39525000Y-58993750D01*
G75*
G02*
X39743750Y-58775000I218750J0D01*
G01*
X40256250Y-58775000D01*
G75*
G02*
X40475000Y-58993750I0J-218750D01*
G01*
X40475000Y-59431250D01*
G75*
G02*
X40256250Y-59650000I-218750J0D01*
G01*
G37*
%TD.AperFunction*%
%TO.P,D1,1*%
%TO.N,Net-(D1-Pad1)*%
%TA.AperFunction,SMDPad,CuDef*%
G36*
G01*
X40256250Y-61225000D02*
X39743750Y-61225000D01*
G75*
G02*
X39525000Y-61006250I0J218750D01*
G01*
X39525000Y-60568750D01*
G75*
G02*
X39743750Y-60350000I218750J0D01*
G01*
X40256250Y-60350000D01*
G75*
G02*
X40475000Y-60568750I0J-218750D01*
G01*
X40475000Y-61006250D01*
G75*
G02*
X40256250Y-61225000I-218750J0D01*
G01*
G37*
%TD.AperFunction*%
%TD*%
%TO.P,D0,2*%
%TO.N,+3V0*%
%TA.AperFunction,SMDPad,CuDef*%
G36*
G01*
X45256250Y-61650000D02*
X44743750Y-61650000D01*
G75*
G02*
X44525000Y-61431250I0J218750D01*
G01*
X44525000Y-60993750D01*
G75*
G02*
X44743750Y-60775000I218750J0D01*
G01*
X45256250Y-60775000D01*
G75*
G02*
X45475000Y-60993750I0J-218750D01*
G01*
X45475000Y-61431250D01*
G75*
G02*
X45256250Y-61650000I-218750J0D01*
G01*
G37*
%TD.AperFunction*%
%TO.P,D0,1*%
%TO.N,Net-(D0-Pad1)*%
%TA.AperFunction,SMDPad,CuDef*%
G36*
G01*
X45256250Y-63225000D02*
X44743750Y-63225000D01*
G75*
G02*
X44525000Y-63006250I0J218750D01*
G01*
X44525000Y-62568750D01*
G75*
G02*
X44743750Y-62350000I218750J0D01*
G01*
X45256250Y-62350000D01*
G75*
G02*
X45475000Y-62568750I0J-218750D01*
G01*
X45475000Y-63006250D01*
G75*
G02*
X45256250Y-63225000I-218750J0D01*
G01*
G37*
%TD.AperFunction*%
%TD*%
%TO.P,C9,2*%
%TO.N,GND*%
%TA.AperFunction,SMDPad,CuDef*%
G36*
G01*
X45800000Y-85830000D02*
X45800000Y-86170000D01*
G75*
G02*
X45660000Y-86310000I-140000J0D01*
G01*
X45380000Y-86310000D01*
G75*
G02*
X45240000Y-86170000I0J140000D01*
G01*
X45240000Y-85830000D01*
G75*
G02*
X45380000Y-85690000I140000J0D01*
G01*
X45660000Y-85690000D01*
G75*
G02*
X45800000Y-85830000I0J-140000D01*
G01*
G37*
%TD.AperFunction*%
%TO.P,C9,1*%
%TO.N,+3V0*%
%TA.AperFunction,SMDPad,CuDef*%
G36*
G01*
X46760000Y-85830000D02*
X46760000Y-86170000D01*
G75*
G02*
X46620000Y-86310000I-140000J0D01*
G01*
X46340000Y-86310000D01*
G75*
G02*
X46200000Y-86170000I0J140000D01*
G01*
X46200000Y-85830000D01*
G75*
G02*
X46340000Y-85690000I140000J0D01*
G01*
X46620000Y-85690000D01*
G75*
G02*
X46760000Y-85830000I0J-140000D01*
G01*
G37*
%TD.AperFunction*%
%TD*%
%TO.P,C8,2*%
%TO.N,+3V0*%
%TA.AperFunction,SMDPad,CuDef*%
G36*
G01*
X46200000Y-85170000D02*
X46200000Y-84830000D01*
G75*
G02*
X46340000Y-84690000I140000J0D01*
G01*
X46620000Y-84690000D01*
G75*
G02*
X46760000Y-84830000I0J-140000D01*
G01*
X46760000Y-85170000D01*
G75*
G02*
X46620000Y-85310000I-140000J0D01*
G01*
X46340000Y-85310000D01*
G75*
G02*
X46200000Y-85170000I0J140000D01*
G01*
G37*
%TD.AperFunction*%
%TO.P,C8,1*%
%TO.N,GND*%
%TA.AperFunction,SMDPad,CuDef*%
G36*
G01*
X45240000Y-85170000D02*
X45240000Y-84830000D01*
G75*
G02*
X45380000Y-84690000I140000J0D01*
G01*
X45660000Y-84690000D01*
G75*
G02*
X45800000Y-84830000I0J-140000D01*
G01*
X45800000Y-85170000D01*
G75*
G02*
X45660000Y-85310000I-140000J0D01*
G01*
X45380000Y-85310000D01*
G75*
G02*
X45240000Y-85170000I0J140000D01*
G01*
G37*
%TD.AperFunction*%
%TD*%
%TO.P,C7,2*%
%TO.N,+3V0*%
%TA.AperFunction,SMDPad,CuDef*%
G36*
G01*
X57300000Y-72830000D02*
X57300000Y-73170000D01*
G75*
G02*
X57160000Y-73310000I-140000J0D01*
G01*
X56880000Y-73310000D01*
G75*
G02*
X56740000Y-73170000I0J140000D01*
G01*
X56740000Y-72830000D01*
G75*
G02*
X56880000Y-72690000I140000J0D01*
G01*
X57160000Y-72690000D01*
G75*
G02*
X57300000Y-72830000I0J-140000D01*
G01*
G37*
%TD.AperFunction*%
%TO.P,C7,1*%
%TO.N,GND*%
%TA.AperFunction,SMDPad,CuDef*%
G36*
G01*
X58260000Y-72830000D02*
X58260000Y-73170000D01*
G75*
G02*
X58120000Y-73310000I-140000J0D01*
G01*
X57840000Y-73310000D01*
G75*
G02*
X57700000Y-73170000I0J140000D01*
G01*
X57700000Y-72830000D01*
G75*
G02*
X57840000Y-72690000I140000J0D01*
G01*
X58120000Y-72690000D01*
G75*
G02*
X58260000Y-72830000I0J-140000D01*
G01*
G37*
%TD.AperFunction*%
%TD*%
%TO.P,C6,2*%
%TO.N,GND*%
%TA.AperFunction,SMDPad,CuDef*%
G36*
G01*
X57700000Y-74170000D02*
X57700000Y-73830000D01*
G75*
G02*
X57840000Y-73690000I140000J0D01*
G01*
X58120000Y-73690000D01*
G75*
G02*
X58260000Y-73830000I0J-140000D01*
G01*
X58260000Y-74170000D01*
G75*
G02*
X58120000Y-74310000I-140000J0D01*
G01*
X57840000Y-74310000D01*
G75*
G02*
X57700000Y-74170000I0J140000D01*
G01*
G37*
%TD.AperFunction*%
%TO.P,C6,1*%
%TO.N,+3V0*%
%TA.AperFunction,SMDPad,CuDef*%
G36*
G01*
X56740000Y-74170000D02*
X56740000Y-73830000D01*
G75*
G02*
X56880000Y-73690000I140000J0D01*
G01*
X57160000Y-73690000D01*
G75*
G02*
X57300000Y-73830000I0J-140000D01*
G01*
X57300000Y-74170000D01*
G75*
G02*
X57160000Y-74310000I-140000J0D01*
G01*
X56880000Y-74310000D01*
G75*
G02*
X56740000Y-74170000I0J140000D01*
G01*
G37*
%TD.AperFunction*%
%TD*%
%TO.P,C4,2*%
%TO.N,GND*%
%TA.AperFunction,SMDPad,CuDef*%
G36*
G01*
X42300000Y-67005000D02*
X42300000Y-67345000D01*
G75*
G02*
X42160000Y-67485000I-140000J0D01*
G01*
X41880000Y-67485000D01*
G75*
G02*
X41740000Y-67345000I0J140000D01*
G01*
X41740000Y-67005000D01*
G75*
G02*
X41880000Y-66865000I140000J0D01*
G01*
X42160000Y-66865000D01*
G75*
G02*
X42300000Y-67005000I0J-140000D01*
G01*
G37*
%TD.AperFunction*%
%TO.P,C4,1*%
%TO.N,+3V0*%
%TA.AperFunction,SMDPad,CuDef*%
G36*
G01*
X43260000Y-67005000D02*
X43260000Y-67345000D01*
G75*
G02*
X43120000Y-67485000I-140000J0D01*
G01*
X42840000Y-67485000D01*
G75*
G02*
X42700000Y-67345000I0J140000D01*
G01*
X42700000Y-67005000D01*
G75*
G02*
X42840000Y-66865000I140000J0D01*
G01*
X43120000Y-66865000D01*
G75*
G02*
X43260000Y-67005000I0J-140000D01*
G01*
G37*
%TD.AperFunction*%
%TD*%
%TO.P,C3,2*%
%TO.N,+3V0*%
%TA.AperFunction,SMDPad,CuDef*%
G36*
G01*
X57300000Y-67830000D02*
X57300000Y-68170000D01*
G75*
G02*
X57160000Y-68310000I-140000J0D01*
G01*
X56880000Y-68310000D01*
G75*
G02*
X56740000Y-68170000I0J140000D01*
G01*
X56740000Y-67830000D01*
G75*
G02*
X56880000Y-67690000I140000J0D01*
G01*
X57160000Y-67690000D01*
G75*
G02*
X57300000Y-67830000I0J-140000D01*
G01*
G37*
%TD.AperFunction*%
%TO.P,C3,1*%
%TO.N,GND*%
%TA.AperFunction,SMDPad,CuDef*%
G36*
G01*
X58260000Y-67830000D02*
X58260000Y-68170000D01*
G75*
G02*
X58120000Y-68310000I-140000J0D01*
G01*
X57840000Y-68310000D01*
G75*
G02*
X57700000Y-68170000I0J140000D01*
G01*
X57700000Y-67830000D01*
G75*
G02*
X57840000Y-67690000I140000J0D01*
G01*
X58120000Y-67690000D01*
G75*
G02*
X58260000Y-67830000I0J-140000D01*
G01*
G37*
%TD.AperFunction*%
%TD*%
%TO.P,C2,2*%
%TO.N,GND*%
%TA.AperFunction,SMDPad,CuDef*%
G36*
G01*
X57700000Y-69170000D02*
X57700000Y-68830000D01*
G75*
G02*
X57840000Y-68690000I140000J0D01*
G01*
X58120000Y-68690000D01*
G75*
G02*
X58260000Y-68830000I0J-140000D01*
G01*
X58260000Y-69170000D01*
G75*
G02*
X58120000Y-69310000I-140000J0D01*
G01*
X57840000Y-69310000D01*
G75*
G02*
X57700000Y-69170000I0J140000D01*
G01*
G37*
%TD.AperFunction*%
%TO.P,C2,1*%
%TO.N,+3V0*%
%TA.AperFunction,SMDPad,CuDef*%
G36*
G01*
X56740000Y-69170000D02*
X56740000Y-68830000D01*
G75*
G02*
X56880000Y-68690000I140000J0D01*
G01*
X57160000Y-68690000D01*
G75*
G02*
X57300000Y-68830000I0J-140000D01*
G01*
X57300000Y-69170000D01*
G75*
G02*
X57160000Y-69310000I-140000J0D01*
G01*
X56880000Y-69310000D01*
G75*
G02*
X56740000Y-69170000I0J140000D01*
G01*
G37*
%TD.AperFunction*%
%TD*%
%TO.P,C5,2*%
%TO.N,GND*%
%TA.AperFunction,SMDPad,CuDef*%
G36*
G01*
X42300000Y-66005000D02*
X42300000Y-66345000D01*
G75*
G02*
X42160000Y-66485000I-140000J0D01*
G01*
X41880000Y-66485000D01*
G75*
G02*
X41740000Y-66345000I0J140000D01*
G01*
X41740000Y-66005000D01*
G75*
G02*
X41880000Y-65865000I140000J0D01*
G01*
X42160000Y-65865000D01*
G75*
G02*
X42300000Y-66005000I0J-140000D01*
G01*
G37*
%TD.AperFunction*%
%TO.P,C5,1*%
%TO.N,Net-(C5-Pad1)*%
%TA.AperFunction,SMDPad,CuDef*%
G36*
G01*
X43260000Y-66005000D02*
X43260000Y-66345000D01*
G75*
G02*
X43120000Y-66485000I-140000J0D01*
G01*
X42840000Y-66485000D01*
G75*
G02*
X42700000Y-66345000I0J140000D01*
G01*
X42700000Y-66005000D01*
G75*
G02*
X42840000Y-65865000I140000J0D01*
G01*
X43120000Y-65865000D01*
G75*
G02*
X43260000Y-66005000I0J-140000D01*
G01*
G37*
%TD.AperFunction*%
%TD*%
%TO.P,U1,20*%
%TO.N,SWDCLK*%
%TA.AperFunction,SMDPad,CuDef*%
G36*
G01*
X52125000Y-64675000D02*
X52125000Y-64475000D01*
G75*
G02*
X52225000Y-64375000I100000J0D01*
G01*
X53500000Y-64375000D01*
G75*
G02*
X53600000Y-64475000I0J-100000D01*
G01*
X53600000Y-64675000D01*
G75*
G02*
X53500000Y-64775000I-100000J0D01*
G01*
X52225000Y-64775000D01*
G75*
G02*
X52125000Y-64675000I0J100000D01*
G01*
G37*
%TD.AperFunction*%
%TO.P,U1,19*%
%TO.N,SWDIO*%
%TA.AperFunction,SMDPad,CuDef*%
G36*
G01*
X52125000Y-65325000D02*
X52125000Y-65125000D01*
G75*
G02*
X52225000Y-65025000I100000J0D01*
G01*
X53500000Y-65025000D01*
G75*
G02*
X53600000Y-65125000I0J-100000D01*
G01*
X53600000Y-65325000D01*
G75*
G02*
X53500000Y-65425000I-100000J0D01*
G01*
X52225000Y-65425000D01*
G75*
G02*
X52125000Y-65325000I0J100000D01*
G01*
G37*
%TD.AperFunction*%
%TO.P,U1,18*%
%TO.N,I2C_SDA*%
%TA.AperFunction,SMDPad,CuDef*%
G36*
G01*
X52125000Y-65975000D02*
X52125000Y-65775000D01*
G75*
G02*
X52225000Y-65675000I100000J0D01*
G01*
X53500000Y-65675000D01*
G75*
G02*
X53600000Y-65775000I0J-100000D01*
G01*
X53600000Y-65975000D01*
G75*
G02*
X53500000Y-66075000I-100000J0D01*
G01*
X52225000Y-66075000D01*
G75*
G02*
X52125000Y-65975000I0J100000D01*
G01*
G37*
%TD.AperFunction*%
%TO.P,U1,17*%
%TO.N,I2C_SCL*%
%TA.AperFunction,SMDPad,CuDef*%
G36*
G01*
X52125000Y-66625000D02*
X52125000Y-66425000D01*
G75*
G02*
X52225000Y-66325000I100000J0D01*
G01*
X53500000Y-66325000D01*
G75*
G02*
X53600000Y-66425000I0J-100000D01*
G01*
X53600000Y-66625000D01*
G75*
G02*
X53500000Y-66725000I-100000J0D01*
G01*
X52225000Y-66725000D01*
G75*
G02*
X52125000Y-66625000I0J100000D01*
G01*
G37*
%TD.AperFunction*%
%TO.P,U1,16*%
%TO.N,+3V0*%
%TA.AperFunction,SMDPad,CuDef*%
G36*
G01*
X52125000Y-67275000D02*
X52125000Y-67075000D01*
G75*
G02*
X52225000Y-66975000I100000J0D01*
G01*
X53500000Y-66975000D01*
G75*
G02*
X53600000Y-67075000I0J-100000D01*
G01*
X53600000Y-67275000D01*
G75*
G02*
X53500000Y-67375000I-100000J0D01*
G01*
X52225000Y-67375000D01*
G75*
G02*
X52125000Y-67275000I0J100000D01*
G01*
G37*
%TD.AperFunction*%
%TO.P,U1,15*%
%TO.N,GND*%
%TA.AperFunction,SMDPad,CuDef*%
G36*
G01*
X52125000Y-67925000D02*
X52125000Y-67725000D01*
G75*
G02*
X52225000Y-67625000I100000J0D01*
G01*
X53500000Y-67625000D01*
G75*
G02*
X53600000Y-67725000I0J-100000D01*
G01*
X53600000Y-67925000D01*
G75*
G02*
X53500000Y-68025000I-100000J0D01*
G01*
X52225000Y-68025000D01*
G75*
G02*
X52125000Y-67925000I0J100000D01*
G01*
G37*
%TD.AperFunction*%
%TO.P,U1,14*%
%TO.N,Net-(U1-Pad14)*%
%TA.AperFunction,SMDPad,CuDef*%
G36*
G01*
X52125000Y-68575000D02*
X52125000Y-68375000D01*
G75*
G02*
X52225000Y-68275000I100000J0D01*
G01*
X53500000Y-68275000D01*
G75*
G02*
X53600000Y-68375000I0J-100000D01*
G01*
X53600000Y-68575000D01*
G75*
G02*
X53500000Y-68675000I-100000J0D01*
G01*
X52225000Y-68675000D01*
G75*
G02*
X52125000Y-68575000I0J100000D01*
G01*
G37*
%TD.AperFunction*%
%TO.P,U1,13*%
%TO.N,Net-(U1-Pad13)*%
%TA.AperFunction,SMDPad,CuDef*%
G36*
G01*
X52125000Y-69225000D02*
X52125000Y-69025000D01*
G75*
G02*
X52225000Y-68925000I100000J0D01*
G01*
X53500000Y-68925000D01*
G75*
G02*
X53600000Y-69025000I0J-100000D01*
G01*
X53600000Y-69225000D01*
G75*
G02*
X53500000Y-69325000I-100000J0D01*
G01*
X52225000Y-69325000D01*
G75*
G02*
X52125000Y-69225000I0J100000D01*
G01*
G37*
%TD.AperFunction*%
%TO.P,U1,12*%
%TO.N,Net-(JP3-Pad1)*%
%TA.AperFunction,SMDPad,CuDef*%
G36*
G01*
X52125000Y-69875000D02*
X52125000Y-69675000D01*
G75*
G02*
X52225000Y-69575000I100000J0D01*
G01*
X53500000Y-69575000D01*
G75*
G02*
X53600000Y-69675000I0J-100000D01*
G01*
X53600000Y-69875000D01*
G75*
G02*
X53500000Y-69975000I-100000J0D01*
G01*
X52225000Y-69975000D01*
G75*
G02*
X52125000Y-69875000I0J100000D01*
G01*
G37*
%TD.AperFunction*%
%TO.P,U1,11*%
%TO.N,Net-(U1-Pad11)*%
%TA.AperFunction,SMDPad,CuDef*%
G36*
G01*
X52125000Y-70525000D02*
X52125000Y-70325000D01*
G75*
G02*
X52225000Y-70225000I100000J0D01*
G01*
X53500000Y-70225000D01*
G75*
G02*
X53600000Y-70325000I0J-100000D01*
G01*
X53600000Y-70525000D01*
G75*
G02*
X53500000Y-70625000I-100000J0D01*
G01*
X52225000Y-70625000D01*
G75*
G02*
X52125000Y-70525000I0J100000D01*
G01*
G37*
%TD.AperFunction*%
%TO.P,U1,10*%
%TO.N,Net-(U1-Pad10)*%
%TA.AperFunction,SMDPad,CuDef*%
G36*
G01*
X46400000Y-70525000D02*
X46400000Y-70325000D01*
G75*
G02*
X46500000Y-70225000I100000J0D01*
G01*
X47775000Y-70225000D01*
G75*
G02*
X47875000Y-70325000I0J-100000D01*
G01*
X47875000Y-70525000D01*
G75*
G02*
X47775000Y-70625000I-100000J0D01*
G01*
X46500000Y-70625000D01*
G75*
G02*
X46400000Y-70525000I0J100000D01*
G01*
G37*
%TD.AperFunction*%
%TO.P,U1,9*%
%TO.N,Net-(U1-Pad9)*%
%TA.AperFunction,SMDPad,CuDef*%
G36*
G01*
X46400000Y-69875000D02*
X46400000Y-69675000D01*
G75*
G02*
X46500000Y-69575000I100000J0D01*
G01*
X47775000Y-69575000D01*
G75*
G02*
X47875000Y-69675000I0J-100000D01*
G01*
X47875000Y-69875000D01*
G75*
G02*
X47775000Y-69975000I-100000J0D01*
G01*
X46500000Y-69975000D01*
G75*
G02*
X46400000Y-69875000I0J100000D01*
G01*
G37*
%TD.AperFunction*%
%TO.P,U1,8*%
%TO.N,PA2*%
%TA.AperFunction,SMDPad,CuDef*%
G36*
G01*
X46400000Y-69225000D02*
X46400000Y-69025000D01*
G75*
G02*
X46500000Y-68925000I100000J0D01*
G01*
X47775000Y-68925000D01*
G75*
G02*
X47875000Y-69025000I0J-100000D01*
G01*
X47875000Y-69225000D01*
G75*
G02*
X47775000Y-69325000I-100000J0D01*
G01*
X46500000Y-69325000D01*
G75*
G02*
X46400000Y-69225000I0J100000D01*
G01*
G37*
%TD.AperFunction*%
%TO.P,U1,7*%
%TO.N,PA1*%
%TA.AperFunction,SMDPad,CuDef*%
G36*
G01*
X46400000Y-68575000D02*
X46400000Y-68375000D01*
G75*
G02*
X46500000Y-68275000I100000J0D01*
G01*
X47775000Y-68275000D01*
G75*
G02*
X47875000Y-68375000I0J-100000D01*
G01*
X47875000Y-68575000D01*
G75*
G02*
X47775000Y-68675000I-100000J0D01*
G01*
X46500000Y-68675000D01*
G75*
G02*
X46400000Y-68575000I0J100000D01*
G01*
G37*
%TD.AperFunction*%
%TO.P,U1,6*%
%TO.N,LIS3DH_INT1*%
%TA.AperFunction,SMDPad,CuDef*%
G36*
G01*
X46400000Y-67925000D02*
X46400000Y-67725000D01*
G75*
G02*
X46500000Y-67625000I100000J0D01*
G01*
X47775000Y-67625000D01*
G75*
G02*
X47875000Y-67725000I0J-100000D01*
G01*
X47875000Y-67925000D01*
G75*
G02*
X47775000Y-68025000I-100000J0D01*
G01*
X46500000Y-68025000D01*
G75*
G02*
X46400000Y-67925000I0J100000D01*
G01*
G37*
%TD.AperFunction*%
%TO.P,U1,5*%
%TO.N,+3V0*%
%TA.AperFunction,SMDPad,CuDef*%
G36*
G01*
X46400000Y-67275000D02*
X46400000Y-67075000D01*
G75*
G02*
X46500000Y-66975000I100000J0D01*
G01*
X47775000Y-66975000D01*
G75*
G02*
X47875000Y-67075000I0J-100000D01*
G01*
X47875000Y-67275000D01*
G75*
G02*
X47775000Y-67375000I-100000J0D01*
G01*
X46500000Y-67375000D01*
G75*
G02*
X46400000Y-67275000I0J100000D01*
G01*
G37*
%TD.AperFunction*%
%TO.P,U1,4*%
%TO.N,Net-(C5-Pad1)*%
%TA.AperFunction,SMDPad,CuDef*%
G36*
G01*
X46400000Y-66625000D02*
X46400000Y-66425000D01*
G75*
G02*
X46500000Y-66325000I100000J0D01*
G01*
X47775000Y-66325000D01*
G75*
G02*
X47875000Y-66425000I0J-100000D01*
G01*
X47875000Y-66625000D01*
G75*
G02*
X47775000Y-66725000I-100000J0D01*
G01*
X46500000Y-66725000D01*
G75*
G02*
X46400000Y-66625000I0J100000D01*
G01*
G37*
%TD.AperFunction*%
%TO.P,U1,3*%
%TO.N,Net-(U1-Pad3)*%
%TA.AperFunction,SMDPad,CuDef*%
G36*
G01*
X46400000Y-65975000D02*
X46400000Y-65775000D01*
G75*
G02*
X46500000Y-65675000I100000J0D01*
G01*
X47775000Y-65675000D01*
G75*
G02*
X47875000Y-65775000I0J-100000D01*
G01*
X47875000Y-65975000D01*
G75*
G02*
X47775000Y-66075000I-100000J0D01*
G01*
X46500000Y-66075000D01*
G75*
G02*
X46400000Y-65975000I0J100000D01*
G01*
G37*
%TD.AperFunction*%
%TO.P,U1,2*%
%TO.N,Net-(U1-Pad2)*%
%TA.AperFunction,SMDPad,CuDef*%
G36*
G01*
X46400000Y-65325000D02*
X46400000Y-65125000D01*
G75*
G02*
X46500000Y-65025000I100000J0D01*
G01*
X47775000Y-65025000D01*
G75*
G02*
X47875000Y-65125000I0J-100000D01*
G01*
X47875000Y-65325000D01*
G75*
G02*
X47775000Y-65425000I-100000J0D01*
G01*
X46500000Y-65425000D01*
G75*
G02*
X46400000Y-65325000I0J100000D01*
G01*
G37*
%TD.AperFunction*%
%TO.P,U1,1*%
%TO.N,Net-(R21-Pad2)*%
%TA.AperFunction,SMDPad,CuDef*%
G36*
G01*
X46400000Y-64675000D02*
X46400000Y-64475000D01*
G75*
G02*
X46500000Y-64375000I100000J0D01*
G01*
X47775000Y-64375000D01*
G75*
G02*
X47875000Y-64475000I0J-100000D01*
G01*
X47875000Y-64675000D01*
G75*
G02*
X47775000Y-64775000I-100000J0D01*
G01*
X46500000Y-64775000D01*
G75*
G02*
X46400000Y-64675000I0J100000D01*
G01*
G37*
%TD.AperFunction*%
%TD*%
D12*
%TO.N,GND*%
X58900000Y-69000000D03*
X44725000Y-85500000D03*
X45500000Y-81500000D03*
X54320000Y-75880000D03*
X42020000Y-68100000D03*
X54980000Y-68650000D03*
X57980000Y-71075000D03*
X45000000Y-89980000D03*
X53000000Y-89975000D03*
X62875000Y-66225000D03*
X62150000Y-66250000D03*
X66350000Y-66250000D03*
X67100000Y-66250000D03*
X55400000Y-86000000D03*
X48780000Y-87040000D03*
X52160000Y-83470000D03*
%TO.N,+3V0*%
X56075000Y-69750000D03*
X32175000Y-66675000D03*
X66850000Y-60325000D03*
X67550000Y-60325000D03*
X68250000Y-60325000D03*
X68250000Y-59650000D03*
X67550000Y-59650000D03*
X66850000Y-59650000D03*
X55000000Y-60075000D03*
X60000000Y-58075000D03*
X65000000Y-58275000D03*
X70000000Y-63075000D03*
X70000000Y-71575000D03*
X62500000Y-85575000D03*
X57500000Y-90575000D03*
X42500000Y-90575000D03*
X37500000Y-85575000D03*
X30000000Y-71575000D03*
X30000000Y-63075000D03*
X35000000Y-58275000D03*
X40000000Y-58075000D03*
X45000000Y-60075000D03*
X30500000Y-81725000D03*
X69250000Y-81700000D03*
X43175000Y-68100000D03*
X57020000Y-70350000D03*
X58900000Y-66510000D03*
X44180000Y-72770000D03*
X41300000Y-89020000D03*
X58670000Y-88350000D03*
X31020000Y-78040000D03*
%TO.N,SWDIO*%
X50650000Y-65225000D03*
X33830000Y-71790000D03*
%TO.N,SWDCLK*%
X51450000Y-64575000D03*
X34360000Y-68420000D03*
%TO.N,TCA6416A_RESET*%
X43190000Y-73730000D03*
X34740000Y-78040000D03*
%TO.N,Net-(JP3-Pad1)*%
X34730000Y-76120000D03*
X54270000Y-71380000D03*
%TO.N,I2C_SCL*%
X50675000Y-66525000D03*
X60200000Y-89860000D03*
X50688397Y-68708397D03*
%TO.N,I2C_SDA*%
X51450000Y-65875000D03*
X59780000Y-89030000D03*
X51360000Y-71380000D03*
X49790000Y-69810000D03*
%TO.N,LIS3DH_INT2*%
X59720000Y-87370000D03*
X38640000Y-61640000D03*
%TO.N,LIS3DH_INT1*%
X45675000Y-67825000D03*
X60400000Y-86530000D03*
%TO.N,TOUCH_KEY_1*%
X45330000Y-92290000D03*
X38660000Y-64260000D03*
%TO.N,PA1*%
X45000000Y-68475000D03*
X31450000Y-62960000D03*
%TO.N,PA2*%
X44175000Y-69125000D03*
X38650000Y-62950000D03*
%TD*%
D13*
%TO.N,GND*%
X52867500Y-67820000D02*
X52862500Y-67825000D01*
X52867500Y-75880000D02*
X52862500Y-75875000D01*
X48880000Y-89980000D02*
X48900000Y-90000000D01*
X46000000Y-89980000D02*
X48880000Y-89980000D01*
X46000000Y-89980000D02*
X45000000Y-89980000D01*
X45000000Y-89980000D02*
X45000000Y-89980000D01*
X53995000Y-89975000D02*
X54000000Y-89980000D01*
X53000000Y-89975000D02*
X53995000Y-89975000D01*
X47112500Y-81050000D02*
X47137500Y-81075000D01*
X45225000Y-85000000D02*
X44725000Y-85500000D01*
X45520000Y-85000000D02*
X45225000Y-85000000D01*
X45225000Y-86000000D02*
X44725000Y-85500000D01*
X45520000Y-86000000D02*
X45225000Y-86000000D01*
X54510000Y-86000000D02*
X55400000Y-86000000D01*
X55400000Y-86000000D02*
X55400000Y-86000000D01*
X52160000Y-84080000D02*
X52160000Y-83470000D01*
X52160000Y-83470000D02*
X52160000Y-83470000D01*
X51740000Y-84500000D02*
X52160000Y-84080000D01*
X51225000Y-84500000D02*
X51740000Y-84500000D01*
X50500000Y-84500000D02*
X51225000Y-84500000D01*
X50180000Y-84820000D02*
X50500000Y-84500000D01*
X50180000Y-85130000D02*
X50180000Y-84820000D01*
X50550000Y-85500000D02*
X50180000Y-85130000D01*
X51225000Y-85500000D02*
X50550000Y-85500000D01*
X48775000Y-87035000D02*
X48780000Y-87040000D01*
X48775000Y-86000000D02*
X48775000Y-87035000D01*
D14*
X57980000Y-68000000D02*
X57980000Y-69000000D01*
X41990000Y-65175000D02*
X41990000Y-66145000D01*
X42020000Y-66175000D02*
X41990000Y-66145000D01*
X42020000Y-66175000D02*
X42020000Y-67175000D01*
X42020000Y-67175000D02*
X42020000Y-68100000D01*
X57980000Y-74000000D02*
X57980000Y-73000000D01*
X54315000Y-75875000D02*
X54320000Y-75880000D01*
X52862500Y-75875000D02*
X54315000Y-75875000D01*
X45925000Y-81075000D02*
X45500000Y-81500000D01*
X47137500Y-81075000D02*
X45925000Y-81075000D01*
D13*
X52862500Y-67825000D02*
X54155000Y-67825000D01*
D14*
X54205010Y-67875010D02*
X54155000Y-67875010D01*
X54980000Y-68650000D02*
X54205010Y-67875010D01*
X57980000Y-73000000D02*
X57980000Y-71075000D01*
X58900000Y-69000000D02*
X57980000Y-69000000D01*
D13*
%TO.N,+3V0*%
X58390000Y-66000000D02*
X58900000Y-66510000D01*
X58010000Y-66000000D02*
X58390000Y-66000000D01*
X58410000Y-67000000D02*
X58900000Y-66510000D01*
X58010000Y-67000000D02*
X58410000Y-67000000D01*
X42970000Y-67185000D02*
X42980000Y-67175000D01*
X52937500Y-74000000D02*
X52862500Y-73925000D01*
X48870000Y-89020000D02*
X48900000Y-89050000D01*
X46000000Y-89020000D02*
X48870000Y-89020000D01*
X55000000Y-61212500D02*
X55000000Y-60075000D01*
X60000000Y-59212500D02*
X60000000Y-58075000D01*
X70000000Y-63075000D02*
X70000000Y-64212500D01*
X70000000Y-71575000D02*
X70000000Y-72712500D01*
X62500000Y-85575000D02*
X62500000Y-86712500D01*
X57500000Y-90575000D02*
X57500000Y-91712500D01*
X42500000Y-91712500D02*
X42500000Y-90575000D01*
X37500000Y-86712500D02*
X37500000Y-85575000D01*
X30000000Y-72712500D02*
X30000000Y-71575000D01*
X30000000Y-64212500D02*
X30000000Y-63075000D01*
X40000000Y-59212500D02*
X40000000Y-58075000D01*
X45000000Y-61212500D02*
X45000000Y-60075000D01*
X35000000Y-58275000D02*
X35000000Y-59212500D01*
X65000000Y-58275000D02*
X65000000Y-59212500D01*
X69237500Y-81712500D02*
X69250000Y-81700000D01*
X67500000Y-81712500D02*
X69237500Y-81712500D01*
X32487500Y-81725000D02*
X32500000Y-81712500D01*
X30500000Y-81725000D02*
X32487500Y-81725000D01*
X43175000Y-68100000D02*
X43175000Y-68075000D01*
X46480000Y-86000000D02*
X46480000Y-86595000D01*
X46480000Y-86000000D02*
X46480000Y-85000000D01*
X55325002Y-85000000D02*
X57500000Y-87174998D01*
X54510000Y-85000000D02*
X55325002Y-85000000D01*
X41300000Y-89020000D02*
X41300000Y-89020000D01*
X57500000Y-87180000D02*
X57500000Y-87174998D01*
X58670000Y-88350000D02*
X57500000Y-87180000D01*
X47180000Y-85130000D02*
X47180000Y-87020000D01*
X46282500Y-87917500D02*
X45157500Y-87917500D01*
X47180000Y-87020000D02*
X46282500Y-87917500D01*
X46480000Y-86595000D02*
X45157500Y-87917500D01*
X48310010Y-83999990D02*
X48775000Y-83999990D01*
X47180000Y-85130000D02*
X48310010Y-83999990D01*
X50140000Y-82570000D02*
X50500000Y-82930000D01*
X47810000Y-82570000D02*
X50140000Y-82570000D01*
X46480000Y-83900000D02*
X47810000Y-82570000D01*
X50500000Y-82930000D02*
X50500000Y-83775000D01*
X46480000Y-85000000D02*
X46480000Y-83900000D01*
D14*
X45985000Y-74575000D02*
X44180000Y-72770000D01*
X47137500Y-74575000D02*
X45985000Y-74575000D01*
X56945000Y-73925000D02*
X57020000Y-74000000D01*
X52862500Y-73925000D02*
X56945000Y-73925000D01*
X57020000Y-68000000D02*
X57020000Y-69000000D01*
X43080001Y-67074999D02*
X42980000Y-67175000D01*
X46035001Y-67074999D02*
X43080001Y-67074999D01*
X46135002Y-67175000D02*
X46035001Y-67074999D01*
X47137500Y-67175000D02*
X46135002Y-67175000D01*
X43175000Y-68100000D02*
X43160000Y-68100000D01*
X42980000Y-67920000D02*
X42980000Y-67175000D01*
X43160000Y-68100000D02*
X42980000Y-67920000D01*
X57020000Y-74000000D02*
X57020000Y-73000000D01*
X56756814Y-68000000D02*
X57020000Y-68000000D01*
X55931814Y-67175000D02*
X56756814Y-68000000D01*
X52862500Y-67175000D02*
X55931814Y-67175000D01*
X41300000Y-89020000D02*
X46000000Y-89020000D01*
X45157500Y-87917500D02*
X44072500Y-89002500D01*
X57020000Y-73000000D02*
X57020000Y-70350000D01*
X56270000Y-69750000D02*
X57020000Y-69000000D01*
X56075000Y-69750000D02*
X56270000Y-69750000D01*
D13*
%TO.N,Net-(D0-Pad1)*%
X43406946Y-62787500D02*
X45000000Y-62787500D01*
X41394999Y-64799447D02*
X43406946Y-62787500D01*
X41394999Y-74404999D02*
X41394999Y-64799447D01*
X41990000Y-75000000D02*
X41394999Y-74404999D01*
%TO.N,Net-(D1-Pad1)*%
X40000000Y-74010000D02*
X40000000Y-60787500D01*
X41990000Y-76000000D02*
X40000000Y-74010000D01*
%TO.N,Net-(D2-Pad1)*%
X35000000Y-70010000D02*
X35000000Y-60787500D01*
X41990000Y-77000000D02*
X35000000Y-70010000D01*
%TO.N,Net-(D3-Pad1)*%
X30000000Y-66010000D02*
X30000000Y-65787500D01*
X41990000Y-78000000D02*
X33480000Y-69820000D01*
X33480000Y-69820000D02*
X30000000Y-66010000D01*
%TO.N,Net-(D4-Pad1)*%
X41990000Y-79000000D02*
X41180000Y-79000000D01*
X36467500Y-74287500D02*
X30000000Y-74287500D01*
X41180000Y-79000000D02*
X36467500Y-74287500D01*
%TO.N,Net-(D5-Pad1)*%
X32487500Y-83300000D02*
X32500000Y-83287500D01*
X35787500Y-80000000D02*
X32500000Y-83287500D01*
X41990000Y-80000000D02*
X35787500Y-80000000D01*
%TO.N,Net-(D6-Pad1)*%
X38300010Y-87487490D02*
X37500000Y-88287500D01*
X38300010Y-84689990D02*
X38300010Y-87487490D01*
X41990000Y-81000000D02*
X38300010Y-84689990D01*
%TO.N,Net-(D7-Pad1)*%
X40674999Y-83315001D02*
X41990000Y-82000000D01*
X40674999Y-91462499D02*
X40674999Y-83315001D01*
X42500000Y-93287500D02*
X40674999Y-91462499D01*
%TO.N,Net-(D8-Pad1)*%
X61025001Y-89960001D02*
X57697502Y-93287500D01*
X61025001Y-85015001D02*
X61025001Y-89960001D01*
X57697502Y-93287500D02*
X57500000Y-93287500D01*
X58010000Y-82000000D02*
X61025001Y-85015001D01*
%TO.N,Net-(D9-Pad1)*%
X63300010Y-87487490D02*
X62500000Y-88287500D01*
X63300010Y-85450008D02*
X63300010Y-87487490D01*
X58850002Y-81000000D02*
X63300010Y-85450008D01*
X58010000Y-81000000D02*
X58850002Y-81000000D01*
%TO.N,Net-(D10-Pad1)*%
X67500000Y-82956494D02*
X67500000Y-83287500D01*
X64543506Y-80000000D02*
X67500000Y-82956494D01*
X58010000Y-80000000D02*
X64543506Y-80000000D01*
%TO.N,Net-(D11-Pad1)*%
X65287500Y-79000000D02*
X70000000Y-74287500D01*
X58010000Y-79000000D02*
X65287500Y-79000000D01*
%TO.N,Net-(D12-Pad1)*%
X70000000Y-66010000D02*
X70000000Y-65787500D01*
X58010000Y-78000000D02*
X70000000Y-66010000D01*
%TO.N,Net-(D13-Pad1)*%
X65000000Y-70010000D02*
X65000000Y-60787500D01*
X58010000Y-77000000D02*
X65000000Y-70010000D01*
%TO.N,Net-(D14-Pad1)*%
X61524999Y-62312499D02*
X60000000Y-60787500D01*
X61524999Y-72485001D02*
X61524999Y-62312499D01*
X58010000Y-76000000D02*
X61524999Y-72485001D01*
%TO.N,Net-(D15-Pad1)*%
X56102502Y-62787500D02*
X55000000Y-62787500D01*
X59525001Y-66209999D02*
X56102502Y-62787500D01*
X59525001Y-73422625D02*
X59525001Y-66209999D01*
X58010000Y-74937626D02*
X59525001Y-73422625D01*
X58010000Y-75000000D02*
X58010000Y-74937626D01*
%TO.N,SWDIO*%
X52862500Y-65225000D02*
X50650000Y-65225000D01*
X50650000Y-65225000D02*
X50650000Y-65225000D01*
%TO.N,SWDCLK*%
X52862500Y-64575000D02*
X51450000Y-64575000D01*
X51450000Y-64575000D02*
X51450000Y-64575000D01*
%TO.N,TCA6416A_RESET*%
X47137500Y-75225000D02*
X45635000Y-75225000D01*
X45635000Y-75225000D02*
X44140000Y-73730000D01*
X44140000Y-73730000D02*
X43190000Y-73730000D01*
X43190000Y-73730000D02*
X43190000Y-73730000D01*
%TO.N,Net-(JP3-Pad1)*%
X53600000Y-69775000D02*
X54270000Y-70445000D01*
X52862500Y-69775000D02*
X53600000Y-69775000D01*
X54270000Y-70445000D02*
X54270000Y-71380000D01*
X54270000Y-71380000D02*
X54270000Y-71380000D01*
%TO.N,I2C_SCL*%
X52862500Y-66525000D02*
X50675000Y-66525000D01*
X50675000Y-66525000D02*
X50675000Y-66525000D01*
X60200000Y-89860000D02*
X60200000Y-89860000D01*
X50675000Y-73795000D02*
X50670000Y-73800000D01*
X50675000Y-66525000D02*
X50690000Y-68100000D01*
X50675000Y-73795000D02*
X50675000Y-74585000D01*
X51315000Y-75225000D02*
X52862500Y-75225000D01*
X50675000Y-74585000D02*
X51315000Y-75225000D01*
X50690000Y-68100000D02*
X50688397Y-68708397D01*
X50688397Y-68708397D02*
X50675000Y-73795000D01*
X48416632Y-85499990D02*
X48530000Y-85499990D01*
X47740000Y-86925002D02*
X47740000Y-86176622D01*
X49049997Y-88234999D02*
X47740000Y-86925002D01*
X54754999Y-88234999D02*
X49049997Y-88234999D01*
X47740000Y-86176622D02*
X48416632Y-85499990D01*
X56380000Y-89860000D02*
X54754999Y-88234999D01*
X60200000Y-89860000D02*
X56380000Y-89860000D01*
X52862500Y-66525000D02*
X56095000Y-66525000D01*
X56570000Y-67000000D02*
X56990000Y-67000000D01*
X56095000Y-66525000D02*
X56570000Y-67000000D01*
%TO.N,I2C_SDA*%
X56990000Y-66000000D02*
X56980000Y-66000000D01*
X56855000Y-65875000D02*
X52862500Y-65875000D01*
X56980000Y-66000000D02*
X56855000Y-65875000D01*
X52862500Y-65875000D02*
X51450000Y-65875000D01*
X51450000Y-65875000D02*
X51450000Y-65875000D01*
X59780000Y-89030000D02*
X59770000Y-89040000D01*
X58110000Y-89040000D02*
X59780000Y-89030000D01*
X56470029Y-87400029D02*
X58110000Y-89040000D01*
X49960029Y-87400029D02*
X56470029Y-87400029D01*
X52125000Y-74575000D02*
X51360000Y-73810000D01*
X52862500Y-74575000D02*
X52125000Y-74575000D01*
X51360000Y-73810000D02*
X51360000Y-71380000D01*
X51360000Y-71380000D02*
X51360000Y-71380000D01*
X50399998Y-65875000D02*
X51450000Y-65875000D01*
X49790000Y-66484998D02*
X50399998Y-65875000D01*
X49790000Y-69810000D02*
X49790000Y-66484998D01*
X49500000Y-86940000D02*
X49960029Y-87400029D01*
X49500000Y-86225000D02*
X49500000Y-86940000D01*
%TO.N,LIS3DH_INT2*%
X53164456Y-84354990D02*
X56714990Y-84354990D01*
X52283590Y-85235856D02*
X53164456Y-84354990D01*
X56714990Y-84354990D02*
X56714990Y-84364990D01*
X56714990Y-84364990D02*
X59720000Y-87370000D01*
X59720000Y-87370000D02*
X59720000Y-87370000D01*
X51225000Y-86000000D02*
X51980000Y-86000000D01*
X52283590Y-85696410D02*
X52283590Y-85235856D01*
X51980000Y-86000000D02*
X52283590Y-85696410D01*
%TO.N,LIS3DH_INT1*%
X47137500Y-67825000D02*
X45675000Y-67825000D01*
X45675000Y-67825000D02*
X45675000Y-67825000D01*
X60400000Y-86530000D02*
X60400000Y-86530000D01*
X57774980Y-83904980D02*
X60400000Y-86530000D01*
X52971430Y-83904980D02*
X57774980Y-83904980D01*
X51876410Y-85000000D02*
X52971430Y-83904980D01*
X51225000Y-85000000D02*
X51876410Y-85000000D01*
%TO.N,Net-(C5-Pad1)*%
X46400000Y-66525000D02*
X47137500Y-66525000D01*
X46050000Y-66175000D02*
X46400000Y-66525000D01*
X42980000Y-66175000D02*
X46050000Y-66175000D01*
%TO.N,Net-(C10-Pad2)*%
X53970000Y-89050000D02*
X54000000Y-89020000D01*
X51100000Y-89050000D02*
X53970000Y-89050000D01*
X54310000Y-89020000D02*
X54810000Y-89520000D01*
X54000000Y-89020000D02*
X54310000Y-89020000D01*
X54810000Y-91240000D02*
X50000000Y-96050000D01*
X54810000Y-89520000D02*
X54810000Y-91240000D01*
%TO.N,TOUCH_KEY_1*%
X48900000Y-90950000D02*
X46670000Y-90950000D01*
X46670000Y-90950000D02*
X45330000Y-92290000D01*
X45330000Y-92290000D02*
X45330000Y-92290000D01*
%TO.N,Net-(R0-Pad1)*%
X43010000Y-75000000D02*
X44000000Y-75000000D01*
X44875000Y-75875000D02*
X47137500Y-75875000D01*
X44000000Y-75000000D02*
X44875000Y-75875000D01*
%TO.N,Net-(R1-Pad1)*%
X44888590Y-76525000D02*
X47137500Y-76525000D01*
X44363590Y-76000000D02*
X44888590Y-76525000D01*
X43010000Y-76000000D02*
X44363590Y-76000000D01*
%TO.N,Net-(R2-Pad1)*%
X43010000Y-77000000D02*
X44000000Y-77000000D01*
X44175000Y-77175000D02*
X47137500Y-77175000D01*
X44000000Y-77000000D02*
X44175000Y-77175000D01*
%TO.N,Net-(R3-Pad1)*%
X43010000Y-78000000D02*
X44000000Y-78000000D01*
X44175000Y-77825000D02*
X47137500Y-77825000D01*
X44000000Y-78000000D02*
X44175000Y-77825000D01*
%TO.N,Net-(R4-Pad1)*%
X43010000Y-79000000D02*
X44000000Y-79000000D01*
X44525000Y-78475000D02*
X47137500Y-78475000D01*
X44000000Y-79000000D02*
X44525000Y-78475000D01*
%TO.N,Net-(R5-Pad1)*%
X43010000Y-80000000D02*
X44000000Y-80000000D01*
X44875000Y-79125000D02*
X47137500Y-79125000D01*
X44000000Y-80000000D02*
X44875000Y-79125000D01*
%TO.N,Net-(R6-Pad1)*%
X43010000Y-81000000D02*
X44000000Y-81000000D01*
X45225000Y-79775000D02*
X47137500Y-79775000D01*
X44000000Y-81000000D02*
X45225000Y-79775000D01*
%TO.N,Net-(R7-Pad1)*%
X43010000Y-82000000D02*
X44000000Y-82000000D01*
X45575000Y-80425000D02*
X47137500Y-80425000D01*
X44000000Y-82000000D02*
X45575000Y-80425000D01*
%TO.N,Net-(R8-Pad1)*%
X52862500Y-81075000D02*
X54505000Y-81075000D01*
X55430000Y-82000000D02*
X56990000Y-82000000D01*
X54505000Y-81075000D02*
X55430000Y-82000000D01*
%TO.N,Net-(R9-Pad1)*%
X52862500Y-80425000D02*
X54545000Y-80425000D01*
X55120000Y-81000000D02*
X56990000Y-81000000D01*
X54545000Y-80425000D02*
X55120000Y-81000000D01*
%TO.N,Net-(R10-Pad1)*%
X52862500Y-79775000D02*
X54635000Y-79775000D01*
X54860000Y-80000000D02*
X56990000Y-80000000D01*
X54635000Y-79775000D02*
X54860000Y-80000000D01*
%TO.N,Net-(R11-Pad1)*%
X52862500Y-79125000D02*
X54685000Y-79125000D01*
X54810000Y-79000000D02*
X56990000Y-79000000D01*
X54685000Y-79125000D02*
X54810000Y-79000000D01*
%TO.N,Net-(R12-Pad1)*%
X52862500Y-78475000D02*
X54604230Y-78475000D01*
X55079230Y-78000000D02*
X56990000Y-78000000D01*
X54604230Y-78475000D02*
X55079230Y-78000000D01*
%TO.N,Net-(R13-Pad1)*%
X52862500Y-77825000D02*
X54617820Y-77825000D01*
X55442820Y-77000000D02*
X56990000Y-77000000D01*
X54617820Y-77825000D02*
X55442820Y-77000000D01*
%TO.N,Net-(R14-Pad1)*%
X52862500Y-77175000D02*
X54631410Y-77175000D01*
X55806410Y-76000000D02*
X56990000Y-76000000D01*
X54631410Y-77175000D02*
X55806410Y-76000000D01*
%TO.N,Net-(R15-Pad1)*%
X52862500Y-76525000D02*
X54645000Y-76525000D01*
X56170000Y-75000000D02*
X56990000Y-75000000D01*
X54645000Y-76525000D02*
X56170000Y-75000000D01*
%TO.N,Net-(R21-Pad2)*%
X45975000Y-64575000D02*
X47137500Y-64575000D01*
X45375000Y-65175000D02*
X45975000Y-64575000D01*
X43010000Y-65175000D02*
X45375000Y-65175000D01*
%TO.N,Net-(R25-Pad1)*%
X53490000Y-85029446D02*
X53490000Y-85000000D01*
X52894990Y-85595010D02*
X53490000Y-85000000D01*
X52894990Y-86025010D02*
X52894990Y-85595010D01*
X52419990Y-86500010D02*
X52894990Y-86025010D01*
X50775010Y-86500010D02*
X50500000Y-86225000D01*
X52419990Y-86500010D02*
X50775010Y-86500010D01*
%TO.N,Net-(R26-Pad2)*%
X53490000Y-86320000D02*
X53490000Y-86000000D01*
X52859981Y-86950019D02*
X53490000Y-86320000D01*
X50366641Y-86950019D02*
X50000000Y-86583378D01*
X50000000Y-86583378D02*
X50000000Y-86225000D01*
X52859981Y-86950019D02*
X50366641Y-86950019D01*
%TO.N,PA1*%
X47137500Y-68475000D02*
X45000000Y-68475000D01*
X45000000Y-68475000D02*
X45000000Y-68475000D01*
%TO.N,PA2*%
X47137500Y-69125000D02*
X44175000Y-69125000D01*
X44175000Y-69125000D02*
X44175000Y-69125000D01*
%TD*%
M02*
