%TF.GenerationSoftware,KiCad,Pcbnew,(5.1.9)-1*%
%TF.CreationDate,2021-12-27T23:36:38+01:00*%
%TF.ProjectId,heart,68656172-742e-46b6-9963-61645f706362,rev?*%
%TF.SameCoordinates,Original*%
%TF.FileFunction,Copper,L3,Inr*%
%TF.FilePolarity,Positive*%
%FSLAX46Y46*%
G04 Gerber Fmt 4.6, Leading zero omitted, Abs format (unit mm)*
G04 Created by KiCad (PCBNEW (5.1.9)-1) date 2021-12-27 23:36:38*
%MOMM*%
%LPD*%
G01*
G04 APERTURE LIST*
%TA.AperFunction,ViaPad*%
%ADD10C,0.800000*%
%TD*%
G04 APERTURE END LIST*
D10*
%TO.N,GND*%
X45500000Y-81500000D03*
X54320000Y-75880000D03*
X42020000Y-68100000D03*
X54320000Y-67820000D03*
X57980000Y-71000000D03*
X45000000Y-89980000D03*
X53000000Y-89975000D03*
%TO.N,+3V0*%
X55000000Y-60075000D03*
X60000000Y-58075000D03*
X65000000Y-58275000D03*
X70000000Y-63075000D03*
X70000000Y-71575000D03*
X62500000Y-85575000D03*
X57500000Y-90575000D03*
X42500000Y-90575000D03*
X37500000Y-85575000D03*
X30000000Y-71575000D03*
X30000000Y-63075000D03*
X35000000Y-58275000D03*
X40000000Y-58075000D03*
X45000000Y-60075000D03*
X32500000Y-80575000D03*
X67500000Y-80575000D03*
X42970000Y-68100000D03*
X57020000Y-71000000D03*
X58900000Y-66510000D03*
X43500000Y-73250000D03*
%TO.N,Net-(D0-Pad1)*%
X45000000Y-64000000D03*
%TO.N,Net-(D1-Pad1)*%
X40000000Y-62000000D03*
%TO.N,Net-(D2-Pad1)*%
X35000000Y-62000000D03*
%TO.N,Net-(D3-Pad1)*%
X30000000Y-67000000D03*
%TO.N,Net-(D4-Pad1)*%
X30000000Y-75500000D03*
%TO.N,Net-(D5-Pad1)*%
X32500000Y-84500000D03*
%TO.N,Net-(D6-Pad1)*%
X37500000Y-89500000D03*
%TO.N,Net-(D7-Pad1)*%
X42500000Y-94500000D03*
%TO.N,Net-(D8-Pad1)*%
X57500000Y-94500000D03*
%TO.N,Net-(D9-Pad1)*%
X62500000Y-89500000D03*
%TO.N,Net-(D10-Pad1)*%
X67500000Y-84500000D03*
%TO.N,Net-(D11-Pad1)*%
X70000000Y-75500000D03*
%TO.N,Net-(D12-Pad1)*%
X70000000Y-67000000D03*
%TO.N,Net-(D13-Pad1)*%
X65000000Y-62000000D03*
%TO.N,Net-(D14-Pad1)*%
X60000000Y-62000000D03*
%TO.N,Net-(D15-Pad1)*%
X55000000Y-64000000D03*
%TD*%
M02*
