M48
; DRILL file {KiCad (5.1.9)-1} date 12/29/21 15:03:25
; FORMAT={-:-/ absolute / metric / decimal}
; #@! TF.CreationDate,2021-12-29T15:03:25+01:00
; #@! TF.GenerationSoftware,Kicad,Pcbnew,(5.1.9)-1
; #@! TF.FileFunction,Plated,1,4,PTH
FMAT,2
METRIC
T1C0.300
%
G90
G05
T1
X30.0Y-63.075
X30.0Y-71.575
X30.5Y-81.725
X31.02Y-78.04
X31.45Y-62.96
X32.175Y-66.675
X33.83Y-71.79
X34.36Y-68.42
X34.73Y-76.12
X34.74Y-78.04
X35.0Y-58.275
X37.5Y-85.575
X38.64Y-61.64
X38.65Y-62.95
X38.66Y-64.26
X40.0Y-58.075
X41.3Y-89.02
X42.02Y-68.1
X42.5Y-90.575
X43.175Y-68.1
X43.19Y-73.73
X44.175Y-69.125
X44.18Y-72.77
X44.725Y-85.5
X45.0Y-60.075
X45.0Y-68.475
X45.0Y-89.98
X45.33Y-92.29
X45.5Y-81.5
X45.675Y-67.825
X48.78Y-87.04
X49.79Y-69.81
X50.65Y-65.225
X50.675Y-66.525
X50.688Y-68.708
X51.36Y-71.38
X51.45Y-64.575
X51.45Y-65.875
X52.16Y-83.47
X53.0Y-89.975
X54.27Y-71.38
X54.32Y-75.88
X54.98Y-68.65
X55.0Y-60.075
X55.4Y-86.0
X56.075Y-69.75
X57.02Y-70.35
X57.5Y-90.575
X57.98Y-71.075
X58.67Y-88.35
X58.9Y-66.51
X58.9Y-69.0
X59.72Y-87.37
X59.78Y-89.03
X60.0Y-58.075
X60.2Y-89.86
X60.4Y-86.53
X62.15Y-66.25
X62.5Y-85.575
X62.875Y-66.225
X65.0Y-58.275
X66.35Y-66.25
X66.85Y-59.65
X66.85Y-60.325
X67.1Y-66.25
X67.55Y-59.65
X67.55Y-60.325
X68.25Y-59.65
X68.25Y-60.325
X69.25Y-81.7
X70.0Y-63.075
X70.0Y-71.575
T0
M30
