%TF.GenerationSoftware,KiCad,Pcbnew,(5.1.9)-1*%
%TF.CreationDate,2021-12-29T11:52:55+01:00*%
%TF.ProjectId,heart,68656172-742e-46b6-9963-61645f706362,rev?*%
%TF.SameCoordinates,Original*%
%TF.FileFunction,Copper,L4,Bot*%
%TF.FilePolarity,Positive*%
%FSLAX46Y46*%
G04 Gerber Fmt 4.6, Leading zero omitted, Abs format (unit mm)*
G04 Created by KiCad (PCBNEW (5.1.9)-1) date 2021-12-29 11:52:55*
%MOMM*%
%LPD*%
G01*
G04 APERTURE LIST*
%TA.AperFunction,SMDPad,CuDef*%
%ADD10R,1.500000X1.000000*%
%TD*%
%TA.AperFunction,SMDPad,CuDef*%
%ADD11C,0.100000*%
%TD*%
%TA.AperFunction,SMDPad,CuDef*%
%ADD12C,20.000000*%
%TD*%
%TA.AperFunction,SMDPad,CuDef*%
%ADD13R,6.000000X5.500000*%
%TD*%
%TA.AperFunction,SMDPad,CuDef*%
%ADD14R,0.800000X1.000000*%
%TD*%
%TA.AperFunction,SMDPad,CuDef*%
%ADD15R,1.500000X0.700000*%
%TD*%
%TA.AperFunction,SMDPad,CuDef*%
%ADD16R,1.000000X1.000000*%
%TD*%
%TA.AperFunction,ViaPad*%
%ADD17C,0.600000*%
%TD*%
%TA.AperFunction,Conductor*%
%ADD18C,1.000000*%
%TD*%
%TA.AperFunction,Conductor*%
%ADD19C,0.250000*%
%TD*%
%TA.AperFunction,Conductor*%
%ADD20C,0.254000*%
%TD*%
%TA.AperFunction,Conductor*%
%ADD21C,0.100000*%
%TD*%
G04 APERTURE END LIST*
%TO.P,C1,2*%
%TO.N,GND*%
%TA.AperFunction,SMDPad,CuDef*%
G36*
G01*
X67750000Y-61695000D02*
X67750000Y-61355000D01*
G75*
G02*
X67890000Y-61215000I140000J0D01*
G01*
X68170000Y-61215000D01*
G75*
G02*
X68310000Y-61355000I0J-140000D01*
G01*
X68310000Y-61695000D01*
G75*
G02*
X68170000Y-61835000I-140000J0D01*
G01*
X67890000Y-61835000D01*
G75*
G02*
X67750000Y-61695000I0J140000D01*
G01*
G37*
%TD.AperFunction*%
%TO.P,C1,1*%
%TO.N,+3V0*%
%TA.AperFunction,SMDPad,CuDef*%
G36*
G01*
X66790000Y-61695000D02*
X66790000Y-61355000D01*
G75*
G02*
X66930000Y-61215000I140000J0D01*
G01*
X67210000Y-61215000D01*
G75*
G02*
X67350000Y-61355000I0J-140000D01*
G01*
X67350000Y-61695000D01*
G75*
G02*
X67210000Y-61835000I-140000J0D01*
G01*
X66930000Y-61835000D01*
G75*
G02*
X66790000Y-61695000I0J140000D01*
G01*
G37*
%TD.AperFunction*%
%TD*%
D10*
%TO.P,PA2,2*%
%TO.N,PA2*%
X37000000Y-62950000D03*
%TA.AperFunction,SMDPad,CuDef*%
D11*
%TO.P,PA2,3*%
%TO.N,LIS3DH_INT2*%
G36*
X36250602Y-61650000D02*
G01*
X36250602Y-61625466D01*
X36255412Y-61576635D01*
X36264984Y-61528510D01*
X36279228Y-61481555D01*
X36298005Y-61436222D01*
X36321136Y-61392949D01*
X36348396Y-61352150D01*
X36379524Y-61314221D01*
X36414221Y-61279524D01*
X36452150Y-61248396D01*
X36492949Y-61221136D01*
X36536222Y-61198005D01*
X36581555Y-61179228D01*
X36628510Y-61164984D01*
X36676635Y-61155412D01*
X36725466Y-61150602D01*
X36750000Y-61150602D01*
X36750000Y-61150000D01*
X37250000Y-61150000D01*
X37250000Y-61150602D01*
X37274534Y-61150602D01*
X37323365Y-61155412D01*
X37371490Y-61164984D01*
X37418445Y-61179228D01*
X37463778Y-61198005D01*
X37507051Y-61221136D01*
X37547850Y-61248396D01*
X37585779Y-61279524D01*
X37620476Y-61314221D01*
X37651604Y-61352150D01*
X37678864Y-61392949D01*
X37701995Y-61436222D01*
X37720772Y-61481555D01*
X37735016Y-61528510D01*
X37744588Y-61576635D01*
X37749398Y-61625466D01*
X37749398Y-61650000D01*
X37750000Y-61650000D01*
X37750000Y-62200000D01*
X36250000Y-62200000D01*
X36250000Y-61650000D01*
X36250602Y-61650000D01*
G37*
%TD.AperFunction*%
%TA.AperFunction,SMDPad,CuDef*%
%TO.P,PA2,1*%
%TO.N,TOUCH_KEY_1*%
G36*
X37750000Y-63700000D02*
G01*
X37750000Y-64250000D01*
X37749398Y-64250000D01*
X37749398Y-64274534D01*
X37744588Y-64323365D01*
X37735016Y-64371490D01*
X37720772Y-64418445D01*
X37701995Y-64463778D01*
X37678864Y-64507051D01*
X37651604Y-64547850D01*
X37620476Y-64585779D01*
X37585779Y-64620476D01*
X37547850Y-64651604D01*
X37507051Y-64678864D01*
X37463778Y-64701995D01*
X37418445Y-64720772D01*
X37371490Y-64735016D01*
X37323365Y-64744588D01*
X37274534Y-64749398D01*
X37250000Y-64749398D01*
X37250000Y-64750000D01*
X36750000Y-64750000D01*
X36750000Y-64749398D01*
X36725466Y-64749398D01*
X36676635Y-64744588D01*
X36628510Y-64735016D01*
X36581555Y-64720772D01*
X36536222Y-64701995D01*
X36492949Y-64678864D01*
X36452150Y-64651604D01*
X36414221Y-64620476D01*
X36379524Y-64585779D01*
X36348396Y-64547850D01*
X36321136Y-64507051D01*
X36298005Y-64463778D01*
X36279228Y-64418445D01*
X36264984Y-64371490D01*
X36255412Y-64323365D01*
X36250602Y-64274534D01*
X36250602Y-64250000D01*
X36250000Y-64250000D01*
X36250000Y-63700000D01*
X37750000Y-63700000D01*
G37*
%TD.AperFunction*%
%TD*%
D10*
%TO.P,PA1,2*%
%TO.N,PA1*%
X33135000Y-62950000D03*
%TA.AperFunction,SMDPad,CuDef*%
D11*
%TO.P,PA1,3*%
%TO.N,LIS3DH_INT2*%
G36*
X32385602Y-61650000D02*
G01*
X32385602Y-61625466D01*
X32390412Y-61576635D01*
X32399984Y-61528510D01*
X32414228Y-61481555D01*
X32433005Y-61436222D01*
X32456136Y-61392949D01*
X32483396Y-61352150D01*
X32514524Y-61314221D01*
X32549221Y-61279524D01*
X32587150Y-61248396D01*
X32627949Y-61221136D01*
X32671222Y-61198005D01*
X32716555Y-61179228D01*
X32763510Y-61164984D01*
X32811635Y-61155412D01*
X32860466Y-61150602D01*
X32885000Y-61150602D01*
X32885000Y-61150000D01*
X33385000Y-61150000D01*
X33385000Y-61150602D01*
X33409534Y-61150602D01*
X33458365Y-61155412D01*
X33506490Y-61164984D01*
X33553445Y-61179228D01*
X33598778Y-61198005D01*
X33642051Y-61221136D01*
X33682850Y-61248396D01*
X33720779Y-61279524D01*
X33755476Y-61314221D01*
X33786604Y-61352150D01*
X33813864Y-61392949D01*
X33836995Y-61436222D01*
X33855772Y-61481555D01*
X33870016Y-61528510D01*
X33879588Y-61576635D01*
X33884398Y-61625466D01*
X33884398Y-61650000D01*
X33885000Y-61650000D01*
X33885000Y-62200000D01*
X32385000Y-62200000D01*
X32385000Y-61650000D01*
X32385602Y-61650000D01*
G37*
%TD.AperFunction*%
%TA.AperFunction,SMDPad,CuDef*%
%TO.P,PA1,1*%
%TO.N,TOUCH_KEY_1*%
G36*
X33885000Y-63700000D02*
G01*
X33885000Y-64250000D01*
X33884398Y-64250000D01*
X33884398Y-64274534D01*
X33879588Y-64323365D01*
X33870016Y-64371490D01*
X33855772Y-64418445D01*
X33836995Y-64463778D01*
X33813864Y-64507051D01*
X33786604Y-64547850D01*
X33755476Y-64585779D01*
X33720779Y-64620476D01*
X33682850Y-64651604D01*
X33642051Y-64678864D01*
X33598778Y-64701995D01*
X33553445Y-64720772D01*
X33506490Y-64735016D01*
X33458365Y-64744588D01*
X33409534Y-64749398D01*
X33385000Y-64749398D01*
X33385000Y-64750000D01*
X32885000Y-64750000D01*
X32885000Y-64749398D01*
X32860466Y-64749398D01*
X32811635Y-64744588D01*
X32763510Y-64735016D01*
X32716555Y-64720772D01*
X32671222Y-64701995D01*
X32627949Y-64678864D01*
X32587150Y-64651604D01*
X32549221Y-64620476D01*
X32514524Y-64585779D01*
X32483396Y-64547850D01*
X32456136Y-64507051D01*
X32433005Y-64463778D01*
X32414228Y-64418445D01*
X32399984Y-64371490D01*
X32390412Y-64323365D01*
X32385602Y-64274534D01*
X32385602Y-64250000D01*
X32385000Y-64250000D01*
X32385000Y-63700000D01*
X33885000Y-63700000D01*
G37*
%TD.AperFunction*%
%TD*%
D12*
%TO.P,CR2450,2*%
%TO.N,GND*%
X50000000Y-82000000D03*
D13*
%TO.P,CR2450,1*%
%TO.N,VCC*%
X65300000Y-82000000D03*
X34700000Y-82000000D03*
%TD*%
D14*
%TO.P,SW1,*%
%TO.N,*%
X68220000Y-69350000D03*
X68220000Y-76650000D03*
X70430000Y-76650000D03*
X70430000Y-69350000D03*
D15*
%TO.P,SW1,3*%
%TO.N,VCC*%
X67570000Y-75250000D03*
%TO.P,SW1,2*%
%TO.N,Net-(JP1-Pad2)*%
X67570000Y-73750000D03*
%TO.P,SW1,1*%
%TO.N,Net-(SW1-Pad1)*%
X67570000Y-70750000D03*
%TD*%
%TA.AperFunction,SMDPad,CuDef*%
D11*
%TO.P,RST,2*%
%TO.N,TCA6416A_RESET*%
G36*
X32170000Y-76869398D02*
G01*
X32145466Y-76869398D01*
X32096635Y-76864588D01*
X32048510Y-76855016D01*
X32001555Y-76840772D01*
X31956222Y-76821995D01*
X31912949Y-76798864D01*
X31872150Y-76771604D01*
X31834221Y-76740476D01*
X31799524Y-76705779D01*
X31768396Y-76667850D01*
X31741136Y-76627051D01*
X31718005Y-76583778D01*
X31699228Y-76538445D01*
X31684984Y-76491490D01*
X31675412Y-76443365D01*
X31670602Y-76394534D01*
X31670602Y-76370000D01*
X31670000Y-76370000D01*
X31670000Y-75870000D01*
X31670602Y-75870000D01*
X31670602Y-75845466D01*
X31675412Y-75796635D01*
X31684984Y-75748510D01*
X31699228Y-75701555D01*
X31718005Y-75656222D01*
X31741136Y-75612949D01*
X31768396Y-75572150D01*
X31799524Y-75534221D01*
X31834221Y-75499524D01*
X31872150Y-75468396D01*
X31912949Y-75441136D01*
X31956222Y-75418005D01*
X32001555Y-75399228D01*
X32048510Y-75384984D01*
X32096635Y-75375412D01*
X32145466Y-75370602D01*
X32170000Y-75370602D01*
X32170000Y-75370000D01*
X32670000Y-75370000D01*
X32670000Y-76870000D01*
X32170000Y-76870000D01*
X32170000Y-76869398D01*
G37*
%TD.AperFunction*%
%TA.AperFunction,SMDPad,CuDef*%
%TO.P,RST,1*%
%TO.N,Net-(JP3-Pad1)*%
G36*
X32970000Y-75370000D02*
G01*
X33470000Y-75370000D01*
X33470000Y-75370602D01*
X33494534Y-75370602D01*
X33543365Y-75375412D01*
X33591490Y-75384984D01*
X33638445Y-75399228D01*
X33683778Y-75418005D01*
X33727051Y-75441136D01*
X33767850Y-75468396D01*
X33805779Y-75499524D01*
X33840476Y-75534221D01*
X33871604Y-75572150D01*
X33898864Y-75612949D01*
X33921995Y-75656222D01*
X33940772Y-75701555D01*
X33955016Y-75748510D01*
X33964588Y-75796635D01*
X33969398Y-75845466D01*
X33969398Y-75870000D01*
X33970000Y-75870000D01*
X33970000Y-76370000D01*
X33969398Y-76370000D01*
X33969398Y-76394534D01*
X33964588Y-76443365D01*
X33955016Y-76491490D01*
X33940772Y-76538445D01*
X33921995Y-76583778D01*
X33898864Y-76627051D01*
X33871604Y-76667850D01*
X33840476Y-76705779D01*
X33805779Y-76740476D01*
X33767850Y-76771604D01*
X33727051Y-76798864D01*
X33683778Y-76821995D01*
X33638445Y-76840772D01*
X33591490Y-76855016D01*
X33543365Y-76864588D01*
X33494534Y-76869398D01*
X33470000Y-76869398D01*
X33470000Y-76870000D01*
X32970000Y-76870000D01*
X32970000Y-75370000D01*
G37*
%TD.AperFunction*%
%TD*%
%TO.P,C0,2*%
%TO.N,GND*%
%TA.AperFunction,SMDPad,CuDef*%
G36*
G01*
X67462500Y-65100002D02*
X67462500Y-62899998D01*
G75*
G02*
X67712498Y-62650000I249998J0D01*
G01*
X68537502Y-62650000D01*
G75*
G02*
X68787500Y-62899998I0J-249998D01*
G01*
X68787500Y-65100002D01*
G75*
G02*
X68537502Y-65350000I-249998J0D01*
G01*
X67712498Y-65350000D01*
G75*
G02*
X67462500Y-65100002I0J249998D01*
G01*
G37*
%TD.AperFunction*%
%TO.P,C0,1*%
%TO.N,+3V0*%
%TA.AperFunction,SMDPad,CuDef*%
G36*
G01*
X64337500Y-65100002D02*
X64337500Y-62899998D01*
G75*
G02*
X64587498Y-62650000I249998J0D01*
G01*
X65412502Y-62650000D01*
G75*
G02*
X65662500Y-62899998I0J-249998D01*
G01*
X65662500Y-65100002D01*
G75*
G02*
X65412502Y-65350000I-249998J0D01*
G01*
X64587498Y-65350000D01*
G75*
G02*
X64337500Y-65100002I0J249998D01*
G01*
G37*
%TD.AperFunction*%
%TD*%
D16*
%TO.P,J4,1*%
%TO.N,GND*%
X32170000Y-73820000D03*
%TD*%
%TO.P,J3,1*%
%TO.N,SWDCLK*%
X32170000Y-69820000D03*
%TD*%
%TO.P,J2,1*%
%TO.N,SWDIO*%
X32170000Y-71820000D03*
%TD*%
%TO.P,J1,1*%
%TO.N,+3V0*%
X32170000Y-67820000D03*
%TD*%
%TO.P,R24,2*%
%TO.N,+3V0*%
%TA.AperFunction,SMDPad,CuDef*%
G36*
G01*
X32720000Y-77860000D02*
X32720000Y-78230000D01*
G75*
G02*
X32585000Y-78365000I-135000J0D01*
G01*
X32315000Y-78365000D01*
G75*
G02*
X32180000Y-78230000I0J135000D01*
G01*
X32180000Y-77860000D01*
G75*
G02*
X32315000Y-77725000I135000J0D01*
G01*
X32585000Y-77725000D01*
G75*
G02*
X32720000Y-77860000I0J-135000D01*
G01*
G37*
%TD.AperFunction*%
%TO.P,R24,1*%
%TO.N,TCA6416A_RESET*%
%TA.AperFunction,SMDPad,CuDef*%
G36*
G01*
X33740000Y-77860000D02*
X33740000Y-78230000D01*
G75*
G02*
X33605000Y-78365000I-135000J0D01*
G01*
X33335000Y-78365000D01*
G75*
G02*
X33200000Y-78230000I0J135000D01*
G01*
X33200000Y-77860000D01*
G75*
G02*
X33335000Y-77725000I135000J0D01*
G01*
X33605000Y-77725000D01*
G75*
G02*
X33740000Y-77860000I0J-135000D01*
G01*
G37*
%TD.AperFunction*%
%TD*%
%TA.AperFunction,SMDPad,CuDef*%
D11*
%TO.P,JP2,2*%
%TO.N,+3V0*%
G36*
X64250602Y-68100000D02*
G01*
X64250602Y-68075466D01*
X64255412Y-68026635D01*
X64264984Y-67978510D01*
X64279228Y-67931555D01*
X64298005Y-67886222D01*
X64321136Y-67842949D01*
X64348396Y-67802150D01*
X64379524Y-67764221D01*
X64414221Y-67729524D01*
X64452150Y-67698396D01*
X64492949Y-67671136D01*
X64536222Y-67648005D01*
X64581555Y-67629228D01*
X64628510Y-67614984D01*
X64676635Y-67605412D01*
X64725466Y-67600602D01*
X64750000Y-67600602D01*
X64750000Y-67600000D01*
X65250000Y-67600000D01*
X65250000Y-67600602D01*
X65274534Y-67600602D01*
X65323365Y-67605412D01*
X65371490Y-67614984D01*
X65418445Y-67629228D01*
X65463778Y-67648005D01*
X65507051Y-67671136D01*
X65547850Y-67698396D01*
X65585779Y-67729524D01*
X65620476Y-67764221D01*
X65651604Y-67802150D01*
X65678864Y-67842949D01*
X65701995Y-67886222D01*
X65720772Y-67931555D01*
X65735016Y-67978510D01*
X65744588Y-68026635D01*
X65749398Y-68075466D01*
X65749398Y-68100000D01*
X65750000Y-68100000D01*
X65750000Y-68600000D01*
X64250000Y-68600000D01*
X64250000Y-68100000D01*
X64250602Y-68100000D01*
G37*
%TD.AperFunction*%
%TA.AperFunction,SMDPad,CuDef*%
%TO.P,JP2,1*%
%TO.N,Net-(JP1-Pad2)*%
G36*
X65750000Y-68900000D02*
G01*
X65750000Y-69400000D01*
X65749398Y-69400000D01*
X65749398Y-69424534D01*
X65744588Y-69473365D01*
X65735016Y-69521490D01*
X65720772Y-69568445D01*
X65701995Y-69613778D01*
X65678864Y-69657051D01*
X65651604Y-69697850D01*
X65620476Y-69735779D01*
X65585779Y-69770476D01*
X65547850Y-69801604D01*
X65507051Y-69828864D01*
X65463778Y-69851995D01*
X65418445Y-69870772D01*
X65371490Y-69885016D01*
X65323365Y-69894588D01*
X65274534Y-69899398D01*
X65250000Y-69899398D01*
X65250000Y-69900000D01*
X64750000Y-69900000D01*
X64750000Y-69899398D01*
X64725466Y-69899398D01*
X64676635Y-69894588D01*
X64628510Y-69885016D01*
X64581555Y-69870772D01*
X64536222Y-69851995D01*
X64492949Y-69828864D01*
X64452150Y-69801604D01*
X64414221Y-69770476D01*
X64379524Y-69735779D01*
X64348396Y-69697850D01*
X64321136Y-69657051D01*
X64298005Y-69613778D01*
X64279228Y-69568445D01*
X64264984Y-69521490D01*
X64255412Y-69473365D01*
X64250602Y-69424534D01*
X64250602Y-69400000D01*
X64250000Y-69400000D01*
X64250000Y-68900000D01*
X65750000Y-68900000D01*
G37*
%TD.AperFunction*%
%TD*%
%TA.AperFunction,SMDPad,CuDef*%
%TO.P,JP1,2*%
%TO.N,Net-(JP1-Pad2)*%
G36*
X64250602Y-72950000D02*
G01*
X64250602Y-72925466D01*
X64255412Y-72876635D01*
X64264984Y-72828510D01*
X64279228Y-72781555D01*
X64298005Y-72736222D01*
X64321136Y-72692949D01*
X64348396Y-72652150D01*
X64379524Y-72614221D01*
X64414221Y-72579524D01*
X64452150Y-72548396D01*
X64492949Y-72521136D01*
X64536222Y-72498005D01*
X64581555Y-72479228D01*
X64628510Y-72464984D01*
X64676635Y-72455412D01*
X64725466Y-72450602D01*
X64750000Y-72450602D01*
X64750000Y-72450000D01*
X65250000Y-72450000D01*
X65250000Y-72450602D01*
X65274534Y-72450602D01*
X65323365Y-72455412D01*
X65371490Y-72464984D01*
X65418445Y-72479228D01*
X65463778Y-72498005D01*
X65507051Y-72521136D01*
X65547850Y-72548396D01*
X65585779Y-72579524D01*
X65620476Y-72614221D01*
X65651604Y-72652150D01*
X65678864Y-72692949D01*
X65701995Y-72736222D01*
X65720772Y-72781555D01*
X65735016Y-72828510D01*
X65744588Y-72876635D01*
X65749398Y-72925466D01*
X65749398Y-72950000D01*
X65750000Y-72950000D01*
X65750000Y-73450000D01*
X64250000Y-73450000D01*
X64250000Y-72950000D01*
X64250602Y-72950000D01*
G37*
%TD.AperFunction*%
%TA.AperFunction,SMDPad,CuDef*%
%TO.P,JP1,1*%
%TO.N,VCC*%
G36*
X65750000Y-73750000D02*
G01*
X65750000Y-74250000D01*
X65749398Y-74250000D01*
X65749398Y-74274534D01*
X65744588Y-74323365D01*
X65735016Y-74371490D01*
X65720772Y-74418445D01*
X65701995Y-74463778D01*
X65678864Y-74507051D01*
X65651604Y-74547850D01*
X65620476Y-74585779D01*
X65585779Y-74620476D01*
X65547850Y-74651604D01*
X65507051Y-74678864D01*
X65463778Y-74701995D01*
X65418445Y-74720772D01*
X65371490Y-74735016D01*
X65323365Y-74744588D01*
X65274534Y-74749398D01*
X65250000Y-74749398D01*
X65250000Y-74750000D01*
X64750000Y-74750000D01*
X64750000Y-74749398D01*
X64725466Y-74749398D01*
X64676635Y-74744588D01*
X64628510Y-74735016D01*
X64581555Y-74720772D01*
X64536222Y-74701995D01*
X64492949Y-74678864D01*
X64452150Y-74651604D01*
X64414221Y-74620476D01*
X64379524Y-74585779D01*
X64348396Y-74547850D01*
X64321136Y-74507051D01*
X64298005Y-74463778D01*
X64279228Y-74418445D01*
X64264984Y-74371490D01*
X64255412Y-74323365D01*
X64250602Y-74274534D01*
X64250602Y-74250000D01*
X64250000Y-74250000D01*
X64250000Y-73750000D01*
X65750000Y-73750000D01*
G37*
%TD.AperFunction*%
%TD*%
D17*
%TO.N,GND*%
X58900000Y-69000000D03*
X44725000Y-85500000D03*
X45500000Y-81500000D03*
X54320000Y-75880000D03*
X42020000Y-68100000D03*
X54980000Y-68650000D03*
X57980000Y-71075000D03*
X45000000Y-89980000D03*
X53000000Y-89975000D03*
X62875000Y-66225000D03*
X62150000Y-66250000D03*
X66350000Y-66250000D03*
X67100000Y-66250000D03*
X55400000Y-86000000D03*
X48780000Y-87040000D03*
X52160000Y-83470000D03*
%TO.N,+3V0*%
X56075000Y-69750000D03*
X32175000Y-66675000D03*
X66850000Y-60325000D03*
X67550000Y-60325000D03*
X68250000Y-60325000D03*
X68250000Y-59650000D03*
X67550000Y-59650000D03*
X66850000Y-59650000D03*
X55000000Y-60075000D03*
X60000000Y-58075000D03*
X65000000Y-58275000D03*
X70000000Y-63075000D03*
X70000000Y-71575000D03*
X62500000Y-85575000D03*
X57500000Y-90575000D03*
X42500000Y-90575000D03*
X37500000Y-85575000D03*
X30000000Y-71575000D03*
X30000000Y-63075000D03*
X35000000Y-58275000D03*
X40000000Y-58075000D03*
X45000000Y-60075000D03*
X30500000Y-81725000D03*
X69250000Y-81700000D03*
X43175000Y-68100000D03*
X57020000Y-70350000D03*
X58900000Y-66510000D03*
X44180000Y-72770000D03*
X41300000Y-89020000D03*
X58670000Y-88350000D03*
X31020000Y-78040000D03*
%TO.N,SWDIO*%
X50650000Y-65225000D03*
X33830000Y-71790000D03*
%TO.N,SWDCLK*%
X51450000Y-64575000D03*
X34360000Y-68420000D03*
%TO.N,TCA6416A_RESET*%
X43190000Y-73730000D03*
X34740000Y-78040000D03*
%TO.N,Net-(JP3-Pad1)*%
X34730000Y-76120000D03*
X54270000Y-71380000D03*
%TO.N,I2C_SCL*%
X50675000Y-66525000D03*
X60200000Y-89860000D03*
X50688397Y-68708397D03*
%TO.N,I2C_SDA*%
X51450000Y-65875000D03*
X59780000Y-89030000D03*
X51360000Y-71380000D03*
X49790000Y-69810000D03*
%TO.N,LIS3DH_INT2*%
X59720000Y-87370000D03*
X38640000Y-61640000D03*
%TO.N,LIS3DH_INT1*%
X45675000Y-67825000D03*
X60400000Y-86530000D03*
%TO.N,TOUCH_KEY_1*%
X45330000Y-92290000D03*
X38660000Y-64260000D03*
%TO.N,PA1*%
X45000000Y-68475000D03*
X31450000Y-62960000D03*
%TO.N,PA2*%
X44175000Y-69125000D03*
X38650000Y-62950000D03*
%TD*%
D18*
%TO.N,+3V0*%
X65000000Y-68100000D02*
X65000000Y-64000000D01*
X66775000Y-62225000D02*
X66775000Y-61525000D01*
X65000000Y-64000000D02*
X66775000Y-62225000D01*
D19*
X32175000Y-67815000D02*
X32170000Y-67820000D01*
X32175000Y-66675000D02*
X32175000Y-67815000D01*
X32450000Y-78045000D02*
X31020000Y-78040000D01*
X31020000Y-78040000D02*
X31025000Y-78045000D01*
%TO.N,SWDIO*%
X32170000Y-71820000D02*
X33830000Y-71790000D01*
X33830000Y-71790000D02*
X33800000Y-71820000D01*
%TO.N,SWDCLK*%
X32170000Y-69820000D02*
X32170000Y-69800000D01*
X32170000Y-69800000D02*
X32980000Y-69800000D01*
X32980000Y-69800000D02*
X34360000Y-68420000D01*
X34360000Y-68420000D02*
X34360000Y-68420000D01*
%TO.N,TCA6416A_RESET*%
X32170000Y-76867592D02*
X32170000Y-76120000D01*
X32652408Y-77350000D02*
X32170000Y-76867592D01*
X33280000Y-77350000D02*
X32652408Y-77350000D01*
X33470000Y-77540000D02*
X33280000Y-77350000D01*
X33470000Y-78045000D02*
X33470000Y-77540000D01*
X33470000Y-78045000D02*
X34740000Y-78040000D01*
X34740000Y-78040000D02*
X34735000Y-78045000D01*
%TO.N,Net-(JP3-Pad1)*%
X33470000Y-76120000D02*
X34730000Y-76120000D01*
X34730000Y-76120000D02*
X34730000Y-76120000D01*
%TO.N,I2C_SDA*%
X51360000Y-71380000D02*
X49790000Y-69810000D01*
%TO.N,LIS3DH_INT2*%
X33135000Y-61650000D02*
X37000000Y-61650000D01*
X37000000Y-61650000D02*
X37110000Y-61650000D01*
X37110000Y-61650000D02*
X37120000Y-61640000D01*
X37000000Y-61650000D02*
X38640000Y-61640000D01*
X38640000Y-61640000D02*
X38620000Y-61650000D01*
%TO.N,TOUCH_KEY_1*%
X33135000Y-64250000D02*
X37000000Y-64250000D01*
X37000000Y-64250000D02*
X38660000Y-64260000D01*
X38660000Y-64260000D02*
X38650000Y-64250000D01*
%TO.N,PA1*%
X33135000Y-62950000D02*
X31450000Y-62960000D01*
X31450000Y-62960000D02*
X31460000Y-62950000D01*
%TO.N,PA2*%
X37000000Y-62950000D02*
X38650000Y-62950000D01*
X38650000Y-62950000D02*
X38650000Y-62950000D01*
%TD*%
D20*
%TO.N,VCC*%
X66204774Y-74259380D02*
X66230498Y-74344180D01*
X66289463Y-74454494D01*
X66368815Y-74551185D01*
X66465506Y-74630537D01*
X66575820Y-74689502D01*
X66660620Y-74715226D01*
X66735197Y-74789803D01*
X66754443Y-74805597D01*
X66776399Y-74817333D01*
X66800224Y-74824560D01*
X66825000Y-74827000D01*
X68272394Y-74827000D01*
X68398000Y-74952606D01*
X68398000Y-75511928D01*
X67820000Y-75511928D01*
X67695518Y-75524188D01*
X67575820Y-75560498D01*
X67465506Y-75619463D01*
X67368815Y-75698815D01*
X67289463Y-75795506D01*
X67248784Y-75871610D01*
X67210197Y-75910197D01*
X67194403Y-75929443D01*
X67182667Y-75951399D01*
X67175440Y-75975224D01*
X67173000Y-76000000D01*
X67173000Y-77250000D01*
X67175440Y-77274776D01*
X67182667Y-77298601D01*
X67194403Y-77320557D01*
X67210197Y-77339803D01*
X67215660Y-77345266D01*
X67230498Y-77394180D01*
X67289463Y-77504494D01*
X67368815Y-77601185D01*
X67465506Y-77680537D01*
X67575820Y-77739502D01*
X67624734Y-77754340D01*
X68173000Y-78302606D01*
X68173000Y-83823000D01*
X62427000Y-83823000D01*
X62427000Y-75752606D01*
X64108850Y-74070756D01*
X64125518Y-74075812D01*
X64250000Y-74088072D01*
X65750000Y-74088072D01*
X65874482Y-74075812D01*
X65987057Y-74041663D01*
X66204774Y-74259380D01*
%TA.AperFunction,Conductor*%
D21*
G36*
X66204774Y-74259380D02*
G01*
X66230498Y-74344180D01*
X66289463Y-74454494D01*
X66368815Y-74551185D01*
X66465506Y-74630537D01*
X66575820Y-74689502D01*
X66660620Y-74715226D01*
X66735197Y-74789803D01*
X66754443Y-74805597D01*
X66776399Y-74817333D01*
X66800224Y-74824560D01*
X66825000Y-74827000D01*
X68272394Y-74827000D01*
X68398000Y-74952606D01*
X68398000Y-75511928D01*
X67820000Y-75511928D01*
X67695518Y-75524188D01*
X67575820Y-75560498D01*
X67465506Y-75619463D01*
X67368815Y-75698815D01*
X67289463Y-75795506D01*
X67248784Y-75871610D01*
X67210197Y-75910197D01*
X67194403Y-75929443D01*
X67182667Y-75951399D01*
X67175440Y-75975224D01*
X67173000Y-76000000D01*
X67173000Y-77250000D01*
X67175440Y-77274776D01*
X67182667Y-77298601D01*
X67194403Y-77320557D01*
X67210197Y-77339803D01*
X67215660Y-77345266D01*
X67230498Y-77394180D01*
X67289463Y-77504494D01*
X67368815Y-77601185D01*
X67465506Y-77680537D01*
X67575820Y-77739502D01*
X67624734Y-77754340D01*
X68173000Y-78302606D01*
X68173000Y-83823000D01*
X62427000Y-83823000D01*
X62427000Y-75752606D01*
X64108850Y-74070756D01*
X64125518Y-74075812D01*
X64250000Y-74088072D01*
X65750000Y-74088072D01*
X65874482Y-74075812D01*
X65987057Y-74041663D01*
X66204774Y-74259380D01*
G37*
%TD.AperFunction*%
%TD*%
D20*
%TO.N,Net-(JP1-Pad2)*%
X65000000Y-69240491D02*
X65024561Y-69238072D01*
X65623000Y-69238072D01*
X65623000Y-70825000D01*
X65625440Y-70849776D01*
X65632667Y-70873601D01*
X65644403Y-70895557D01*
X65660197Y-70914803D01*
X68198000Y-73452606D01*
X68198000Y-73971677D01*
X67405049Y-73963460D01*
X66299230Y-73080745D01*
X66278344Y-73067195D01*
X66255216Y-73057980D01*
X66220000Y-73053000D01*
X64750670Y-73053000D01*
X64377000Y-73049263D01*
X64377000Y-69238072D01*
X64975439Y-69238072D01*
X65000000Y-69240491D01*
%TA.AperFunction,Conductor*%
D21*
G36*
X65000000Y-69240491D02*
G01*
X65024561Y-69238072D01*
X65623000Y-69238072D01*
X65623000Y-70825000D01*
X65625440Y-70849776D01*
X65632667Y-70873601D01*
X65644403Y-70895557D01*
X65660197Y-70914803D01*
X68198000Y-73452606D01*
X68198000Y-73971677D01*
X67405049Y-73963460D01*
X66299230Y-73080745D01*
X66278344Y-73067195D01*
X66255216Y-73057980D01*
X66220000Y-73053000D01*
X64750670Y-73053000D01*
X64377000Y-73049263D01*
X64377000Y-69238072D01*
X64975439Y-69238072D01*
X65000000Y-69240491D01*
G37*
%TD.AperFunction*%
%TD*%
D20*
%TO.N,+3V0*%
X68873000Y-59802606D02*
X68873000Y-60247394D01*
X68497394Y-60623000D01*
X68424389Y-60623000D01*
X68321794Y-60591878D01*
X68170000Y-60576928D01*
X67890000Y-60576928D01*
X67738206Y-60591878D01*
X67635611Y-60623000D01*
X67600000Y-60623000D01*
X67575224Y-60625440D01*
X67551399Y-60632667D01*
X67529443Y-60644403D01*
X67510197Y-60660197D01*
X67467632Y-60702762D01*
X67457726Y-60708057D01*
X67339820Y-60804820D01*
X67243057Y-60922726D01*
X67237762Y-60932632D01*
X67185197Y-60985197D01*
X67169403Y-61004443D01*
X67157667Y-61026399D01*
X67150440Y-61050224D01*
X67148002Y-61075770D01*
X67148345Y-61132438D01*
X67126878Y-61203206D01*
X67111928Y-61355000D01*
X67111928Y-61695000D01*
X67119610Y-61773000D01*
X66386411Y-61773000D01*
X66377245Y-59802361D01*
X66802606Y-59377000D01*
X68447394Y-59377000D01*
X68873000Y-59802606D01*
%TA.AperFunction,Conductor*%
D21*
G36*
X68873000Y-59802606D02*
G01*
X68873000Y-60247394D01*
X68497394Y-60623000D01*
X68424389Y-60623000D01*
X68321794Y-60591878D01*
X68170000Y-60576928D01*
X67890000Y-60576928D01*
X67738206Y-60591878D01*
X67635611Y-60623000D01*
X67600000Y-60623000D01*
X67575224Y-60625440D01*
X67551399Y-60632667D01*
X67529443Y-60644403D01*
X67510197Y-60660197D01*
X67467632Y-60702762D01*
X67457726Y-60708057D01*
X67339820Y-60804820D01*
X67243057Y-60922726D01*
X67237762Y-60932632D01*
X67185197Y-60985197D01*
X67169403Y-61004443D01*
X67157667Y-61026399D01*
X67150440Y-61050224D01*
X67148002Y-61075770D01*
X67148345Y-61132438D01*
X67126878Y-61203206D01*
X67111928Y-61355000D01*
X67111928Y-61695000D01*
X67119610Y-61773000D01*
X66386411Y-61773000D01*
X66377245Y-59802361D01*
X66802606Y-59377000D01*
X68447394Y-59377000D01*
X68873000Y-59802606D01*
G37*
%TD.AperFunction*%
%TD*%
D20*
%TO.N,GND*%
X39686509Y-56560314D02*
X40959106Y-56837785D01*
X42191367Y-57259682D01*
X43366970Y-57820416D01*
X44470333Y-58512555D01*
X45494651Y-59333188D01*
X45586270Y-59416652D01*
X45590987Y-59420476D01*
X45593203Y-59422816D01*
X45597297Y-59426321D01*
X45657555Y-59477164D01*
X45677838Y-59491134D01*
X45697116Y-59506438D01*
X45701663Y-59509330D01*
X45850547Y-59602529D01*
X45881878Y-59618113D01*
X45912976Y-59634127D01*
X45917999Y-59636081D01*
X46082150Y-59698587D01*
X46115966Y-59707804D01*
X46149526Y-59717456D01*
X46154832Y-59718397D01*
X46327998Y-59747829D01*
X46362927Y-59750299D01*
X46397758Y-59753252D01*
X46403146Y-59753144D01*
X46578731Y-59748380D01*
X46613452Y-59744022D01*
X46648211Y-59740151D01*
X46653473Y-59738999D01*
X46653478Y-59738998D01*
X46653482Y-59738997D01*
X46824792Y-59700221D01*
X46858009Y-59689201D01*
X46891354Y-59678653D01*
X46896294Y-59676500D01*
X47056815Y-59605186D01*
X47087257Y-59587925D01*
X47117919Y-59571100D01*
X47122347Y-59568028D01*
X47265959Y-59466894D01*
X47292470Y-59444048D01*
X47319280Y-59421588D01*
X47323020Y-59417721D01*
X47323026Y-59417716D01*
X47323030Y-59417711D01*
X47444192Y-59290682D01*
X47444260Y-59290612D01*
X47903070Y-58809588D01*
X48415630Y-58448634D01*
X48988542Y-58194109D01*
X49599972Y-58055713D01*
X50226641Y-58038712D01*
X50844686Y-58143758D01*
X51430544Y-58366844D01*
X51961925Y-58699480D01*
X52428565Y-59138392D01*
X52537637Y-59270239D01*
X52538013Y-59270613D01*
X52538310Y-59271050D01*
X52541785Y-59275169D01*
X52593047Y-59335070D01*
X52610811Y-59352131D01*
X52627368Y-59370348D01*
X52631390Y-59373936D01*
X52763282Y-59489941D01*
X52791693Y-59510381D01*
X52819792Y-59531198D01*
X52824433Y-59533936D01*
X52976345Y-59622114D01*
X53008174Y-59636642D01*
X53039794Y-59651610D01*
X53044879Y-59653395D01*
X53211026Y-59710387D01*
X53245118Y-59718467D01*
X53278995Y-59726997D01*
X53284329Y-59727760D01*
X53458380Y-59751395D01*
X53493368Y-59752698D01*
X53528279Y-59754487D01*
X53533660Y-59754199D01*
X53533662Y-59754199D01*
X53708988Y-59743578D01*
X53743585Y-59738057D01*
X53778161Y-59733033D01*
X53783384Y-59731706D01*
X53953310Y-59687230D01*
X53986139Y-59675108D01*
X54019112Y-59663453D01*
X54023978Y-59661136D01*
X54182029Y-59584504D01*
X54211871Y-59566240D01*
X54241963Y-59548397D01*
X54246285Y-59545179D01*
X54386441Y-59439307D01*
X54387339Y-59438479D01*
X54389120Y-59437266D01*
X54398614Y-59429722D01*
X55422774Y-58589459D01*
X56326280Y-58007927D01*
X59319000Y-58007927D01*
X59319000Y-58142073D01*
X59345171Y-58273640D01*
X59396506Y-58397574D01*
X59471033Y-58509112D01*
X59565888Y-58603967D01*
X59677426Y-58678494D01*
X59801360Y-58729829D01*
X59932927Y-58756000D01*
X60067073Y-58756000D01*
X60198640Y-58729829D01*
X60322574Y-58678494D01*
X60434112Y-58603967D01*
X60528967Y-58509112D01*
X60603494Y-58397574D01*
X60654829Y-58273640D01*
X60667900Y-58207927D01*
X64319000Y-58207927D01*
X64319000Y-58342073D01*
X64345171Y-58473640D01*
X64396506Y-58597574D01*
X64471033Y-58709112D01*
X64565888Y-58803967D01*
X64677426Y-58878494D01*
X64801360Y-58929829D01*
X64932927Y-58956000D01*
X65067073Y-58956000D01*
X65198640Y-58929829D01*
X65322574Y-58878494D01*
X65434112Y-58803967D01*
X65528967Y-58709112D01*
X65603494Y-58597574D01*
X65654829Y-58473640D01*
X65681000Y-58342073D01*
X65681000Y-58207927D01*
X65654829Y-58076360D01*
X65603494Y-57952426D01*
X65528967Y-57840888D01*
X65434112Y-57746033D01*
X65322574Y-57671506D01*
X65198640Y-57620171D01*
X65067073Y-57594000D01*
X64932927Y-57594000D01*
X64801360Y-57620171D01*
X64677426Y-57671506D01*
X64565888Y-57746033D01*
X64471033Y-57840888D01*
X64396506Y-57952426D01*
X64345171Y-58076360D01*
X64319000Y-58207927D01*
X60667900Y-58207927D01*
X60681000Y-58142073D01*
X60681000Y-58007927D01*
X60654829Y-57876360D01*
X60603494Y-57752426D01*
X60528967Y-57640888D01*
X60434112Y-57546033D01*
X60322574Y-57471506D01*
X60198640Y-57420171D01*
X60067073Y-57394000D01*
X59932927Y-57394000D01*
X59801360Y-57420171D01*
X59677426Y-57471506D01*
X59565888Y-57546033D01*
X59471033Y-57640888D01*
X59396506Y-57752426D01*
X59345171Y-57876360D01*
X59319000Y-58007927D01*
X56326280Y-58007927D01*
X56518011Y-57884522D01*
X57687005Y-57310144D01*
X58914270Y-56873934D01*
X60183546Y-56581670D01*
X61477990Y-56437233D01*
X62780472Y-56442531D01*
X64073696Y-56597497D01*
X65340557Y-56900080D01*
X66564228Y-57346260D01*
X67728517Y-57930134D01*
X68817975Y-58643954D01*
X69818170Y-59478264D01*
X70715848Y-60422009D01*
X71499101Y-61462672D01*
X72157556Y-62586468D01*
X72682479Y-63778495D01*
X73066913Y-65022943D01*
X73305768Y-66303344D01*
X73396567Y-67612699D01*
X73397251Y-67730284D01*
X73334192Y-70068738D01*
X73116899Y-72391397D01*
X72746152Y-74694550D01*
X72223581Y-76968068D01*
X71551487Y-79201944D01*
X70732820Y-81386373D01*
X69771178Y-83511756D01*
X68670804Y-85568714D01*
X67436514Y-87548240D01*
X66073752Y-89441607D01*
X64588510Y-91240491D01*
X62987305Y-92936996D01*
X61277196Y-94523646D01*
X59465684Y-95993478D01*
X57560752Y-97340017D01*
X55570770Y-98557346D01*
X53503974Y-99640383D01*
X51571673Y-100501577D01*
X50811974Y-100731494D01*
X50035024Y-100812304D01*
X49256816Y-100744740D01*
X48489254Y-100526645D01*
X48444131Y-100508597D01*
X46311796Y-99550823D01*
X44251820Y-98456065D01*
X42268949Y-97227206D01*
X40371855Y-95869620D01*
X38568913Y-94389297D01*
X36868041Y-92792740D01*
X36336460Y-92222927D01*
X44649000Y-92222927D01*
X44649000Y-92357073D01*
X44675171Y-92488640D01*
X44726506Y-92612574D01*
X44801033Y-92724112D01*
X44895888Y-92818967D01*
X45007426Y-92893494D01*
X45131360Y-92944829D01*
X45262927Y-92971000D01*
X45397073Y-92971000D01*
X45528640Y-92944829D01*
X45652574Y-92893494D01*
X45764112Y-92818967D01*
X45858967Y-92724112D01*
X45933494Y-92612574D01*
X45984829Y-92488640D01*
X46011000Y-92357073D01*
X46011000Y-92222927D01*
X45984829Y-92091360D01*
X45933494Y-91967426D01*
X45858967Y-91855888D01*
X45764112Y-91761033D01*
X45652574Y-91686506D01*
X45528640Y-91635171D01*
X45397073Y-91609000D01*
X45262927Y-91609000D01*
X45131360Y-91635171D01*
X45007426Y-91686506D01*
X44895888Y-91761033D01*
X44801033Y-91855888D01*
X44726506Y-91967426D01*
X44675171Y-92091360D01*
X44649000Y-92222927D01*
X36336460Y-92222927D01*
X35276726Y-91086976D01*
X34804264Y-90507927D01*
X41819000Y-90507927D01*
X41819000Y-90642073D01*
X41845171Y-90773640D01*
X41896506Y-90897574D01*
X41971033Y-91009112D01*
X42065888Y-91103967D01*
X42177426Y-91178494D01*
X42301360Y-91229829D01*
X42432927Y-91256000D01*
X42567073Y-91256000D01*
X42698640Y-91229829D01*
X42822574Y-91178494D01*
X42934112Y-91103967D01*
X43028967Y-91009112D01*
X43103494Y-90897574D01*
X43154829Y-90773640D01*
X43181000Y-90642073D01*
X43181000Y-90507927D01*
X56819000Y-90507927D01*
X56819000Y-90642073D01*
X56845171Y-90773640D01*
X56896506Y-90897574D01*
X56971033Y-91009112D01*
X57065888Y-91103967D01*
X57177426Y-91178494D01*
X57301360Y-91229829D01*
X57432927Y-91256000D01*
X57567073Y-91256000D01*
X57698640Y-91229829D01*
X57822574Y-91178494D01*
X57934112Y-91103967D01*
X58028967Y-91009112D01*
X58103494Y-90897574D01*
X58154829Y-90773640D01*
X58181000Y-90642073D01*
X58181000Y-90507927D01*
X58154829Y-90376360D01*
X58103494Y-90252426D01*
X58028967Y-90140888D01*
X57934112Y-90046033D01*
X57822574Y-89971506D01*
X57698640Y-89920171D01*
X57567073Y-89894000D01*
X57432927Y-89894000D01*
X57301360Y-89920171D01*
X57177426Y-89971506D01*
X57065888Y-90046033D01*
X56971033Y-90140888D01*
X56896506Y-90252426D01*
X56845171Y-90376360D01*
X56819000Y-90507927D01*
X43181000Y-90507927D01*
X43154829Y-90376360D01*
X43103494Y-90252426D01*
X43028967Y-90140888D01*
X42934112Y-90046033D01*
X42822574Y-89971506D01*
X42698640Y-89920171D01*
X42567073Y-89894000D01*
X42432927Y-89894000D01*
X42301360Y-89920171D01*
X42177426Y-89971506D01*
X42065888Y-90046033D01*
X41971033Y-90140888D01*
X41896506Y-90252426D01*
X41845171Y-90376360D01*
X41819000Y-90507927D01*
X34804264Y-90507927D01*
X33801945Y-89279487D01*
X33569769Y-88952927D01*
X40619000Y-88952927D01*
X40619000Y-89087073D01*
X40645171Y-89218640D01*
X40696506Y-89342574D01*
X40771033Y-89454112D01*
X40865888Y-89548967D01*
X40977426Y-89623494D01*
X41101360Y-89674829D01*
X41232927Y-89701000D01*
X41367073Y-89701000D01*
X41498640Y-89674829D01*
X41622574Y-89623494D01*
X41734112Y-89548967D01*
X41828967Y-89454112D01*
X41903494Y-89342574D01*
X41954829Y-89218640D01*
X41981000Y-89087073D01*
X41981000Y-88952927D01*
X41954829Y-88821360D01*
X41903494Y-88697426D01*
X41828967Y-88585888D01*
X41734112Y-88491033D01*
X41622574Y-88416506D01*
X41498640Y-88365171D01*
X41367073Y-88339000D01*
X41232927Y-88339000D01*
X41101360Y-88365171D01*
X40977426Y-88416506D01*
X40865888Y-88491033D01*
X40771033Y-88585888D01*
X40696506Y-88697426D01*
X40645171Y-88821360D01*
X40619000Y-88952927D01*
X33569769Y-88952927D01*
X33093414Y-88282927D01*
X57989000Y-88282927D01*
X57989000Y-88417073D01*
X58015171Y-88548640D01*
X58066506Y-88672574D01*
X58141033Y-88784112D01*
X58235888Y-88878967D01*
X58347426Y-88953494D01*
X58471360Y-89004829D01*
X58602927Y-89031000D01*
X58737073Y-89031000D01*
X58868640Y-89004829D01*
X58992574Y-88953494D01*
X59104112Y-88878967D01*
X59118579Y-88864500D01*
X59099000Y-88962927D01*
X59099000Y-89097073D01*
X59125171Y-89228640D01*
X59176506Y-89352574D01*
X59251033Y-89464112D01*
X59345888Y-89558967D01*
X59457426Y-89633494D01*
X59543613Y-89669194D01*
X59519000Y-89792927D01*
X59519000Y-89927073D01*
X59545171Y-90058640D01*
X59596506Y-90182574D01*
X59671033Y-90294112D01*
X59765888Y-90388967D01*
X59877426Y-90463494D01*
X60001360Y-90514829D01*
X60132927Y-90541000D01*
X60267073Y-90541000D01*
X60398640Y-90514829D01*
X60522574Y-90463494D01*
X60634112Y-90388967D01*
X60728967Y-90294112D01*
X60803494Y-90182574D01*
X60854829Y-90058640D01*
X60881000Y-89927073D01*
X60881000Y-89792927D01*
X60854829Y-89661360D01*
X60803494Y-89537426D01*
X60728967Y-89425888D01*
X60634112Y-89331033D01*
X60522574Y-89256506D01*
X60436387Y-89220806D01*
X60461000Y-89097073D01*
X60461000Y-88962927D01*
X60434829Y-88831360D01*
X60383494Y-88707426D01*
X60308967Y-88595888D01*
X60214112Y-88501033D01*
X60102574Y-88426506D01*
X59978640Y-88375171D01*
X59847073Y-88349000D01*
X59712927Y-88349000D01*
X59581360Y-88375171D01*
X59457426Y-88426506D01*
X59345888Y-88501033D01*
X59331421Y-88515500D01*
X59351000Y-88417073D01*
X59351000Y-88282927D01*
X59324829Y-88151360D01*
X59273494Y-88027426D01*
X59198967Y-87915888D01*
X59104112Y-87821033D01*
X58992574Y-87746506D01*
X58868640Y-87695171D01*
X58737073Y-87669000D01*
X58602927Y-87669000D01*
X58471360Y-87695171D01*
X58347426Y-87746506D01*
X58235888Y-87821033D01*
X58141033Y-87915888D01*
X58066506Y-88027426D01*
X58015171Y-88151360D01*
X57989000Y-88282927D01*
X33093414Y-88282927D01*
X32450205Y-87378246D01*
X32403847Y-87302927D01*
X59039000Y-87302927D01*
X59039000Y-87437073D01*
X59065171Y-87568640D01*
X59116506Y-87692574D01*
X59191033Y-87804112D01*
X59285888Y-87898967D01*
X59397426Y-87973494D01*
X59521360Y-88024829D01*
X59652927Y-88051000D01*
X59787073Y-88051000D01*
X59918640Y-88024829D01*
X60042574Y-87973494D01*
X60154112Y-87898967D01*
X60248967Y-87804112D01*
X60323494Y-87692574D01*
X60374829Y-87568640D01*
X60401000Y-87437073D01*
X60401000Y-87302927D01*
X60382714Y-87211000D01*
X60467073Y-87211000D01*
X60598640Y-87184829D01*
X60722574Y-87133494D01*
X60834112Y-87058967D01*
X60928967Y-86964112D01*
X61003494Y-86852574D01*
X61054829Y-86728640D01*
X61081000Y-86597073D01*
X61081000Y-86462927D01*
X61054829Y-86331360D01*
X61003494Y-86207426D01*
X60928967Y-86095888D01*
X60834112Y-86001033D01*
X60722574Y-85926506D01*
X60598640Y-85875171D01*
X60467073Y-85849000D01*
X60332927Y-85849000D01*
X60201360Y-85875171D01*
X60077426Y-85926506D01*
X59965888Y-86001033D01*
X59871033Y-86095888D01*
X59796506Y-86207426D01*
X59745171Y-86331360D01*
X59719000Y-86462927D01*
X59719000Y-86597073D01*
X59737286Y-86689000D01*
X59652927Y-86689000D01*
X59521360Y-86715171D01*
X59397426Y-86766506D01*
X59285888Y-86841033D01*
X59191033Y-86935888D01*
X59116506Y-87047426D01*
X59065171Y-87171360D01*
X59039000Y-87302927D01*
X32403847Y-87302927D01*
X31227440Y-85391601D01*
X30139015Y-83328262D01*
X29394916Y-81657927D01*
X29819000Y-81657927D01*
X29819000Y-81792073D01*
X29845171Y-81923640D01*
X29896506Y-82047574D01*
X29971033Y-82159112D01*
X30065888Y-82253967D01*
X30177426Y-82328494D01*
X30301360Y-82379829D01*
X30432927Y-82406000D01*
X30567073Y-82406000D01*
X30698640Y-82379829D01*
X30822574Y-82328494D01*
X30934112Y-82253967D01*
X31028967Y-82159112D01*
X31103494Y-82047574D01*
X31154829Y-81923640D01*
X31181000Y-81792073D01*
X31181000Y-81657927D01*
X31154829Y-81526360D01*
X31103494Y-81402426D01*
X31028967Y-81290888D01*
X30934112Y-81196033D01*
X30822574Y-81121506D01*
X30698640Y-81070171D01*
X30567073Y-81044000D01*
X30432927Y-81044000D01*
X30301360Y-81070171D01*
X30177426Y-81121506D01*
X30065888Y-81196033D01*
X29971033Y-81290888D01*
X29896506Y-81402426D01*
X29845171Y-81526360D01*
X29819000Y-81657927D01*
X29394916Y-81657927D01*
X29189738Y-81197350D01*
X28472791Y-79250000D01*
X31317157Y-79250000D01*
X31317157Y-84750000D01*
X31324513Y-84824689D01*
X31346299Y-84896508D01*
X31381678Y-84962696D01*
X31429289Y-85020711D01*
X31487304Y-85068322D01*
X31553492Y-85103701D01*
X31625311Y-85125487D01*
X31700000Y-85132843D01*
X36979078Y-85132843D01*
X36971033Y-85140888D01*
X36896506Y-85252426D01*
X36845171Y-85376360D01*
X36819000Y-85507927D01*
X36819000Y-85642073D01*
X36845171Y-85773640D01*
X36896506Y-85897574D01*
X36971033Y-86009112D01*
X37065888Y-86103967D01*
X37177426Y-86178494D01*
X37301360Y-86229829D01*
X37432927Y-86256000D01*
X37567073Y-86256000D01*
X37698640Y-86229829D01*
X37822574Y-86178494D01*
X37934112Y-86103967D01*
X38028967Y-86009112D01*
X38103494Y-85897574D01*
X38154829Y-85773640D01*
X38181000Y-85642073D01*
X38181000Y-85507927D01*
X38154829Y-85376360D01*
X38103494Y-85252426D01*
X38028967Y-85140888D01*
X37936701Y-85048622D01*
X37970711Y-85020711D01*
X38018322Y-84962696D01*
X38053701Y-84896508D01*
X38075487Y-84824689D01*
X38082843Y-84750000D01*
X38082843Y-79250000D01*
X38075487Y-79175311D01*
X38053701Y-79103492D01*
X38018322Y-79037304D01*
X37970711Y-78979289D01*
X37912696Y-78931678D01*
X37846508Y-78896299D01*
X37774689Y-78874513D01*
X37700000Y-78867157D01*
X31700000Y-78867157D01*
X31625311Y-78874513D01*
X31553492Y-78896299D01*
X31487304Y-78931678D01*
X31429289Y-78979289D01*
X31381678Y-79037304D01*
X31346299Y-79103492D01*
X31324513Y-79175311D01*
X31317157Y-79250000D01*
X28472791Y-79250000D01*
X28383766Y-79008195D01*
X28078836Y-77972927D01*
X30339000Y-77972927D01*
X30339000Y-78107073D01*
X30365171Y-78238640D01*
X30416506Y-78362574D01*
X30491033Y-78474112D01*
X30585888Y-78568967D01*
X30697426Y-78643494D01*
X30821360Y-78694829D01*
X30952927Y-78721000D01*
X31087073Y-78721000D01*
X31218640Y-78694829D01*
X31342574Y-78643494D01*
X31454112Y-78568967D01*
X31475484Y-78547595D01*
X31910213Y-78549115D01*
X31948830Y-78596170D01*
X32027302Y-78660571D01*
X32116830Y-78708425D01*
X32213974Y-78737893D01*
X32315000Y-78747843D01*
X32585000Y-78747843D01*
X32686026Y-78737893D01*
X32783170Y-78708425D01*
X32872698Y-78660571D01*
X32951170Y-78596170D01*
X32960000Y-78585411D01*
X32968830Y-78596170D01*
X33047302Y-78660571D01*
X33136830Y-78708425D01*
X33233974Y-78737893D01*
X33335000Y-78747843D01*
X33605000Y-78747843D01*
X33706026Y-78737893D01*
X33803170Y-78708425D01*
X33892698Y-78660571D01*
X33971170Y-78596170D01*
X34009982Y-78548877D01*
X34284717Y-78547796D01*
X34305888Y-78568967D01*
X34417426Y-78643494D01*
X34541360Y-78694829D01*
X34672927Y-78721000D01*
X34807073Y-78721000D01*
X34938640Y-78694829D01*
X35062574Y-78643494D01*
X35174112Y-78568967D01*
X35268967Y-78474112D01*
X35343494Y-78362574D01*
X35394829Y-78238640D01*
X35421000Y-78107073D01*
X35421000Y-77972927D01*
X35394829Y-77841360D01*
X35343494Y-77717426D01*
X35268967Y-77605888D01*
X35174112Y-77511033D01*
X35062574Y-77436506D01*
X34938640Y-77385171D01*
X34807073Y-77359000D01*
X34672927Y-77359000D01*
X34541360Y-77385171D01*
X34417426Y-77436506D01*
X34305888Y-77511033D01*
X34281118Y-77535803D01*
X34006504Y-77536884D01*
X33974273Y-77497611D01*
X33968678Y-77440807D01*
X33956636Y-77401108D01*
X33939745Y-77345425D01*
X33892759Y-77257521D01*
X33829527Y-77180473D01*
X33824331Y-77176208D01*
X33852204Y-77164663D01*
X33918394Y-77129283D01*
X33999893Y-77074827D01*
X34057908Y-77027216D01*
X34127216Y-76957908D01*
X34174827Y-76899893D01*
X34229283Y-76818394D01*
X34264663Y-76752204D01*
X34302172Y-76661648D01*
X34304311Y-76654595D01*
X34407426Y-76723494D01*
X34531360Y-76774829D01*
X34662927Y-76801000D01*
X34797073Y-76801000D01*
X34928640Y-76774829D01*
X35052574Y-76723494D01*
X35164112Y-76648967D01*
X35258967Y-76554112D01*
X35333494Y-76442574D01*
X35384829Y-76318640D01*
X35411000Y-76187073D01*
X35411000Y-76052927D01*
X35384829Y-75921360D01*
X35333494Y-75797426D01*
X35268397Y-75700000D01*
X61665000Y-75700000D01*
X61665000Y-83950000D01*
X61677201Y-84073882D01*
X61713336Y-84193004D01*
X61772017Y-84302787D01*
X61850987Y-84399013D01*
X61917157Y-84453317D01*
X61917157Y-84750000D01*
X61924513Y-84824689D01*
X61946299Y-84896508D01*
X61981678Y-84962696D01*
X62029289Y-85020711D01*
X62063299Y-85048622D01*
X61971033Y-85140888D01*
X61896506Y-85252426D01*
X61845171Y-85376360D01*
X61819000Y-85507927D01*
X61819000Y-85642073D01*
X61845171Y-85773640D01*
X61896506Y-85897574D01*
X61971033Y-86009112D01*
X62065888Y-86103967D01*
X62177426Y-86178494D01*
X62301360Y-86229829D01*
X62432927Y-86256000D01*
X62567073Y-86256000D01*
X62698640Y-86229829D01*
X62822574Y-86178494D01*
X62934112Y-86103967D01*
X63028967Y-86009112D01*
X63103494Y-85897574D01*
X63154829Y-85773640D01*
X63181000Y-85642073D01*
X63181000Y-85507927D01*
X63154829Y-85376360D01*
X63103494Y-85252426D01*
X63028967Y-85140888D01*
X63020922Y-85132843D01*
X68300000Y-85132843D01*
X68374689Y-85125487D01*
X68446508Y-85103701D01*
X68512696Y-85068322D01*
X68570711Y-85020711D01*
X68618322Y-84962696D01*
X68653701Y-84896508D01*
X68675487Y-84824689D01*
X68682843Y-84750000D01*
X68682843Y-84453317D01*
X68749013Y-84399013D01*
X68827983Y-84302787D01*
X68886664Y-84193004D01*
X68922799Y-84073882D01*
X68935000Y-83950000D01*
X68935000Y-82306631D01*
X69051360Y-82354829D01*
X69182927Y-82381000D01*
X69317073Y-82381000D01*
X69448640Y-82354829D01*
X69572574Y-82303494D01*
X69684112Y-82228967D01*
X69778967Y-82134112D01*
X69853494Y-82022574D01*
X69904829Y-81898640D01*
X69931000Y-81767073D01*
X69931000Y-81632927D01*
X69904829Y-81501360D01*
X69853494Y-81377426D01*
X69778967Y-81265888D01*
X69684112Y-81171033D01*
X69572574Y-81096506D01*
X69448640Y-81045171D01*
X69317073Y-81019000D01*
X69182927Y-81019000D01*
X69051360Y-81045171D01*
X68935000Y-81093369D01*
X68935000Y-78250000D01*
X68922799Y-78126118D01*
X68886664Y-78006996D01*
X68827983Y-77897213D01*
X68749013Y-77800987D01*
X68480869Y-77532843D01*
X68620000Y-77532843D01*
X68694689Y-77525487D01*
X68766508Y-77503701D01*
X68832696Y-77468322D01*
X68890711Y-77420711D01*
X68938322Y-77362696D01*
X68973701Y-77296508D01*
X68995487Y-77224689D01*
X69002843Y-77150000D01*
X69002843Y-76150000D01*
X69647157Y-76150000D01*
X69647157Y-77150000D01*
X69654513Y-77224689D01*
X69676299Y-77296508D01*
X69711678Y-77362696D01*
X69759289Y-77420711D01*
X69817304Y-77468322D01*
X69883492Y-77503701D01*
X69955311Y-77525487D01*
X70030000Y-77532843D01*
X70830000Y-77532843D01*
X70904689Y-77525487D01*
X70976508Y-77503701D01*
X71042696Y-77468322D01*
X71100711Y-77420711D01*
X71148322Y-77362696D01*
X71183701Y-77296508D01*
X71205487Y-77224689D01*
X71212843Y-77150000D01*
X71212843Y-76150000D01*
X71205487Y-76075311D01*
X71183701Y-76003492D01*
X71148322Y-75937304D01*
X71100711Y-75879289D01*
X71042696Y-75831678D01*
X70976508Y-75796299D01*
X70904689Y-75774513D01*
X70830000Y-75767157D01*
X70030000Y-75767157D01*
X69955311Y-75774513D01*
X69883492Y-75796299D01*
X69817304Y-75831678D01*
X69759289Y-75879289D01*
X69711678Y-75937304D01*
X69676299Y-76003492D01*
X69654513Y-76075311D01*
X69647157Y-76150000D01*
X69002843Y-76150000D01*
X68995487Y-76075311D01*
X68983867Y-76037006D01*
X69052983Y-75952787D01*
X69111664Y-75843004D01*
X69147799Y-75723882D01*
X69160000Y-75600000D01*
X69160000Y-74900000D01*
X69147799Y-74776118D01*
X69111664Y-74656996D01*
X69052983Y-74547213D01*
X68974013Y-74450987D01*
X68895768Y-74372742D01*
X68911664Y-74343004D01*
X68947799Y-74223882D01*
X68960000Y-74100000D01*
X68960000Y-73400000D01*
X68947799Y-73276118D01*
X68911664Y-73156996D01*
X68852983Y-73047213D01*
X68774013Y-72950987D01*
X67330953Y-71507927D01*
X69319000Y-71507927D01*
X69319000Y-71642073D01*
X69345171Y-71773640D01*
X69396506Y-71897574D01*
X69471033Y-72009112D01*
X69565888Y-72103967D01*
X69677426Y-72178494D01*
X69801360Y-72229829D01*
X69932927Y-72256000D01*
X70067073Y-72256000D01*
X70198640Y-72229829D01*
X70322574Y-72178494D01*
X70434112Y-72103967D01*
X70528967Y-72009112D01*
X70603494Y-71897574D01*
X70654829Y-71773640D01*
X70681000Y-71642073D01*
X70681000Y-71507927D01*
X70654829Y-71376360D01*
X70603494Y-71252426D01*
X70528967Y-71140888D01*
X70434112Y-71046033D01*
X70322574Y-70971506D01*
X70198640Y-70920171D01*
X70067073Y-70894000D01*
X69932927Y-70894000D01*
X69801360Y-70920171D01*
X69677426Y-70971506D01*
X69565888Y-71046033D01*
X69471033Y-71140888D01*
X69396506Y-71252426D01*
X69345171Y-71376360D01*
X69319000Y-71507927D01*
X67330953Y-71507927D01*
X67305869Y-71482843D01*
X68320000Y-71482843D01*
X68394689Y-71475487D01*
X68466508Y-71453701D01*
X68532696Y-71418322D01*
X68590711Y-71370711D01*
X68638322Y-71312696D01*
X68673701Y-71246508D01*
X68695487Y-71174689D01*
X68702843Y-71100000D01*
X68702843Y-70400000D01*
X68695487Y-70325311D01*
X68673701Y-70253492D01*
X68660530Y-70228851D01*
X68694689Y-70225487D01*
X68766508Y-70203701D01*
X68832696Y-70168322D01*
X68890711Y-70120711D01*
X68938322Y-70062696D01*
X68973701Y-69996508D01*
X68995487Y-69924689D01*
X69002843Y-69850000D01*
X69002843Y-68850000D01*
X69647157Y-68850000D01*
X69647157Y-69850000D01*
X69654513Y-69924689D01*
X69676299Y-69996508D01*
X69711678Y-70062696D01*
X69759289Y-70120711D01*
X69817304Y-70168322D01*
X69883492Y-70203701D01*
X69955311Y-70225487D01*
X70030000Y-70232843D01*
X70830000Y-70232843D01*
X70904689Y-70225487D01*
X70976508Y-70203701D01*
X71042696Y-70168322D01*
X71100711Y-70120711D01*
X71148322Y-70062696D01*
X71183701Y-69996508D01*
X71205487Y-69924689D01*
X71212843Y-69850000D01*
X71212843Y-68850000D01*
X71205487Y-68775311D01*
X71183701Y-68703492D01*
X71148322Y-68637304D01*
X71100711Y-68579289D01*
X71042696Y-68531678D01*
X70976508Y-68496299D01*
X70904689Y-68474513D01*
X70830000Y-68467157D01*
X70030000Y-68467157D01*
X69955311Y-68474513D01*
X69883492Y-68496299D01*
X69817304Y-68531678D01*
X69759289Y-68579289D01*
X69711678Y-68637304D01*
X69676299Y-68703492D01*
X69654513Y-68775311D01*
X69647157Y-68850000D01*
X69002843Y-68850000D01*
X68995487Y-68775311D01*
X68973701Y-68703492D01*
X68938322Y-68637304D01*
X68890711Y-68579289D01*
X68832696Y-68531678D01*
X68766508Y-68496299D01*
X68694689Y-68474513D01*
X68620000Y-68467157D01*
X67820000Y-68467157D01*
X67745311Y-68474513D01*
X67673492Y-68496299D01*
X67607304Y-68531678D01*
X67549289Y-68579289D01*
X67501678Y-68637304D01*
X67466299Y-68703492D01*
X67444513Y-68775311D01*
X67437157Y-68850000D01*
X67437157Y-69850000D01*
X67444513Y-69924689D01*
X67466299Y-69996508D01*
X67477336Y-70017157D01*
X66820000Y-70017157D01*
X66745311Y-70024513D01*
X66673492Y-70046299D01*
X66607304Y-70081678D01*
X66549289Y-70129289D01*
X66501678Y-70187304D01*
X66466299Y-70253492D01*
X66444513Y-70325311D01*
X66437157Y-70400000D01*
X66437157Y-70614131D01*
X66385000Y-70561974D01*
X66385000Y-69125000D01*
X66372799Y-69001118D01*
X66336664Y-68881996D01*
X66277983Y-68772213D01*
X66199013Y-68675987D01*
X66131963Y-68608937D01*
X66132843Y-68600000D01*
X66132843Y-68100000D01*
X66130435Y-68075550D01*
X66130435Y-68050991D01*
X66123079Y-67976302D01*
X66103957Y-67880169D01*
X66082172Y-67808352D01*
X66044663Y-67717796D01*
X66009283Y-67651606D01*
X65954827Y-67570107D01*
X65907216Y-67512092D01*
X65881000Y-67485876D01*
X65881000Y-65521885D01*
X65938690Y-65451590D01*
X65997171Y-65342180D01*
X66033183Y-65223463D01*
X66045343Y-65100002D01*
X66045343Y-64200578D01*
X67237994Y-63007927D01*
X69319000Y-63007927D01*
X69319000Y-63142073D01*
X69345171Y-63273640D01*
X69396506Y-63397574D01*
X69471033Y-63509112D01*
X69565888Y-63603967D01*
X69677426Y-63678494D01*
X69801360Y-63729829D01*
X69932927Y-63756000D01*
X70067073Y-63756000D01*
X70198640Y-63729829D01*
X70322574Y-63678494D01*
X70434112Y-63603967D01*
X70528967Y-63509112D01*
X70603494Y-63397574D01*
X70654829Y-63273640D01*
X70681000Y-63142073D01*
X70681000Y-63007927D01*
X70654829Y-62876360D01*
X70603494Y-62752426D01*
X70528967Y-62640888D01*
X70434112Y-62546033D01*
X70322574Y-62471506D01*
X70198640Y-62420171D01*
X70067073Y-62394000D01*
X69932927Y-62394000D01*
X69801360Y-62420171D01*
X69677426Y-62471506D01*
X69565888Y-62546033D01*
X69471033Y-62640888D01*
X69396506Y-62752426D01*
X69345171Y-62876360D01*
X69319000Y-63007927D01*
X67237994Y-63007927D01*
X67367362Y-62878560D01*
X67400975Y-62850975D01*
X67464823Y-62773175D01*
X67511068Y-62716826D01*
X67592875Y-62563775D01*
X67603957Y-62527242D01*
X67634471Y-62426654D01*
X67635980Y-62425835D01*
X67731726Y-62346283D01*
X67810112Y-62249581D01*
X67868125Y-62139444D01*
X67903538Y-62020106D01*
X67914988Y-61896152D01*
X67911890Y-61385000D01*
X68550000Y-61385000D01*
X68673882Y-61372799D01*
X68793004Y-61336664D01*
X68902787Y-61277983D01*
X68999013Y-61199013D01*
X69449013Y-60749013D01*
X69527983Y-60652787D01*
X69586664Y-60543004D01*
X69622799Y-60423882D01*
X69635000Y-60300000D01*
X69635000Y-59750000D01*
X69622799Y-59626118D01*
X69586664Y-59506996D01*
X69527983Y-59397213D01*
X69449013Y-59300987D01*
X68949013Y-58800987D01*
X68852787Y-58722017D01*
X68743004Y-58663336D01*
X68623882Y-58627201D01*
X68500000Y-58615000D01*
X66750000Y-58615000D01*
X66626118Y-58627201D01*
X66506996Y-58663336D01*
X66397213Y-58722017D01*
X66300987Y-58800987D01*
X65800987Y-59300987D01*
X65720382Y-59399672D01*
X65662213Y-59509727D01*
X65626632Y-59629016D01*
X65615007Y-59752953D01*
X65625007Y-61902953D01*
X65637201Y-62023882D01*
X65658845Y-62095233D01*
X65480249Y-62273830D01*
X65412502Y-62267157D01*
X64587498Y-62267157D01*
X64464037Y-62279317D01*
X64345320Y-62315329D01*
X64235910Y-62373810D01*
X64140012Y-62452512D01*
X64061310Y-62548410D01*
X64002829Y-62657820D01*
X63966817Y-62776537D01*
X63954657Y-62899998D01*
X63954657Y-65100002D01*
X63966817Y-65223463D01*
X64002829Y-65342180D01*
X64061310Y-65451590D01*
X64119001Y-65521886D01*
X64119000Y-67485876D01*
X64092784Y-67512092D01*
X64045173Y-67570107D01*
X63990717Y-67651606D01*
X63955337Y-67717796D01*
X63917828Y-67808352D01*
X63896043Y-67880169D01*
X63876921Y-67976302D01*
X63869565Y-68050991D01*
X63869565Y-68075550D01*
X63867157Y-68100000D01*
X63867157Y-68584817D01*
X63800987Y-68650987D01*
X63722017Y-68747213D01*
X63663336Y-68856996D01*
X63627201Y-68976118D01*
X63615000Y-69100000D01*
X63615000Y-73175000D01*
X63625994Y-73292648D01*
X63660936Y-73412125D01*
X63670849Y-73431125D01*
X61850987Y-75250987D01*
X61772017Y-75347213D01*
X61713336Y-75456996D01*
X61677201Y-75576118D01*
X61665000Y-75700000D01*
X35268397Y-75700000D01*
X35258967Y-75685888D01*
X35164112Y-75591033D01*
X35052574Y-75516506D01*
X34928640Y-75465171D01*
X34797073Y-75439000D01*
X34662927Y-75439000D01*
X34531360Y-75465171D01*
X34407426Y-75516506D01*
X34304311Y-75585405D01*
X34302172Y-75578352D01*
X34264663Y-75487796D01*
X34229283Y-75421606D01*
X34174827Y-75340107D01*
X34127216Y-75282092D01*
X34057908Y-75212784D01*
X33999893Y-75165173D01*
X33918394Y-75110717D01*
X33852204Y-75075337D01*
X33761648Y-75037828D01*
X33689831Y-75016043D01*
X33593698Y-74996921D01*
X33519009Y-74989565D01*
X33494450Y-74989565D01*
X33470000Y-74987157D01*
X32970000Y-74987157D01*
X32895311Y-74994513D01*
X32823492Y-75016299D01*
X32820000Y-75018166D01*
X32816508Y-75016299D01*
X32744689Y-74994513D01*
X32670000Y-74987157D01*
X32170000Y-74987157D01*
X32145550Y-74989565D01*
X32120991Y-74989565D01*
X32046302Y-74996921D01*
X31950169Y-75016043D01*
X31878352Y-75037828D01*
X31787796Y-75075337D01*
X31721606Y-75110717D01*
X31640107Y-75165173D01*
X31582092Y-75212784D01*
X31512784Y-75282092D01*
X31465173Y-75340107D01*
X31410717Y-75421606D01*
X31375337Y-75487796D01*
X31337828Y-75578352D01*
X31316043Y-75650169D01*
X31296921Y-75746302D01*
X31289565Y-75820991D01*
X31289565Y-75845550D01*
X31287157Y-75870000D01*
X31287157Y-76370000D01*
X31289565Y-76394450D01*
X31289565Y-76419009D01*
X31296921Y-76493698D01*
X31316043Y-76589831D01*
X31337828Y-76661648D01*
X31375337Y-76752204D01*
X31410717Y-76818394D01*
X31465173Y-76899893D01*
X31512784Y-76957908D01*
X31582092Y-77027216D01*
X31640107Y-77074827D01*
X31721606Y-77129283D01*
X31741939Y-77140151D01*
X31747241Y-77150071D01*
X31810473Y-77227119D01*
X31829785Y-77242968D01*
X32021229Y-77434413D01*
X31948830Y-77493830D01*
X31913302Y-77537121D01*
X31478680Y-77535601D01*
X31454112Y-77511033D01*
X31342574Y-77436506D01*
X31218640Y-77385171D01*
X31087073Y-77359000D01*
X30952927Y-77359000D01*
X30821360Y-77385171D01*
X30697426Y-77436506D01*
X30585888Y-77511033D01*
X30491033Y-77605888D01*
X30416506Y-77717426D01*
X30365171Y-77841360D01*
X30339000Y-77972927D01*
X28078836Y-77972927D01*
X27724654Y-76770450D01*
X27215294Y-74493940D01*
X27086469Y-73662927D01*
X42509000Y-73662927D01*
X42509000Y-73797073D01*
X42535171Y-73928640D01*
X42586506Y-74052574D01*
X42661033Y-74164112D01*
X42755888Y-74258967D01*
X42867426Y-74333494D01*
X42991360Y-74384829D01*
X43122927Y-74411000D01*
X43257073Y-74411000D01*
X43388640Y-74384829D01*
X43512574Y-74333494D01*
X43624112Y-74258967D01*
X43718967Y-74164112D01*
X43793494Y-74052574D01*
X43844829Y-73928640D01*
X43871000Y-73797073D01*
X43871000Y-73662927D01*
X43844829Y-73531360D01*
X43793494Y-73407426D01*
X43718967Y-73295888D01*
X43624112Y-73201033D01*
X43512574Y-73126506D01*
X43388640Y-73075171D01*
X43257073Y-73049000D01*
X43122927Y-73049000D01*
X42991360Y-73075171D01*
X42867426Y-73126506D01*
X42755888Y-73201033D01*
X42661033Y-73295888D01*
X42586506Y-73407426D01*
X42535171Y-73531360D01*
X42509000Y-73662927D01*
X27086469Y-73662927D01*
X26937648Y-72702927D01*
X43499000Y-72702927D01*
X43499000Y-72837073D01*
X43525171Y-72968640D01*
X43576506Y-73092574D01*
X43651033Y-73204112D01*
X43745888Y-73298967D01*
X43857426Y-73373494D01*
X43981360Y-73424829D01*
X44112927Y-73451000D01*
X44247073Y-73451000D01*
X44378640Y-73424829D01*
X44502574Y-73373494D01*
X44614112Y-73298967D01*
X44708967Y-73204112D01*
X44783494Y-73092574D01*
X44834829Y-72968640D01*
X44861000Y-72837073D01*
X44861000Y-72702927D01*
X44834829Y-72571360D01*
X44783494Y-72447426D01*
X44708967Y-72335888D01*
X44614112Y-72241033D01*
X44502574Y-72166506D01*
X44378640Y-72115171D01*
X44247073Y-72089000D01*
X44112927Y-72089000D01*
X43981360Y-72115171D01*
X43857426Y-72166506D01*
X43745888Y-72241033D01*
X43651033Y-72335888D01*
X43576506Y-72447426D01*
X43525171Y-72571360D01*
X43499000Y-72702927D01*
X26937648Y-72702927D01*
X26857926Y-72188666D01*
X26798226Y-71507927D01*
X29319000Y-71507927D01*
X29319000Y-71642073D01*
X29345171Y-71773640D01*
X29396506Y-71897574D01*
X29471033Y-72009112D01*
X29565888Y-72103967D01*
X29677426Y-72178494D01*
X29801360Y-72229829D01*
X29932927Y-72256000D01*
X30067073Y-72256000D01*
X30198640Y-72229829D01*
X30322574Y-72178494D01*
X30434112Y-72103967D01*
X30528967Y-72009112D01*
X30603494Y-71897574D01*
X30654829Y-71773640D01*
X30681000Y-71642073D01*
X30681000Y-71507927D01*
X30654829Y-71376360D01*
X30631484Y-71320000D01*
X31287157Y-71320000D01*
X31287157Y-72320000D01*
X31294513Y-72394689D01*
X31316299Y-72466508D01*
X31351678Y-72532696D01*
X31399289Y-72590711D01*
X31457304Y-72638322D01*
X31523492Y-72673701D01*
X31595311Y-72695487D01*
X31670000Y-72702843D01*
X32670000Y-72702843D01*
X32744689Y-72695487D01*
X32816508Y-72673701D01*
X32882696Y-72638322D01*
X32940711Y-72590711D01*
X32988322Y-72532696D01*
X33023701Y-72466508D01*
X33045487Y-72394689D01*
X33052843Y-72320000D01*
X33052843Y-72310127D01*
X33381116Y-72304195D01*
X33395888Y-72318967D01*
X33507426Y-72393494D01*
X33631360Y-72444829D01*
X33762927Y-72471000D01*
X33897073Y-72471000D01*
X34028640Y-72444829D01*
X34152574Y-72393494D01*
X34264112Y-72318967D01*
X34358967Y-72224112D01*
X34433494Y-72112574D01*
X34484829Y-71988640D01*
X34511000Y-71857073D01*
X34511000Y-71722927D01*
X34484829Y-71591360D01*
X34433494Y-71467426D01*
X34358967Y-71355888D01*
X34264112Y-71261033D01*
X34152574Y-71186506D01*
X34028640Y-71135171D01*
X33897073Y-71109000D01*
X33762927Y-71109000D01*
X33631360Y-71135171D01*
X33507426Y-71186506D01*
X33395888Y-71261033D01*
X33364592Y-71292329D01*
X33050676Y-71298002D01*
X33045487Y-71245311D01*
X33023701Y-71173492D01*
X32988322Y-71107304D01*
X32940711Y-71049289D01*
X32882696Y-71001678D01*
X32816508Y-70966299D01*
X32744689Y-70944513D01*
X32670000Y-70937157D01*
X31670000Y-70937157D01*
X31595311Y-70944513D01*
X31523492Y-70966299D01*
X31457304Y-71001678D01*
X31399289Y-71049289D01*
X31351678Y-71107304D01*
X31316299Y-71173492D01*
X31294513Y-71245311D01*
X31287157Y-71320000D01*
X30631484Y-71320000D01*
X30603494Y-71252426D01*
X30528967Y-71140888D01*
X30434112Y-71046033D01*
X30322574Y-70971506D01*
X30198640Y-70920171D01*
X30067073Y-70894000D01*
X29932927Y-70894000D01*
X29801360Y-70920171D01*
X29677426Y-70971506D01*
X29565888Y-71046033D01*
X29471033Y-71140888D01*
X29396506Y-71252426D01*
X29345171Y-71376360D01*
X29319000Y-71507927D01*
X26798226Y-71507927D01*
X26654074Y-69864227D01*
X26640980Y-69320000D01*
X31287157Y-69320000D01*
X31287157Y-70320000D01*
X31294513Y-70394689D01*
X31316299Y-70466508D01*
X31351678Y-70532696D01*
X31399289Y-70590711D01*
X31457304Y-70638322D01*
X31523492Y-70673701D01*
X31595311Y-70695487D01*
X31670000Y-70702843D01*
X32670000Y-70702843D01*
X32744689Y-70695487D01*
X32816508Y-70673701D01*
X32882696Y-70638322D01*
X32940711Y-70590711D01*
X32988322Y-70532696D01*
X33023701Y-70466508D01*
X33045487Y-70394689D01*
X33052843Y-70320000D01*
X33052843Y-70301273D01*
X33079193Y-70298678D01*
X33174575Y-70269745D01*
X33262479Y-70222759D01*
X33339527Y-70159527D01*
X33355376Y-70140215D01*
X34394592Y-69101000D01*
X34427073Y-69101000D01*
X34558640Y-69074829D01*
X34599445Y-69057927D01*
X43494000Y-69057927D01*
X43494000Y-69192073D01*
X43520171Y-69323640D01*
X43571506Y-69447574D01*
X43646033Y-69559112D01*
X43740888Y-69653967D01*
X43852426Y-69728494D01*
X43976360Y-69779829D01*
X44107927Y-69806000D01*
X44242073Y-69806000D01*
X44373640Y-69779829D01*
X44462729Y-69742927D01*
X49109000Y-69742927D01*
X49109000Y-69877073D01*
X49135171Y-70008640D01*
X49186506Y-70132574D01*
X49261033Y-70244112D01*
X49355888Y-70338967D01*
X49467426Y-70413494D01*
X49591360Y-70464829D01*
X49722927Y-70491000D01*
X49755409Y-70491000D01*
X50679000Y-71414592D01*
X50679000Y-71447073D01*
X50705171Y-71578640D01*
X50756506Y-71702574D01*
X50831033Y-71814112D01*
X50925888Y-71908967D01*
X51037426Y-71983494D01*
X51161360Y-72034829D01*
X51292927Y-72061000D01*
X51427073Y-72061000D01*
X51558640Y-72034829D01*
X51682574Y-71983494D01*
X51794112Y-71908967D01*
X51888967Y-71814112D01*
X51963494Y-71702574D01*
X52014829Y-71578640D01*
X52041000Y-71447073D01*
X52041000Y-71312927D01*
X53589000Y-71312927D01*
X53589000Y-71447073D01*
X53615171Y-71578640D01*
X53666506Y-71702574D01*
X53741033Y-71814112D01*
X53835888Y-71908967D01*
X53947426Y-71983494D01*
X54071360Y-72034829D01*
X54202927Y-72061000D01*
X54337073Y-72061000D01*
X54468640Y-72034829D01*
X54592574Y-71983494D01*
X54704112Y-71908967D01*
X54798967Y-71814112D01*
X54873494Y-71702574D01*
X54924829Y-71578640D01*
X54951000Y-71447073D01*
X54951000Y-71312927D01*
X54924829Y-71181360D01*
X54873494Y-71057426D01*
X54798967Y-70945888D01*
X54704112Y-70851033D01*
X54592574Y-70776506D01*
X54468640Y-70725171D01*
X54337073Y-70699000D01*
X54202927Y-70699000D01*
X54071360Y-70725171D01*
X53947426Y-70776506D01*
X53835888Y-70851033D01*
X53741033Y-70945888D01*
X53666506Y-71057426D01*
X53615171Y-71181360D01*
X53589000Y-71312927D01*
X52041000Y-71312927D01*
X52014829Y-71181360D01*
X51963494Y-71057426D01*
X51888967Y-70945888D01*
X51794112Y-70851033D01*
X51682574Y-70776506D01*
X51558640Y-70725171D01*
X51427073Y-70699000D01*
X51394592Y-70699000D01*
X50471000Y-69775409D01*
X50471000Y-69742927D01*
X50459065Y-69682927D01*
X55394000Y-69682927D01*
X55394000Y-69817073D01*
X55420171Y-69948640D01*
X55471506Y-70072574D01*
X55546033Y-70184112D01*
X55640888Y-70278967D01*
X55752426Y-70353494D01*
X55876360Y-70404829D01*
X56007927Y-70431000D01*
X56142073Y-70431000D01*
X56273640Y-70404829D01*
X56339000Y-70377756D01*
X56339000Y-70417073D01*
X56365171Y-70548640D01*
X56416506Y-70672574D01*
X56491033Y-70784112D01*
X56585888Y-70878967D01*
X56697426Y-70953494D01*
X56821360Y-71004829D01*
X56952927Y-71031000D01*
X57087073Y-71031000D01*
X57218640Y-71004829D01*
X57342574Y-70953494D01*
X57454112Y-70878967D01*
X57548967Y-70784112D01*
X57623494Y-70672574D01*
X57674829Y-70548640D01*
X57701000Y-70417073D01*
X57701000Y-70282927D01*
X57674829Y-70151360D01*
X57623494Y-70027426D01*
X57548967Y-69915888D01*
X57454112Y-69821033D01*
X57342574Y-69746506D01*
X57218640Y-69695171D01*
X57087073Y-69669000D01*
X56952927Y-69669000D01*
X56821360Y-69695171D01*
X56756000Y-69722244D01*
X56756000Y-69682927D01*
X56729829Y-69551360D01*
X56678494Y-69427426D01*
X56603967Y-69315888D01*
X56509112Y-69221033D01*
X56397574Y-69146506D01*
X56273640Y-69095171D01*
X56142073Y-69069000D01*
X56007927Y-69069000D01*
X55876360Y-69095171D01*
X55752426Y-69146506D01*
X55640888Y-69221033D01*
X55546033Y-69315888D01*
X55471506Y-69427426D01*
X55420171Y-69551360D01*
X55394000Y-69682927D01*
X50459065Y-69682927D01*
X50444829Y-69611360D01*
X50393494Y-69487426D01*
X50318967Y-69375888D01*
X50224112Y-69281033D01*
X50112574Y-69206506D01*
X49988640Y-69155171D01*
X49857073Y-69129000D01*
X49722927Y-69129000D01*
X49591360Y-69155171D01*
X49467426Y-69206506D01*
X49355888Y-69281033D01*
X49261033Y-69375888D01*
X49186506Y-69487426D01*
X49135171Y-69611360D01*
X49109000Y-69742927D01*
X44462729Y-69742927D01*
X44497574Y-69728494D01*
X44609112Y-69653967D01*
X44703967Y-69559112D01*
X44778494Y-69447574D01*
X44829829Y-69323640D01*
X44856000Y-69192073D01*
X44856000Y-69140698D01*
X44932927Y-69156000D01*
X45067073Y-69156000D01*
X45198640Y-69129829D01*
X45322574Y-69078494D01*
X45434112Y-69003967D01*
X45528967Y-68909112D01*
X45603494Y-68797574D01*
X45654829Y-68673640D01*
X45661257Y-68641324D01*
X50007397Y-68641324D01*
X50007397Y-68775470D01*
X50033568Y-68907037D01*
X50084903Y-69030971D01*
X50159430Y-69142509D01*
X50254285Y-69237364D01*
X50365823Y-69311891D01*
X50489757Y-69363226D01*
X50621324Y-69389397D01*
X50755470Y-69389397D01*
X50887037Y-69363226D01*
X51010971Y-69311891D01*
X51122509Y-69237364D01*
X51217364Y-69142509D01*
X51291891Y-69030971D01*
X51343226Y-68907037D01*
X51369397Y-68775470D01*
X51369397Y-68641324D01*
X51343226Y-68509757D01*
X51291891Y-68385823D01*
X51217364Y-68274285D01*
X51122509Y-68179430D01*
X51010971Y-68104903D01*
X50887037Y-68053568D01*
X50755470Y-68027397D01*
X50621324Y-68027397D01*
X50489757Y-68053568D01*
X50365823Y-68104903D01*
X50254285Y-68179430D01*
X50159430Y-68274285D01*
X50084903Y-68385823D01*
X50033568Y-68509757D01*
X50007397Y-68641324D01*
X45661257Y-68641324D01*
X45681000Y-68542073D01*
X45681000Y-68506000D01*
X45742073Y-68506000D01*
X45873640Y-68479829D01*
X45997574Y-68428494D01*
X46109112Y-68353967D01*
X46203967Y-68259112D01*
X46278494Y-68147574D01*
X46329829Y-68023640D01*
X46356000Y-67892073D01*
X46356000Y-67757927D01*
X46329829Y-67626360D01*
X46278494Y-67502426D01*
X46203967Y-67390888D01*
X46109112Y-67296033D01*
X45997574Y-67221506D01*
X45873640Y-67170171D01*
X45742073Y-67144000D01*
X45607927Y-67144000D01*
X45476360Y-67170171D01*
X45352426Y-67221506D01*
X45240888Y-67296033D01*
X45146033Y-67390888D01*
X45071506Y-67502426D01*
X45020171Y-67626360D01*
X44994000Y-67757927D01*
X44994000Y-67794000D01*
X44932927Y-67794000D01*
X44801360Y-67820171D01*
X44677426Y-67871506D01*
X44565888Y-67946033D01*
X44471033Y-68040888D01*
X44396506Y-68152426D01*
X44345171Y-68276360D01*
X44319000Y-68407927D01*
X44319000Y-68459302D01*
X44242073Y-68444000D01*
X44107927Y-68444000D01*
X43976360Y-68470171D01*
X43852426Y-68521506D01*
X43740888Y-68596033D01*
X43646033Y-68690888D01*
X43571506Y-68802426D01*
X43520171Y-68926360D01*
X43494000Y-69057927D01*
X34599445Y-69057927D01*
X34682574Y-69023494D01*
X34794112Y-68948967D01*
X34888967Y-68854112D01*
X34963494Y-68742574D01*
X35014829Y-68618640D01*
X35041000Y-68487073D01*
X35041000Y-68352927D01*
X35014829Y-68221360D01*
X34963494Y-68097426D01*
X34920398Y-68032927D01*
X42494000Y-68032927D01*
X42494000Y-68167073D01*
X42520171Y-68298640D01*
X42571506Y-68422574D01*
X42646033Y-68534112D01*
X42740888Y-68628967D01*
X42852426Y-68703494D01*
X42976360Y-68754829D01*
X43107927Y-68781000D01*
X43242073Y-68781000D01*
X43373640Y-68754829D01*
X43497574Y-68703494D01*
X43609112Y-68628967D01*
X43703967Y-68534112D01*
X43778494Y-68422574D01*
X43829829Y-68298640D01*
X43856000Y-68167073D01*
X43856000Y-68032927D01*
X43829829Y-67901360D01*
X43778494Y-67777426D01*
X43703967Y-67665888D01*
X43609112Y-67571033D01*
X43497574Y-67496506D01*
X43373640Y-67445171D01*
X43242073Y-67419000D01*
X43107927Y-67419000D01*
X42976360Y-67445171D01*
X42852426Y-67496506D01*
X42740888Y-67571033D01*
X42646033Y-67665888D01*
X42571506Y-67777426D01*
X42520171Y-67901360D01*
X42494000Y-68032927D01*
X34920398Y-68032927D01*
X34888967Y-67985888D01*
X34794112Y-67891033D01*
X34682574Y-67816506D01*
X34558640Y-67765171D01*
X34427073Y-67739000D01*
X34292927Y-67739000D01*
X34161360Y-67765171D01*
X34037426Y-67816506D01*
X33925888Y-67891033D01*
X33831033Y-67985888D01*
X33756506Y-68097426D01*
X33705171Y-68221360D01*
X33679000Y-68352927D01*
X33679000Y-68385408D01*
X32974251Y-69090158D01*
X32940711Y-69049289D01*
X32882696Y-69001678D01*
X32816508Y-68966299D01*
X32744689Y-68944513D01*
X32670000Y-68937157D01*
X31670000Y-68937157D01*
X31595311Y-68944513D01*
X31523492Y-68966299D01*
X31457304Y-69001678D01*
X31399289Y-69049289D01*
X31351678Y-69107304D01*
X31316299Y-69173492D01*
X31294513Y-69245311D01*
X31287157Y-69320000D01*
X26640980Y-69320000D01*
X26602985Y-67740871D01*
X26627252Y-67320000D01*
X31287157Y-67320000D01*
X31287157Y-68320000D01*
X31294513Y-68394689D01*
X31316299Y-68466508D01*
X31351678Y-68532696D01*
X31399289Y-68590711D01*
X31457304Y-68638322D01*
X31523492Y-68673701D01*
X31595311Y-68695487D01*
X31670000Y-68702843D01*
X32670000Y-68702843D01*
X32744689Y-68695487D01*
X32816508Y-68673701D01*
X32882696Y-68638322D01*
X32940711Y-68590711D01*
X32988322Y-68532696D01*
X33023701Y-68466508D01*
X33045487Y-68394689D01*
X33052843Y-68320000D01*
X33052843Y-67320000D01*
X33045487Y-67245311D01*
X33023701Y-67173492D01*
X32988322Y-67107304D01*
X32940711Y-67049289D01*
X32882696Y-67001678D01*
X32816508Y-66966299D01*
X32794246Y-66959546D01*
X32829829Y-66873640D01*
X32856000Y-66742073D01*
X32856000Y-66607927D01*
X32829829Y-66476360D01*
X32778494Y-66352426D01*
X32703967Y-66240888D01*
X32609112Y-66146033D01*
X32497574Y-66071506D01*
X32373640Y-66020171D01*
X32242073Y-65994000D01*
X32107927Y-65994000D01*
X31976360Y-66020171D01*
X31852426Y-66071506D01*
X31740888Y-66146033D01*
X31646033Y-66240888D01*
X31571506Y-66352426D01*
X31520171Y-66476360D01*
X31494000Y-66607927D01*
X31494000Y-66742073D01*
X31520171Y-66873640D01*
X31554638Y-66956851D01*
X31523492Y-66966299D01*
X31457304Y-67001678D01*
X31399289Y-67049289D01*
X31351678Y-67107304D01*
X31316299Y-67173492D01*
X31294513Y-67245311D01*
X31287157Y-67320000D01*
X26627252Y-67320000D01*
X26678336Y-66434061D01*
X26901056Y-65157927D01*
X49969000Y-65157927D01*
X49969000Y-65292073D01*
X49995171Y-65423640D01*
X50046506Y-65547574D01*
X50121033Y-65659112D01*
X50215888Y-65753967D01*
X50327426Y-65828494D01*
X50451360Y-65879829D01*
X50452497Y-65880055D01*
X50352426Y-65921506D01*
X50240888Y-65996033D01*
X50146033Y-66090888D01*
X50071506Y-66202426D01*
X50020171Y-66326360D01*
X49994000Y-66457927D01*
X49994000Y-66592073D01*
X50020171Y-66723640D01*
X50071506Y-66847574D01*
X50146033Y-66959112D01*
X50240888Y-67053967D01*
X50352426Y-67128494D01*
X50476360Y-67179829D01*
X50607927Y-67206000D01*
X50742073Y-67206000D01*
X50873640Y-67179829D01*
X50997574Y-67128494D01*
X51109112Y-67053967D01*
X51203967Y-66959112D01*
X51278494Y-66847574D01*
X51329829Y-66723640D01*
X51356000Y-66592073D01*
X51356000Y-66550644D01*
X51382927Y-66556000D01*
X51517073Y-66556000D01*
X51648640Y-66529829D01*
X51772574Y-66478494D01*
X51825803Y-66442927D01*
X58219000Y-66442927D01*
X58219000Y-66577073D01*
X58245171Y-66708640D01*
X58296506Y-66832574D01*
X58371033Y-66944112D01*
X58465888Y-67038967D01*
X58577426Y-67113494D01*
X58701360Y-67164829D01*
X58832927Y-67191000D01*
X58967073Y-67191000D01*
X59098640Y-67164829D01*
X59222574Y-67113494D01*
X59334112Y-67038967D01*
X59428967Y-66944112D01*
X59503494Y-66832574D01*
X59554829Y-66708640D01*
X59581000Y-66577073D01*
X59581000Y-66442927D01*
X59554829Y-66311360D01*
X59503494Y-66187426D01*
X59428967Y-66075888D01*
X59334112Y-65981033D01*
X59222574Y-65906506D01*
X59098640Y-65855171D01*
X58967073Y-65829000D01*
X58832927Y-65829000D01*
X58701360Y-65855171D01*
X58577426Y-65906506D01*
X58465888Y-65981033D01*
X58371033Y-66075888D01*
X58296506Y-66187426D01*
X58245171Y-66311360D01*
X58219000Y-66442927D01*
X51825803Y-66442927D01*
X51884112Y-66403967D01*
X51978967Y-66309112D01*
X52053494Y-66197574D01*
X52104829Y-66073640D01*
X52131000Y-65942073D01*
X52131000Y-65807927D01*
X52104829Y-65676360D01*
X52053494Y-65552426D01*
X51978967Y-65440888D01*
X51884112Y-65346033D01*
X51772574Y-65271506D01*
X51660298Y-65225000D01*
X51772574Y-65178494D01*
X51884112Y-65103967D01*
X51978967Y-65009112D01*
X52053494Y-64897574D01*
X52104829Y-64773640D01*
X52131000Y-64642073D01*
X52131000Y-64507927D01*
X52104829Y-64376360D01*
X52053494Y-64252426D01*
X51978967Y-64140888D01*
X51884112Y-64046033D01*
X51772574Y-63971506D01*
X51648640Y-63920171D01*
X51517073Y-63894000D01*
X51382927Y-63894000D01*
X51251360Y-63920171D01*
X51127426Y-63971506D01*
X51015888Y-64046033D01*
X50921033Y-64140888D01*
X50846506Y-64252426D01*
X50795171Y-64376360D01*
X50769000Y-64507927D01*
X50769000Y-64554329D01*
X50717073Y-64544000D01*
X50582927Y-64544000D01*
X50451360Y-64570171D01*
X50327426Y-64621506D01*
X50215888Y-64696033D01*
X50121033Y-64790888D01*
X50046506Y-64902426D01*
X49995171Y-65026360D01*
X49969000Y-65157927D01*
X26901056Y-65157927D01*
X26902270Y-65150972D01*
X27272199Y-63902118D01*
X27653603Y-63007927D01*
X29319000Y-63007927D01*
X29319000Y-63142073D01*
X29345171Y-63273640D01*
X29396506Y-63397574D01*
X29471033Y-63509112D01*
X29565888Y-63603967D01*
X29677426Y-63678494D01*
X29801360Y-63729829D01*
X29932927Y-63756000D01*
X30067073Y-63756000D01*
X30198640Y-63729829D01*
X30322574Y-63678494D01*
X30434112Y-63603967D01*
X30528967Y-63509112D01*
X30603494Y-63397574D01*
X30654829Y-63273640D01*
X30681000Y-63142073D01*
X30681000Y-63007927D01*
X30658125Y-62892927D01*
X30769000Y-62892927D01*
X30769000Y-63027073D01*
X30795171Y-63158640D01*
X30846506Y-63282574D01*
X30921033Y-63394112D01*
X31015888Y-63488967D01*
X31127426Y-63563494D01*
X31251360Y-63614829D01*
X31382927Y-63641000D01*
X31517073Y-63641000D01*
X31648640Y-63614829D01*
X31772574Y-63563494D01*
X31884112Y-63488967D01*
X31909799Y-63463280D01*
X32003410Y-63462724D01*
X32009513Y-63524689D01*
X32024775Y-63575000D01*
X32009513Y-63625311D01*
X32002157Y-63700000D01*
X32002157Y-64250000D01*
X32004565Y-64274450D01*
X32004565Y-64299009D01*
X32011921Y-64373698D01*
X32031043Y-64469831D01*
X32052828Y-64541648D01*
X32090337Y-64632204D01*
X32125717Y-64698394D01*
X32180173Y-64779893D01*
X32227784Y-64837908D01*
X32297092Y-64907216D01*
X32355107Y-64954827D01*
X32436606Y-65009283D01*
X32502796Y-65044663D01*
X32593352Y-65082172D01*
X32665169Y-65103957D01*
X32761302Y-65123079D01*
X32835991Y-65130435D01*
X32860550Y-65130435D01*
X32885000Y-65132843D01*
X33385000Y-65132843D01*
X33409450Y-65130435D01*
X33434009Y-65130435D01*
X33508698Y-65123079D01*
X33604831Y-65103957D01*
X33676648Y-65082172D01*
X33767204Y-65044663D01*
X33833394Y-65009283D01*
X33914893Y-64954827D01*
X33972908Y-64907216D01*
X34042216Y-64837908D01*
X34089827Y-64779893D01*
X34105792Y-64756000D01*
X36029208Y-64756000D01*
X36045173Y-64779893D01*
X36092784Y-64837908D01*
X36162092Y-64907216D01*
X36220107Y-64954827D01*
X36301606Y-65009283D01*
X36367796Y-65044663D01*
X36458352Y-65082172D01*
X36530169Y-65103957D01*
X36626302Y-65123079D01*
X36700991Y-65130435D01*
X36725550Y-65130435D01*
X36750000Y-65132843D01*
X37250000Y-65132843D01*
X37274450Y-65130435D01*
X37299009Y-65130435D01*
X37373698Y-65123079D01*
X37469831Y-65103957D01*
X37541648Y-65082172D01*
X37632204Y-65044663D01*
X37698394Y-65009283D01*
X37779893Y-64954827D01*
X37837908Y-64907216D01*
X37907216Y-64837908D01*
X37954827Y-64779893D01*
X37966894Y-64761833D01*
X38200160Y-64763239D01*
X38225888Y-64788967D01*
X38337426Y-64863494D01*
X38461360Y-64914829D01*
X38592927Y-64941000D01*
X38727073Y-64941000D01*
X38858640Y-64914829D01*
X38982574Y-64863494D01*
X39094112Y-64788967D01*
X39188967Y-64694112D01*
X39263494Y-64582574D01*
X39314829Y-64458640D01*
X39341000Y-64327073D01*
X39341000Y-64192927D01*
X39314829Y-64061360D01*
X39263494Y-63937426D01*
X39188967Y-63825888D01*
X39094112Y-63731033D01*
X38982574Y-63656506D01*
X38858640Y-63605171D01*
X38851327Y-63603716D01*
X38972574Y-63553494D01*
X39084112Y-63478967D01*
X39178967Y-63384112D01*
X39253494Y-63272574D01*
X39304829Y-63148640D01*
X39331000Y-63017073D01*
X39331000Y-62882927D01*
X39304829Y-62751360D01*
X39253494Y-62627426D01*
X39178967Y-62515888D01*
X39084112Y-62421033D01*
X38972574Y-62346506D01*
X38848640Y-62295171D01*
X38841327Y-62293716D01*
X38962574Y-62243494D01*
X39074112Y-62168967D01*
X39168967Y-62074112D01*
X39243494Y-61962574D01*
X39294829Y-61838640D01*
X39321000Y-61707073D01*
X39321000Y-61572927D01*
X39294829Y-61441360D01*
X39243494Y-61317426D01*
X39168967Y-61205888D01*
X39074112Y-61111033D01*
X38962574Y-61036506D01*
X38838640Y-60985171D01*
X38707073Y-60959000D01*
X38572927Y-60959000D01*
X38441360Y-60985171D01*
X38317426Y-61036506D01*
X38205888Y-61111033D01*
X38180126Y-61136795D01*
X37966846Y-61138095D01*
X37954827Y-61120107D01*
X37907216Y-61062092D01*
X37837908Y-60992784D01*
X37779893Y-60945173D01*
X37698394Y-60890717D01*
X37632204Y-60855337D01*
X37541648Y-60817828D01*
X37469831Y-60796043D01*
X37373698Y-60776921D01*
X37299009Y-60769565D01*
X37274450Y-60769565D01*
X37250000Y-60767157D01*
X36750000Y-60767157D01*
X36725550Y-60769565D01*
X36700991Y-60769565D01*
X36626302Y-60776921D01*
X36530169Y-60796043D01*
X36458352Y-60817828D01*
X36367796Y-60855337D01*
X36301606Y-60890717D01*
X36220107Y-60945173D01*
X36162092Y-60992784D01*
X36092784Y-61062092D01*
X36045173Y-61120107D01*
X36029208Y-61144000D01*
X34105792Y-61144000D01*
X34089827Y-61120107D01*
X34042216Y-61062092D01*
X33972908Y-60992784D01*
X33914893Y-60945173D01*
X33833394Y-60890717D01*
X33767204Y-60855337D01*
X33676648Y-60817828D01*
X33604831Y-60796043D01*
X33508698Y-60776921D01*
X33434009Y-60769565D01*
X33409450Y-60769565D01*
X33385000Y-60767157D01*
X32885000Y-60767157D01*
X32860550Y-60769565D01*
X32835991Y-60769565D01*
X32761302Y-60776921D01*
X32665169Y-60796043D01*
X32593352Y-60817828D01*
X32502796Y-60855337D01*
X32436606Y-60890717D01*
X32355107Y-60945173D01*
X32297092Y-60992784D01*
X32227784Y-61062092D01*
X32180173Y-61120107D01*
X32125717Y-61201606D01*
X32090337Y-61267796D01*
X32052828Y-61358352D01*
X32031043Y-61430169D01*
X32011921Y-61526302D01*
X32004565Y-61600991D01*
X32004565Y-61625550D01*
X32002157Y-61650000D01*
X32002157Y-62200000D01*
X32009513Y-62274689D01*
X32024775Y-62325000D01*
X32009513Y-62375311D01*
X32002157Y-62450000D01*
X32002157Y-62450715D01*
X31904374Y-62451295D01*
X31884112Y-62431033D01*
X31772574Y-62356506D01*
X31648640Y-62305171D01*
X31517073Y-62279000D01*
X31382927Y-62279000D01*
X31251360Y-62305171D01*
X31127426Y-62356506D01*
X31015888Y-62431033D01*
X30921033Y-62525888D01*
X30846506Y-62637426D01*
X30795171Y-62761360D01*
X30769000Y-62892927D01*
X30658125Y-62892927D01*
X30654829Y-62876360D01*
X30603494Y-62752426D01*
X30528967Y-62640888D01*
X30434112Y-62546033D01*
X30322574Y-62471506D01*
X30198640Y-62420171D01*
X30067073Y-62394000D01*
X29932927Y-62394000D01*
X29801360Y-62420171D01*
X29677426Y-62471506D01*
X29565888Y-62546033D01*
X29471033Y-62640888D01*
X29396506Y-62752426D01*
X29345171Y-62876360D01*
X29319000Y-63007927D01*
X27653603Y-63007927D01*
X27783208Y-62704073D01*
X28428539Y-61572687D01*
X29199622Y-60522984D01*
X29678242Y-60007927D01*
X44319000Y-60007927D01*
X44319000Y-60142073D01*
X44345171Y-60273640D01*
X44396506Y-60397574D01*
X44471033Y-60509112D01*
X44565888Y-60603967D01*
X44677426Y-60678494D01*
X44801360Y-60729829D01*
X44932927Y-60756000D01*
X45067073Y-60756000D01*
X45198640Y-60729829D01*
X45322574Y-60678494D01*
X45395882Y-60629511D01*
X48269000Y-60629511D01*
X48269000Y-60970489D01*
X48335521Y-61304914D01*
X48466007Y-61619936D01*
X48655444Y-61903448D01*
X48896552Y-62144556D01*
X49180064Y-62333993D01*
X49495086Y-62464479D01*
X49829511Y-62531000D01*
X50170489Y-62531000D01*
X50504914Y-62464479D01*
X50819936Y-62333993D01*
X51103448Y-62144556D01*
X51344556Y-61903448D01*
X51533993Y-61619936D01*
X51664479Y-61304914D01*
X51731000Y-60970489D01*
X51731000Y-60629511D01*
X51664479Y-60295086D01*
X51545535Y-60007927D01*
X54319000Y-60007927D01*
X54319000Y-60142073D01*
X54345171Y-60273640D01*
X54396506Y-60397574D01*
X54471033Y-60509112D01*
X54565888Y-60603967D01*
X54677426Y-60678494D01*
X54801360Y-60729829D01*
X54932927Y-60756000D01*
X55067073Y-60756000D01*
X55198640Y-60729829D01*
X55322574Y-60678494D01*
X55434112Y-60603967D01*
X55528967Y-60509112D01*
X55603494Y-60397574D01*
X55654829Y-60273640D01*
X55681000Y-60142073D01*
X55681000Y-60007927D01*
X55654829Y-59876360D01*
X55603494Y-59752426D01*
X55528967Y-59640888D01*
X55434112Y-59546033D01*
X55322574Y-59471506D01*
X55198640Y-59420171D01*
X55067073Y-59394000D01*
X54932927Y-59394000D01*
X54801360Y-59420171D01*
X54677426Y-59471506D01*
X54565888Y-59546033D01*
X54471033Y-59640888D01*
X54396506Y-59752426D01*
X54345171Y-59876360D01*
X54319000Y-60007927D01*
X51545535Y-60007927D01*
X51533993Y-59980064D01*
X51344556Y-59696552D01*
X51103448Y-59455444D01*
X50819936Y-59266007D01*
X50504914Y-59135521D01*
X50170489Y-59069000D01*
X49829511Y-59069000D01*
X49495086Y-59135521D01*
X49180064Y-59266007D01*
X48896552Y-59455444D01*
X48655444Y-59696552D01*
X48466007Y-59980064D01*
X48335521Y-60295086D01*
X48269000Y-60629511D01*
X45395882Y-60629511D01*
X45434112Y-60603967D01*
X45528967Y-60509112D01*
X45603494Y-60397574D01*
X45654829Y-60273640D01*
X45681000Y-60142073D01*
X45681000Y-60007927D01*
X45654829Y-59876360D01*
X45603494Y-59752426D01*
X45528967Y-59640888D01*
X45434112Y-59546033D01*
X45322574Y-59471506D01*
X45198640Y-59420171D01*
X45067073Y-59394000D01*
X44932927Y-59394000D01*
X44801360Y-59420171D01*
X44677426Y-59471506D01*
X44565888Y-59546033D01*
X44471033Y-59640888D01*
X44396506Y-59752426D01*
X44345171Y-59876360D01*
X44319000Y-60007927D01*
X29678242Y-60007927D01*
X30086253Y-59568856D01*
X31076665Y-58722964D01*
X31843119Y-58207927D01*
X34319000Y-58207927D01*
X34319000Y-58342073D01*
X34345171Y-58473640D01*
X34396506Y-58597574D01*
X34471033Y-58709112D01*
X34565888Y-58803967D01*
X34677426Y-58878494D01*
X34801360Y-58929829D01*
X34932927Y-58956000D01*
X35067073Y-58956000D01*
X35198640Y-58929829D01*
X35322574Y-58878494D01*
X35434112Y-58803967D01*
X35528967Y-58709112D01*
X35603494Y-58597574D01*
X35654829Y-58473640D01*
X35681000Y-58342073D01*
X35681000Y-58207927D01*
X35654829Y-58076360D01*
X35626484Y-58007927D01*
X39319000Y-58007927D01*
X39319000Y-58142073D01*
X39345171Y-58273640D01*
X39396506Y-58397574D01*
X39471033Y-58509112D01*
X39565888Y-58603967D01*
X39677426Y-58678494D01*
X39801360Y-58729829D01*
X39932927Y-58756000D01*
X40067073Y-58756000D01*
X40198640Y-58729829D01*
X40322574Y-58678494D01*
X40434112Y-58603967D01*
X40528967Y-58509112D01*
X40603494Y-58397574D01*
X40654829Y-58273640D01*
X40681000Y-58142073D01*
X40681000Y-58007927D01*
X40654829Y-57876360D01*
X40603494Y-57752426D01*
X40528967Y-57640888D01*
X40434112Y-57546033D01*
X40322574Y-57471506D01*
X40198640Y-57420171D01*
X40067073Y-57394000D01*
X39932927Y-57394000D01*
X39801360Y-57420171D01*
X39677426Y-57471506D01*
X39565888Y-57546033D01*
X39471033Y-57640888D01*
X39396506Y-57752426D01*
X39345171Y-57876360D01*
X39319000Y-58007927D01*
X35626484Y-58007927D01*
X35603494Y-57952426D01*
X35528967Y-57840888D01*
X35434112Y-57746033D01*
X35322574Y-57671506D01*
X35198640Y-57620171D01*
X35067073Y-57594000D01*
X34932927Y-57594000D01*
X34801360Y-57620171D01*
X34677426Y-57671506D01*
X34565888Y-57746033D01*
X34471033Y-57840888D01*
X34396506Y-57952426D01*
X34345171Y-58076360D01*
X34319000Y-58207927D01*
X31843119Y-58207927D01*
X32157749Y-57996504D01*
X33315159Y-57399120D01*
X34533556Y-56938726D01*
X35796807Y-56621420D01*
X37088153Y-56451411D01*
X38390473Y-56430953D01*
X39686509Y-56560314D01*
%TA.AperFunction,Conductor*%
D21*
G36*
X39686509Y-56560314D02*
G01*
X40959106Y-56837785D01*
X42191367Y-57259682D01*
X43366970Y-57820416D01*
X44470333Y-58512555D01*
X45494651Y-59333188D01*
X45586270Y-59416652D01*
X45590987Y-59420476D01*
X45593203Y-59422816D01*
X45597297Y-59426321D01*
X45657555Y-59477164D01*
X45677838Y-59491134D01*
X45697116Y-59506438D01*
X45701663Y-59509330D01*
X45850547Y-59602529D01*
X45881878Y-59618113D01*
X45912976Y-59634127D01*
X45917999Y-59636081D01*
X46082150Y-59698587D01*
X46115966Y-59707804D01*
X46149526Y-59717456D01*
X46154832Y-59718397D01*
X46327998Y-59747829D01*
X46362927Y-59750299D01*
X46397758Y-59753252D01*
X46403146Y-59753144D01*
X46578731Y-59748380D01*
X46613452Y-59744022D01*
X46648211Y-59740151D01*
X46653473Y-59738999D01*
X46653478Y-59738998D01*
X46653482Y-59738997D01*
X46824792Y-59700221D01*
X46858009Y-59689201D01*
X46891354Y-59678653D01*
X46896294Y-59676500D01*
X47056815Y-59605186D01*
X47087257Y-59587925D01*
X47117919Y-59571100D01*
X47122347Y-59568028D01*
X47265959Y-59466894D01*
X47292470Y-59444048D01*
X47319280Y-59421588D01*
X47323020Y-59417721D01*
X47323026Y-59417716D01*
X47323030Y-59417711D01*
X47444192Y-59290682D01*
X47444260Y-59290612D01*
X47903070Y-58809588D01*
X48415630Y-58448634D01*
X48988542Y-58194109D01*
X49599972Y-58055713D01*
X50226641Y-58038712D01*
X50844686Y-58143758D01*
X51430544Y-58366844D01*
X51961925Y-58699480D01*
X52428565Y-59138392D01*
X52537637Y-59270239D01*
X52538013Y-59270613D01*
X52538310Y-59271050D01*
X52541785Y-59275169D01*
X52593047Y-59335070D01*
X52610811Y-59352131D01*
X52627368Y-59370348D01*
X52631390Y-59373936D01*
X52763282Y-59489941D01*
X52791693Y-59510381D01*
X52819792Y-59531198D01*
X52824433Y-59533936D01*
X52976345Y-59622114D01*
X53008174Y-59636642D01*
X53039794Y-59651610D01*
X53044879Y-59653395D01*
X53211026Y-59710387D01*
X53245118Y-59718467D01*
X53278995Y-59726997D01*
X53284329Y-59727760D01*
X53458380Y-59751395D01*
X53493368Y-59752698D01*
X53528279Y-59754487D01*
X53533660Y-59754199D01*
X53533662Y-59754199D01*
X53708988Y-59743578D01*
X53743585Y-59738057D01*
X53778161Y-59733033D01*
X53783384Y-59731706D01*
X53953310Y-59687230D01*
X53986139Y-59675108D01*
X54019112Y-59663453D01*
X54023978Y-59661136D01*
X54182029Y-59584504D01*
X54211871Y-59566240D01*
X54241963Y-59548397D01*
X54246285Y-59545179D01*
X54386441Y-59439307D01*
X54387339Y-59438479D01*
X54389120Y-59437266D01*
X54398614Y-59429722D01*
X55422774Y-58589459D01*
X56326280Y-58007927D01*
X59319000Y-58007927D01*
X59319000Y-58142073D01*
X59345171Y-58273640D01*
X59396506Y-58397574D01*
X59471033Y-58509112D01*
X59565888Y-58603967D01*
X59677426Y-58678494D01*
X59801360Y-58729829D01*
X59932927Y-58756000D01*
X60067073Y-58756000D01*
X60198640Y-58729829D01*
X60322574Y-58678494D01*
X60434112Y-58603967D01*
X60528967Y-58509112D01*
X60603494Y-58397574D01*
X60654829Y-58273640D01*
X60667900Y-58207927D01*
X64319000Y-58207927D01*
X64319000Y-58342073D01*
X64345171Y-58473640D01*
X64396506Y-58597574D01*
X64471033Y-58709112D01*
X64565888Y-58803967D01*
X64677426Y-58878494D01*
X64801360Y-58929829D01*
X64932927Y-58956000D01*
X65067073Y-58956000D01*
X65198640Y-58929829D01*
X65322574Y-58878494D01*
X65434112Y-58803967D01*
X65528967Y-58709112D01*
X65603494Y-58597574D01*
X65654829Y-58473640D01*
X65681000Y-58342073D01*
X65681000Y-58207927D01*
X65654829Y-58076360D01*
X65603494Y-57952426D01*
X65528967Y-57840888D01*
X65434112Y-57746033D01*
X65322574Y-57671506D01*
X65198640Y-57620171D01*
X65067073Y-57594000D01*
X64932927Y-57594000D01*
X64801360Y-57620171D01*
X64677426Y-57671506D01*
X64565888Y-57746033D01*
X64471033Y-57840888D01*
X64396506Y-57952426D01*
X64345171Y-58076360D01*
X64319000Y-58207927D01*
X60667900Y-58207927D01*
X60681000Y-58142073D01*
X60681000Y-58007927D01*
X60654829Y-57876360D01*
X60603494Y-57752426D01*
X60528967Y-57640888D01*
X60434112Y-57546033D01*
X60322574Y-57471506D01*
X60198640Y-57420171D01*
X60067073Y-57394000D01*
X59932927Y-57394000D01*
X59801360Y-57420171D01*
X59677426Y-57471506D01*
X59565888Y-57546033D01*
X59471033Y-57640888D01*
X59396506Y-57752426D01*
X59345171Y-57876360D01*
X59319000Y-58007927D01*
X56326280Y-58007927D01*
X56518011Y-57884522D01*
X57687005Y-57310144D01*
X58914270Y-56873934D01*
X60183546Y-56581670D01*
X61477990Y-56437233D01*
X62780472Y-56442531D01*
X64073696Y-56597497D01*
X65340557Y-56900080D01*
X66564228Y-57346260D01*
X67728517Y-57930134D01*
X68817975Y-58643954D01*
X69818170Y-59478264D01*
X70715848Y-60422009D01*
X71499101Y-61462672D01*
X72157556Y-62586468D01*
X72682479Y-63778495D01*
X73066913Y-65022943D01*
X73305768Y-66303344D01*
X73396567Y-67612699D01*
X73397251Y-67730284D01*
X73334192Y-70068738D01*
X73116899Y-72391397D01*
X72746152Y-74694550D01*
X72223581Y-76968068D01*
X71551487Y-79201944D01*
X70732820Y-81386373D01*
X69771178Y-83511756D01*
X68670804Y-85568714D01*
X67436514Y-87548240D01*
X66073752Y-89441607D01*
X64588510Y-91240491D01*
X62987305Y-92936996D01*
X61277196Y-94523646D01*
X59465684Y-95993478D01*
X57560752Y-97340017D01*
X55570770Y-98557346D01*
X53503974Y-99640383D01*
X51571673Y-100501577D01*
X50811974Y-100731494D01*
X50035024Y-100812304D01*
X49256816Y-100744740D01*
X48489254Y-100526645D01*
X48444131Y-100508597D01*
X46311796Y-99550823D01*
X44251820Y-98456065D01*
X42268949Y-97227206D01*
X40371855Y-95869620D01*
X38568913Y-94389297D01*
X36868041Y-92792740D01*
X36336460Y-92222927D01*
X44649000Y-92222927D01*
X44649000Y-92357073D01*
X44675171Y-92488640D01*
X44726506Y-92612574D01*
X44801033Y-92724112D01*
X44895888Y-92818967D01*
X45007426Y-92893494D01*
X45131360Y-92944829D01*
X45262927Y-92971000D01*
X45397073Y-92971000D01*
X45528640Y-92944829D01*
X45652574Y-92893494D01*
X45764112Y-92818967D01*
X45858967Y-92724112D01*
X45933494Y-92612574D01*
X45984829Y-92488640D01*
X46011000Y-92357073D01*
X46011000Y-92222927D01*
X45984829Y-92091360D01*
X45933494Y-91967426D01*
X45858967Y-91855888D01*
X45764112Y-91761033D01*
X45652574Y-91686506D01*
X45528640Y-91635171D01*
X45397073Y-91609000D01*
X45262927Y-91609000D01*
X45131360Y-91635171D01*
X45007426Y-91686506D01*
X44895888Y-91761033D01*
X44801033Y-91855888D01*
X44726506Y-91967426D01*
X44675171Y-92091360D01*
X44649000Y-92222927D01*
X36336460Y-92222927D01*
X35276726Y-91086976D01*
X34804264Y-90507927D01*
X41819000Y-90507927D01*
X41819000Y-90642073D01*
X41845171Y-90773640D01*
X41896506Y-90897574D01*
X41971033Y-91009112D01*
X42065888Y-91103967D01*
X42177426Y-91178494D01*
X42301360Y-91229829D01*
X42432927Y-91256000D01*
X42567073Y-91256000D01*
X42698640Y-91229829D01*
X42822574Y-91178494D01*
X42934112Y-91103967D01*
X43028967Y-91009112D01*
X43103494Y-90897574D01*
X43154829Y-90773640D01*
X43181000Y-90642073D01*
X43181000Y-90507927D01*
X56819000Y-90507927D01*
X56819000Y-90642073D01*
X56845171Y-90773640D01*
X56896506Y-90897574D01*
X56971033Y-91009112D01*
X57065888Y-91103967D01*
X57177426Y-91178494D01*
X57301360Y-91229829D01*
X57432927Y-91256000D01*
X57567073Y-91256000D01*
X57698640Y-91229829D01*
X57822574Y-91178494D01*
X57934112Y-91103967D01*
X58028967Y-91009112D01*
X58103494Y-90897574D01*
X58154829Y-90773640D01*
X58181000Y-90642073D01*
X58181000Y-90507927D01*
X58154829Y-90376360D01*
X58103494Y-90252426D01*
X58028967Y-90140888D01*
X57934112Y-90046033D01*
X57822574Y-89971506D01*
X57698640Y-89920171D01*
X57567073Y-89894000D01*
X57432927Y-89894000D01*
X57301360Y-89920171D01*
X57177426Y-89971506D01*
X57065888Y-90046033D01*
X56971033Y-90140888D01*
X56896506Y-90252426D01*
X56845171Y-90376360D01*
X56819000Y-90507927D01*
X43181000Y-90507927D01*
X43154829Y-90376360D01*
X43103494Y-90252426D01*
X43028967Y-90140888D01*
X42934112Y-90046033D01*
X42822574Y-89971506D01*
X42698640Y-89920171D01*
X42567073Y-89894000D01*
X42432927Y-89894000D01*
X42301360Y-89920171D01*
X42177426Y-89971506D01*
X42065888Y-90046033D01*
X41971033Y-90140888D01*
X41896506Y-90252426D01*
X41845171Y-90376360D01*
X41819000Y-90507927D01*
X34804264Y-90507927D01*
X33801945Y-89279487D01*
X33569769Y-88952927D01*
X40619000Y-88952927D01*
X40619000Y-89087073D01*
X40645171Y-89218640D01*
X40696506Y-89342574D01*
X40771033Y-89454112D01*
X40865888Y-89548967D01*
X40977426Y-89623494D01*
X41101360Y-89674829D01*
X41232927Y-89701000D01*
X41367073Y-89701000D01*
X41498640Y-89674829D01*
X41622574Y-89623494D01*
X41734112Y-89548967D01*
X41828967Y-89454112D01*
X41903494Y-89342574D01*
X41954829Y-89218640D01*
X41981000Y-89087073D01*
X41981000Y-88952927D01*
X41954829Y-88821360D01*
X41903494Y-88697426D01*
X41828967Y-88585888D01*
X41734112Y-88491033D01*
X41622574Y-88416506D01*
X41498640Y-88365171D01*
X41367073Y-88339000D01*
X41232927Y-88339000D01*
X41101360Y-88365171D01*
X40977426Y-88416506D01*
X40865888Y-88491033D01*
X40771033Y-88585888D01*
X40696506Y-88697426D01*
X40645171Y-88821360D01*
X40619000Y-88952927D01*
X33569769Y-88952927D01*
X33093414Y-88282927D01*
X57989000Y-88282927D01*
X57989000Y-88417073D01*
X58015171Y-88548640D01*
X58066506Y-88672574D01*
X58141033Y-88784112D01*
X58235888Y-88878967D01*
X58347426Y-88953494D01*
X58471360Y-89004829D01*
X58602927Y-89031000D01*
X58737073Y-89031000D01*
X58868640Y-89004829D01*
X58992574Y-88953494D01*
X59104112Y-88878967D01*
X59118579Y-88864500D01*
X59099000Y-88962927D01*
X59099000Y-89097073D01*
X59125171Y-89228640D01*
X59176506Y-89352574D01*
X59251033Y-89464112D01*
X59345888Y-89558967D01*
X59457426Y-89633494D01*
X59543613Y-89669194D01*
X59519000Y-89792927D01*
X59519000Y-89927073D01*
X59545171Y-90058640D01*
X59596506Y-90182574D01*
X59671033Y-90294112D01*
X59765888Y-90388967D01*
X59877426Y-90463494D01*
X60001360Y-90514829D01*
X60132927Y-90541000D01*
X60267073Y-90541000D01*
X60398640Y-90514829D01*
X60522574Y-90463494D01*
X60634112Y-90388967D01*
X60728967Y-90294112D01*
X60803494Y-90182574D01*
X60854829Y-90058640D01*
X60881000Y-89927073D01*
X60881000Y-89792927D01*
X60854829Y-89661360D01*
X60803494Y-89537426D01*
X60728967Y-89425888D01*
X60634112Y-89331033D01*
X60522574Y-89256506D01*
X60436387Y-89220806D01*
X60461000Y-89097073D01*
X60461000Y-88962927D01*
X60434829Y-88831360D01*
X60383494Y-88707426D01*
X60308967Y-88595888D01*
X60214112Y-88501033D01*
X60102574Y-88426506D01*
X59978640Y-88375171D01*
X59847073Y-88349000D01*
X59712927Y-88349000D01*
X59581360Y-88375171D01*
X59457426Y-88426506D01*
X59345888Y-88501033D01*
X59331421Y-88515500D01*
X59351000Y-88417073D01*
X59351000Y-88282927D01*
X59324829Y-88151360D01*
X59273494Y-88027426D01*
X59198967Y-87915888D01*
X59104112Y-87821033D01*
X58992574Y-87746506D01*
X58868640Y-87695171D01*
X58737073Y-87669000D01*
X58602927Y-87669000D01*
X58471360Y-87695171D01*
X58347426Y-87746506D01*
X58235888Y-87821033D01*
X58141033Y-87915888D01*
X58066506Y-88027426D01*
X58015171Y-88151360D01*
X57989000Y-88282927D01*
X33093414Y-88282927D01*
X32450205Y-87378246D01*
X32403847Y-87302927D01*
X59039000Y-87302927D01*
X59039000Y-87437073D01*
X59065171Y-87568640D01*
X59116506Y-87692574D01*
X59191033Y-87804112D01*
X59285888Y-87898967D01*
X59397426Y-87973494D01*
X59521360Y-88024829D01*
X59652927Y-88051000D01*
X59787073Y-88051000D01*
X59918640Y-88024829D01*
X60042574Y-87973494D01*
X60154112Y-87898967D01*
X60248967Y-87804112D01*
X60323494Y-87692574D01*
X60374829Y-87568640D01*
X60401000Y-87437073D01*
X60401000Y-87302927D01*
X60382714Y-87211000D01*
X60467073Y-87211000D01*
X60598640Y-87184829D01*
X60722574Y-87133494D01*
X60834112Y-87058967D01*
X60928967Y-86964112D01*
X61003494Y-86852574D01*
X61054829Y-86728640D01*
X61081000Y-86597073D01*
X61081000Y-86462927D01*
X61054829Y-86331360D01*
X61003494Y-86207426D01*
X60928967Y-86095888D01*
X60834112Y-86001033D01*
X60722574Y-85926506D01*
X60598640Y-85875171D01*
X60467073Y-85849000D01*
X60332927Y-85849000D01*
X60201360Y-85875171D01*
X60077426Y-85926506D01*
X59965888Y-86001033D01*
X59871033Y-86095888D01*
X59796506Y-86207426D01*
X59745171Y-86331360D01*
X59719000Y-86462927D01*
X59719000Y-86597073D01*
X59737286Y-86689000D01*
X59652927Y-86689000D01*
X59521360Y-86715171D01*
X59397426Y-86766506D01*
X59285888Y-86841033D01*
X59191033Y-86935888D01*
X59116506Y-87047426D01*
X59065171Y-87171360D01*
X59039000Y-87302927D01*
X32403847Y-87302927D01*
X31227440Y-85391601D01*
X30139015Y-83328262D01*
X29394916Y-81657927D01*
X29819000Y-81657927D01*
X29819000Y-81792073D01*
X29845171Y-81923640D01*
X29896506Y-82047574D01*
X29971033Y-82159112D01*
X30065888Y-82253967D01*
X30177426Y-82328494D01*
X30301360Y-82379829D01*
X30432927Y-82406000D01*
X30567073Y-82406000D01*
X30698640Y-82379829D01*
X30822574Y-82328494D01*
X30934112Y-82253967D01*
X31028967Y-82159112D01*
X31103494Y-82047574D01*
X31154829Y-81923640D01*
X31181000Y-81792073D01*
X31181000Y-81657927D01*
X31154829Y-81526360D01*
X31103494Y-81402426D01*
X31028967Y-81290888D01*
X30934112Y-81196033D01*
X30822574Y-81121506D01*
X30698640Y-81070171D01*
X30567073Y-81044000D01*
X30432927Y-81044000D01*
X30301360Y-81070171D01*
X30177426Y-81121506D01*
X30065888Y-81196033D01*
X29971033Y-81290888D01*
X29896506Y-81402426D01*
X29845171Y-81526360D01*
X29819000Y-81657927D01*
X29394916Y-81657927D01*
X29189738Y-81197350D01*
X28472791Y-79250000D01*
X31317157Y-79250000D01*
X31317157Y-84750000D01*
X31324513Y-84824689D01*
X31346299Y-84896508D01*
X31381678Y-84962696D01*
X31429289Y-85020711D01*
X31487304Y-85068322D01*
X31553492Y-85103701D01*
X31625311Y-85125487D01*
X31700000Y-85132843D01*
X36979078Y-85132843D01*
X36971033Y-85140888D01*
X36896506Y-85252426D01*
X36845171Y-85376360D01*
X36819000Y-85507927D01*
X36819000Y-85642073D01*
X36845171Y-85773640D01*
X36896506Y-85897574D01*
X36971033Y-86009112D01*
X37065888Y-86103967D01*
X37177426Y-86178494D01*
X37301360Y-86229829D01*
X37432927Y-86256000D01*
X37567073Y-86256000D01*
X37698640Y-86229829D01*
X37822574Y-86178494D01*
X37934112Y-86103967D01*
X38028967Y-86009112D01*
X38103494Y-85897574D01*
X38154829Y-85773640D01*
X38181000Y-85642073D01*
X38181000Y-85507927D01*
X38154829Y-85376360D01*
X38103494Y-85252426D01*
X38028967Y-85140888D01*
X37936701Y-85048622D01*
X37970711Y-85020711D01*
X38018322Y-84962696D01*
X38053701Y-84896508D01*
X38075487Y-84824689D01*
X38082843Y-84750000D01*
X38082843Y-79250000D01*
X38075487Y-79175311D01*
X38053701Y-79103492D01*
X38018322Y-79037304D01*
X37970711Y-78979289D01*
X37912696Y-78931678D01*
X37846508Y-78896299D01*
X37774689Y-78874513D01*
X37700000Y-78867157D01*
X31700000Y-78867157D01*
X31625311Y-78874513D01*
X31553492Y-78896299D01*
X31487304Y-78931678D01*
X31429289Y-78979289D01*
X31381678Y-79037304D01*
X31346299Y-79103492D01*
X31324513Y-79175311D01*
X31317157Y-79250000D01*
X28472791Y-79250000D01*
X28383766Y-79008195D01*
X28078836Y-77972927D01*
X30339000Y-77972927D01*
X30339000Y-78107073D01*
X30365171Y-78238640D01*
X30416506Y-78362574D01*
X30491033Y-78474112D01*
X30585888Y-78568967D01*
X30697426Y-78643494D01*
X30821360Y-78694829D01*
X30952927Y-78721000D01*
X31087073Y-78721000D01*
X31218640Y-78694829D01*
X31342574Y-78643494D01*
X31454112Y-78568967D01*
X31475484Y-78547595D01*
X31910213Y-78549115D01*
X31948830Y-78596170D01*
X32027302Y-78660571D01*
X32116830Y-78708425D01*
X32213974Y-78737893D01*
X32315000Y-78747843D01*
X32585000Y-78747843D01*
X32686026Y-78737893D01*
X32783170Y-78708425D01*
X32872698Y-78660571D01*
X32951170Y-78596170D01*
X32960000Y-78585411D01*
X32968830Y-78596170D01*
X33047302Y-78660571D01*
X33136830Y-78708425D01*
X33233974Y-78737893D01*
X33335000Y-78747843D01*
X33605000Y-78747843D01*
X33706026Y-78737893D01*
X33803170Y-78708425D01*
X33892698Y-78660571D01*
X33971170Y-78596170D01*
X34009982Y-78548877D01*
X34284717Y-78547796D01*
X34305888Y-78568967D01*
X34417426Y-78643494D01*
X34541360Y-78694829D01*
X34672927Y-78721000D01*
X34807073Y-78721000D01*
X34938640Y-78694829D01*
X35062574Y-78643494D01*
X35174112Y-78568967D01*
X35268967Y-78474112D01*
X35343494Y-78362574D01*
X35394829Y-78238640D01*
X35421000Y-78107073D01*
X35421000Y-77972927D01*
X35394829Y-77841360D01*
X35343494Y-77717426D01*
X35268967Y-77605888D01*
X35174112Y-77511033D01*
X35062574Y-77436506D01*
X34938640Y-77385171D01*
X34807073Y-77359000D01*
X34672927Y-77359000D01*
X34541360Y-77385171D01*
X34417426Y-77436506D01*
X34305888Y-77511033D01*
X34281118Y-77535803D01*
X34006504Y-77536884D01*
X33974273Y-77497611D01*
X33968678Y-77440807D01*
X33956636Y-77401108D01*
X33939745Y-77345425D01*
X33892759Y-77257521D01*
X33829527Y-77180473D01*
X33824331Y-77176208D01*
X33852204Y-77164663D01*
X33918394Y-77129283D01*
X33999893Y-77074827D01*
X34057908Y-77027216D01*
X34127216Y-76957908D01*
X34174827Y-76899893D01*
X34229283Y-76818394D01*
X34264663Y-76752204D01*
X34302172Y-76661648D01*
X34304311Y-76654595D01*
X34407426Y-76723494D01*
X34531360Y-76774829D01*
X34662927Y-76801000D01*
X34797073Y-76801000D01*
X34928640Y-76774829D01*
X35052574Y-76723494D01*
X35164112Y-76648967D01*
X35258967Y-76554112D01*
X35333494Y-76442574D01*
X35384829Y-76318640D01*
X35411000Y-76187073D01*
X35411000Y-76052927D01*
X35384829Y-75921360D01*
X35333494Y-75797426D01*
X35268397Y-75700000D01*
X61665000Y-75700000D01*
X61665000Y-83950000D01*
X61677201Y-84073882D01*
X61713336Y-84193004D01*
X61772017Y-84302787D01*
X61850987Y-84399013D01*
X61917157Y-84453317D01*
X61917157Y-84750000D01*
X61924513Y-84824689D01*
X61946299Y-84896508D01*
X61981678Y-84962696D01*
X62029289Y-85020711D01*
X62063299Y-85048622D01*
X61971033Y-85140888D01*
X61896506Y-85252426D01*
X61845171Y-85376360D01*
X61819000Y-85507927D01*
X61819000Y-85642073D01*
X61845171Y-85773640D01*
X61896506Y-85897574D01*
X61971033Y-86009112D01*
X62065888Y-86103967D01*
X62177426Y-86178494D01*
X62301360Y-86229829D01*
X62432927Y-86256000D01*
X62567073Y-86256000D01*
X62698640Y-86229829D01*
X62822574Y-86178494D01*
X62934112Y-86103967D01*
X63028967Y-86009112D01*
X63103494Y-85897574D01*
X63154829Y-85773640D01*
X63181000Y-85642073D01*
X63181000Y-85507927D01*
X63154829Y-85376360D01*
X63103494Y-85252426D01*
X63028967Y-85140888D01*
X63020922Y-85132843D01*
X68300000Y-85132843D01*
X68374689Y-85125487D01*
X68446508Y-85103701D01*
X68512696Y-85068322D01*
X68570711Y-85020711D01*
X68618322Y-84962696D01*
X68653701Y-84896508D01*
X68675487Y-84824689D01*
X68682843Y-84750000D01*
X68682843Y-84453317D01*
X68749013Y-84399013D01*
X68827983Y-84302787D01*
X68886664Y-84193004D01*
X68922799Y-84073882D01*
X68935000Y-83950000D01*
X68935000Y-82306631D01*
X69051360Y-82354829D01*
X69182927Y-82381000D01*
X69317073Y-82381000D01*
X69448640Y-82354829D01*
X69572574Y-82303494D01*
X69684112Y-82228967D01*
X69778967Y-82134112D01*
X69853494Y-82022574D01*
X69904829Y-81898640D01*
X69931000Y-81767073D01*
X69931000Y-81632927D01*
X69904829Y-81501360D01*
X69853494Y-81377426D01*
X69778967Y-81265888D01*
X69684112Y-81171033D01*
X69572574Y-81096506D01*
X69448640Y-81045171D01*
X69317073Y-81019000D01*
X69182927Y-81019000D01*
X69051360Y-81045171D01*
X68935000Y-81093369D01*
X68935000Y-78250000D01*
X68922799Y-78126118D01*
X68886664Y-78006996D01*
X68827983Y-77897213D01*
X68749013Y-77800987D01*
X68480869Y-77532843D01*
X68620000Y-77532843D01*
X68694689Y-77525487D01*
X68766508Y-77503701D01*
X68832696Y-77468322D01*
X68890711Y-77420711D01*
X68938322Y-77362696D01*
X68973701Y-77296508D01*
X68995487Y-77224689D01*
X69002843Y-77150000D01*
X69002843Y-76150000D01*
X69647157Y-76150000D01*
X69647157Y-77150000D01*
X69654513Y-77224689D01*
X69676299Y-77296508D01*
X69711678Y-77362696D01*
X69759289Y-77420711D01*
X69817304Y-77468322D01*
X69883492Y-77503701D01*
X69955311Y-77525487D01*
X70030000Y-77532843D01*
X70830000Y-77532843D01*
X70904689Y-77525487D01*
X70976508Y-77503701D01*
X71042696Y-77468322D01*
X71100711Y-77420711D01*
X71148322Y-77362696D01*
X71183701Y-77296508D01*
X71205487Y-77224689D01*
X71212843Y-77150000D01*
X71212843Y-76150000D01*
X71205487Y-76075311D01*
X71183701Y-76003492D01*
X71148322Y-75937304D01*
X71100711Y-75879289D01*
X71042696Y-75831678D01*
X70976508Y-75796299D01*
X70904689Y-75774513D01*
X70830000Y-75767157D01*
X70030000Y-75767157D01*
X69955311Y-75774513D01*
X69883492Y-75796299D01*
X69817304Y-75831678D01*
X69759289Y-75879289D01*
X69711678Y-75937304D01*
X69676299Y-76003492D01*
X69654513Y-76075311D01*
X69647157Y-76150000D01*
X69002843Y-76150000D01*
X68995487Y-76075311D01*
X68983867Y-76037006D01*
X69052983Y-75952787D01*
X69111664Y-75843004D01*
X69147799Y-75723882D01*
X69160000Y-75600000D01*
X69160000Y-74900000D01*
X69147799Y-74776118D01*
X69111664Y-74656996D01*
X69052983Y-74547213D01*
X68974013Y-74450987D01*
X68895768Y-74372742D01*
X68911664Y-74343004D01*
X68947799Y-74223882D01*
X68960000Y-74100000D01*
X68960000Y-73400000D01*
X68947799Y-73276118D01*
X68911664Y-73156996D01*
X68852983Y-73047213D01*
X68774013Y-72950987D01*
X67330953Y-71507927D01*
X69319000Y-71507927D01*
X69319000Y-71642073D01*
X69345171Y-71773640D01*
X69396506Y-71897574D01*
X69471033Y-72009112D01*
X69565888Y-72103967D01*
X69677426Y-72178494D01*
X69801360Y-72229829D01*
X69932927Y-72256000D01*
X70067073Y-72256000D01*
X70198640Y-72229829D01*
X70322574Y-72178494D01*
X70434112Y-72103967D01*
X70528967Y-72009112D01*
X70603494Y-71897574D01*
X70654829Y-71773640D01*
X70681000Y-71642073D01*
X70681000Y-71507927D01*
X70654829Y-71376360D01*
X70603494Y-71252426D01*
X70528967Y-71140888D01*
X70434112Y-71046033D01*
X70322574Y-70971506D01*
X70198640Y-70920171D01*
X70067073Y-70894000D01*
X69932927Y-70894000D01*
X69801360Y-70920171D01*
X69677426Y-70971506D01*
X69565888Y-71046033D01*
X69471033Y-71140888D01*
X69396506Y-71252426D01*
X69345171Y-71376360D01*
X69319000Y-71507927D01*
X67330953Y-71507927D01*
X67305869Y-71482843D01*
X68320000Y-71482843D01*
X68394689Y-71475487D01*
X68466508Y-71453701D01*
X68532696Y-71418322D01*
X68590711Y-71370711D01*
X68638322Y-71312696D01*
X68673701Y-71246508D01*
X68695487Y-71174689D01*
X68702843Y-71100000D01*
X68702843Y-70400000D01*
X68695487Y-70325311D01*
X68673701Y-70253492D01*
X68660530Y-70228851D01*
X68694689Y-70225487D01*
X68766508Y-70203701D01*
X68832696Y-70168322D01*
X68890711Y-70120711D01*
X68938322Y-70062696D01*
X68973701Y-69996508D01*
X68995487Y-69924689D01*
X69002843Y-69850000D01*
X69002843Y-68850000D01*
X69647157Y-68850000D01*
X69647157Y-69850000D01*
X69654513Y-69924689D01*
X69676299Y-69996508D01*
X69711678Y-70062696D01*
X69759289Y-70120711D01*
X69817304Y-70168322D01*
X69883492Y-70203701D01*
X69955311Y-70225487D01*
X70030000Y-70232843D01*
X70830000Y-70232843D01*
X70904689Y-70225487D01*
X70976508Y-70203701D01*
X71042696Y-70168322D01*
X71100711Y-70120711D01*
X71148322Y-70062696D01*
X71183701Y-69996508D01*
X71205487Y-69924689D01*
X71212843Y-69850000D01*
X71212843Y-68850000D01*
X71205487Y-68775311D01*
X71183701Y-68703492D01*
X71148322Y-68637304D01*
X71100711Y-68579289D01*
X71042696Y-68531678D01*
X70976508Y-68496299D01*
X70904689Y-68474513D01*
X70830000Y-68467157D01*
X70030000Y-68467157D01*
X69955311Y-68474513D01*
X69883492Y-68496299D01*
X69817304Y-68531678D01*
X69759289Y-68579289D01*
X69711678Y-68637304D01*
X69676299Y-68703492D01*
X69654513Y-68775311D01*
X69647157Y-68850000D01*
X69002843Y-68850000D01*
X68995487Y-68775311D01*
X68973701Y-68703492D01*
X68938322Y-68637304D01*
X68890711Y-68579289D01*
X68832696Y-68531678D01*
X68766508Y-68496299D01*
X68694689Y-68474513D01*
X68620000Y-68467157D01*
X67820000Y-68467157D01*
X67745311Y-68474513D01*
X67673492Y-68496299D01*
X67607304Y-68531678D01*
X67549289Y-68579289D01*
X67501678Y-68637304D01*
X67466299Y-68703492D01*
X67444513Y-68775311D01*
X67437157Y-68850000D01*
X67437157Y-69850000D01*
X67444513Y-69924689D01*
X67466299Y-69996508D01*
X67477336Y-70017157D01*
X66820000Y-70017157D01*
X66745311Y-70024513D01*
X66673492Y-70046299D01*
X66607304Y-70081678D01*
X66549289Y-70129289D01*
X66501678Y-70187304D01*
X66466299Y-70253492D01*
X66444513Y-70325311D01*
X66437157Y-70400000D01*
X66437157Y-70614131D01*
X66385000Y-70561974D01*
X66385000Y-69125000D01*
X66372799Y-69001118D01*
X66336664Y-68881996D01*
X66277983Y-68772213D01*
X66199013Y-68675987D01*
X66131963Y-68608937D01*
X66132843Y-68600000D01*
X66132843Y-68100000D01*
X66130435Y-68075550D01*
X66130435Y-68050991D01*
X66123079Y-67976302D01*
X66103957Y-67880169D01*
X66082172Y-67808352D01*
X66044663Y-67717796D01*
X66009283Y-67651606D01*
X65954827Y-67570107D01*
X65907216Y-67512092D01*
X65881000Y-67485876D01*
X65881000Y-65521885D01*
X65938690Y-65451590D01*
X65997171Y-65342180D01*
X66033183Y-65223463D01*
X66045343Y-65100002D01*
X66045343Y-64200578D01*
X67237994Y-63007927D01*
X69319000Y-63007927D01*
X69319000Y-63142073D01*
X69345171Y-63273640D01*
X69396506Y-63397574D01*
X69471033Y-63509112D01*
X69565888Y-63603967D01*
X69677426Y-63678494D01*
X69801360Y-63729829D01*
X69932927Y-63756000D01*
X70067073Y-63756000D01*
X70198640Y-63729829D01*
X70322574Y-63678494D01*
X70434112Y-63603967D01*
X70528967Y-63509112D01*
X70603494Y-63397574D01*
X70654829Y-63273640D01*
X70681000Y-63142073D01*
X70681000Y-63007927D01*
X70654829Y-62876360D01*
X70603494Y-62752426D01*
X70528967Y-62640888D01*
X70434112Y-62546033D01*
X70322574Y-62471506D01*
X70198640Y-62420171D01*
X70067073Y-62394000D01*
X69932927Y-62394000D01*
X69801360Y-62420171D01*
X69677426Y-62471506D01*
X69565888Y-62546033D01*
X69471033Y-62640888D01*
X69396506Y-62752426D01*
X69345171Y-62876360D01*
X69319000Y-63007927D01*
X67237994Y-63007927D01*
X67367362Y-62878560D01*
X67400975Y-62850975D01*
X67464823Y-62773175D01*
X67511068Y-62716826D01*
X67592875Y-62563775D01*
X67603957Y-62527242D01*
X67634471Y-62426654D01*
X67635980Y-62425835D01*
X67731726Y-62346283D01*
X67810112Y-62249581D01*
X67868125Y-62139444D01*
X67903538Y-62020106D01*
X67914988Y-61896152D01*
X67911890Y-61385000D01*
X68550000Y-61385000D01*
X68673882Y-61372799D01*
X68793004Y-61336664D01*
X68902787Y-61277983D01*
X68999013Y-61199013D01*
X69449013Y-60749013D01*
X69527983Y-60652787D01*
X69586664Y-60543004D01*
X69622799Y-60423882D01*
X69635000Y-60300000D01*
X69635000Y-59750000D01*
X69622799Y-59626118D01*
X69586664Y-59506996D01*
X69527983Y-59397213D01*
X69449013Y-59300987D01*
X68949013Y-58800987D01*
X68852787Y-58722017D01*
X68743004Y-58663336D01*
X68623882Y-58627201D01*
X68500000Y-58615000D01*
X66750000Y-58615000D01*
X66626118Y-58627201D01*
X66506996Y-58663336D01*
X66397213Y-58722017D01*
X66300987Y-58800987D01*
X65800987Y-59300987D01*
X65720382Y-59399672D01*
X65662213Y-59509727D01*
X65626632Y-59629016D01*
X65615007Y-59752953D01*
X65625007Y-61902953D01*
X65637201Y-62023882D01*
X65658845Y-62095233D01*
X65480249Y-62273830D01*
X65412502Y-62267157D01*
X64587498Y-62267157D01*
X64464037Y-62279317D01*
X64345320Y-62315329D01*
X64235910Y-62373810D01*
X64140012Y-62452512D01*
X64061310Y-62548410D01*
X64002829Y-62657820D01*
X63966817Y-62776537D01*
X63954657Y-62899998D01*
X63954657Y-65100002D01*
X63966817Y-65223463D01*
X64002829Y-65342180D01*
X64061310Y-65451590D01*
X64119001Y-65521886D01*
X64119000Y-67485876D01*
X64092784Y-67512092D01*
X64045173Y-67570107D01*
X63990717Y-67651606D01*
X63955337Y-67717796D01*
X63917828Y-67808352D01*
X63896043Y-67880169D01*
X63876921Y-67976302D01*
X63869565Y-68050991D01*
X63869565Y-68075550D01*
X63867157Y-68100000D01*
X63867157Y-68584817D01*
X63800987Y-68650987D01*
X63722017Y-68747213D01*
X63663336Y-68856996D01*
X63627201Y-68976118D01*
X63615000Y-69100000D01*
X63615000Y-73175000D01*
X63625994Y-73292648D01*
X63660936Y-73412125D01*
X63670849Y-73431125D01*
X61850987Y-75250987D01*
X61772017Y-75347213D01*
X61713336Y-75456996D01*
X61677201Y-75576118D01*
X61665000Y-75700000D01*
X35268397Y-75700000D01*
X35258967Y-75685888D01*
X35164112Y-75591033D01*
X35052574Y-75516506D01*
X34928640Y-75465171D01*
X34797073Y-75439000D01*
X34662927Y-75439000D01*
X34531360Y-75465171D01*
X34407426Y-75516506D01*
X34304311Y-75585405D01*
X34302172Y-75578352D01*
X34264663Y-75487796D01*
X34229283Y-75421606D01*
X34174827Y-75340107D01*
X34127216Y-75282092D01*
X34057908Y-75212784D01*
X33999893Y-75165173D01*
X33918394Y-75110717D01*
X33852204Y-75075337D01*
X33761648Y-75037828D01*
X33689831Y-75016043D01*
X33593698Y-74996921D01*
X33519009Y-74989565D01*
X33494450Y-74989565D01*
X33470000Y-74987157D01*
X32970000Y-74987157D01*
X32895311Y-74994513D01*
X32823492Y-75016299D01*
X32820000Y-75018166D01*
X32816508Y-75016299D01*
X32744689Y-74994513D01*
X32670000Y-74987157D01*
X32170000Y-74987157D01*
X32145550Y-74989565D01*
X32120991Y-74989565D01*
X32046302Y-74996921D01*
X31950169Y-75016043D01*
X31878352Y-75037828D01*
X31787796Y-75075337D01*
X31721606Y-75110717D01*
X31640107Y-75165173D01*
X31582092Y-75212784D01*
X31512784Y-75282092D01*
X31465173Y-75340107D01*
X31410717Y-75421606D01*
X31375337Y-75487796D01*
X31337828Y-75578352D01*
X31316043Y-75650169D01*
X31296921Y-75746302D01*
X31289565Y-75820991D01*
X31289565Y-75845550D01*
X31287157Y-75870000D01*
X31287157Y-76370000D01*
X31289565Y-76394450D01*
X31289565Y-76419009D01*
X31296921Y-76493698D01*
X31316043Y-76589831D01*
X31337828Y-76661648D01*
X31375337Y-76752204D01*
X31410717Y-76818394D01*
X31465173Y-76899893D01*
X31512784Y-76957908D01*
X31582092Y-77027216D01*
X31640107Y-77074827D01*
X31721606Y-77129283D01*
X31741939Y-77140151D01*
X31747241Y-77150071D01*
X31810473Y-77227119D01*
X31829785Y-77242968D01*
X32021229Y-77434413D01*
X31948830Y-77493830D01*
X31913302Y-77537121D01*
X31478680Y-77535601D01*
X31454112Y-77511033D01*
X31342574Y-77436506D01*
X31218640Y-77385171D01*
X31087073Y-77359000D01*
X30952927Y-77359000D01*
X30821360Y-77385171D01*
X30697426Y-77436506D01*
X30585888Y-77511033D01*
X30491033Y-77605888D01*
X30416506Y-77717426D01*
X30365171Y-77841360D01*
X30339000Y-77972927D01*
X28078836Y-77972927D01*
X27724654Y-76770450D01*
X27215294Y-74493940D01*
X27086469Y-73662927D01*
X42509000Y-73662927D01*
X42509000Y-73797073D01*
X42535171Y-73928640D01*
X42586506Y-74052574D01*
X42661033Y-74164112D01*
X42755888Y-74258967D01*
X42867426Y-74333494D01*
X42991360Y-74384829D01*
X43122927Y-74411000D01*
X43257073Y-74411000D01*
X43388640Y-74384829D01*
X43512574Y-74333494D01*
X43624112Y-74258967D01*
X43718967Y-74164112D01*
X43793494Y-74052574D01*
X43844829Y-73928640D01*
X43871000Y-73797073D01*
X43871000Y-73662927D01*
X43844829Y-73531360D01*
X43793494Y-73407426D01*
X43718967Y-73295888D01*
X43624112Y-73201033D01*
X43512574Y-73126506D01*
X43388640Y-73075171D01*
X43257073Y-73049000D01*
X43122927Y-73049000D01*
X42991360Y-73075171D01*
X42867426Y-73126506D01*
X42755888Y-73201033D01*
X42661033Y-73295888D01*
X42586506Y-73407426D01*
X42535171Y-73531360D01*
X42509000Y-73662927D01*
X27086469Y-73662927D01*
X26937648Y-72702927D01*
X43499000Y-72702927D01*
X43499000Y-72837073D01*
X43525171Y-72968640D01*
X43576506Y-73092574D01*
X43651033Y-73204112D01*
X43745888Y-73298967D01*
X43857426Y-73373494D01*
X43981360Y-73424829D01*
X44112927Y-73451000D01*
X44247073Y-73451000D01*
X44378640Y-73424829D01*
X44502574Y-73373494D01*
X44614112Y-73298967D01*
X44708967Y-73204112D01*
X44783494Y-73092574D01*
X44834829Y-72968640D01*
X44861000Y-72837073D01*
X44861000Y-72702927D01*
X44834829Y-72571360D01*
X44783494Y-72447426D01*
X44708967Y-72335888D01*
X44614112Y-72241033D01*
X44502574Y-72166506D01*
X44378640Y-72115171D01*
X44247073Y-72089000D01*
X44112927Y-72089000D01*
X43981360Y-72115171D01*
X43857426Y-72166506D01*
X43745888Y-72241033D01*
X43651033Y-72335888D01*
X43576506Y-72447426D01*
X43525171Y-72571360D01*
X43499000Y-72702927D01*
X26937648Y-72702927D01*
X26857926Y-72188666D01*
X26798226Y-71507927D01*
X29319000Y-71507927D01*
X29319000Y-71642073D01*
X29345171Y-71773640D01*
X29396506Y-71897574D01*
X29471033Y-72009112D01*
X29565888Y-72103967D01*
X29677426Y-72178494D01*
X29801360Y-72229829D01*
X29932927Y-72256000D01*
X30067073Y-72256000D01*
X30198640Y-72229829D01*
X30322574Y-72178494D01*
X30434112Y-72103967D01*
X30528967Y-72009112D01*
X30603494Y-71897574D01*
X30654829Y-71773640D01*
X30681000Y-71642073D01*
X30681000Y-71507927D01*
X30654829Y-71376360D01*
X30631484Y-71320000D01*
X31287157Y-71320000D01*
X31287157Y-72320000D01*
X31294513Y-72394689D01*
X31316299Y-72466508D01*
X31351678Y-72532696D01*
X31399289Y-72590711D01*
X31457304Y-72638322D01*
X31523492Y-72673701D01*
X31595311Y-72695487D01*
X31670000Y-72702843D01*
X32670000Y-72702843D01*
X32744689Y-72695487D01*
X32816508Y-72673701D01*
X32882696Y-72638322D01*
X32940711Y-72590711D01*
X32988322Y-72532696D01*
X33023701Y-72466508D01*
X33045487Y-72394689D01*
X33052843Y-72320000D01*
X33052843Y-72310127D01*
X33381116Y-72304195D01*
X33395888Y-72318967D01*
X33507426Y-72393494D01*
X33631360Y-72444829D01*
X33762927Y-72471000D01*
X33897073Y-72471000D01*
X34028640Y-72444829D01*
X34152574Y-72393494D01*
X34264112Y-72318967D01*
X34358967Y-72224112D01*
X34433494Y-72112574D01*
X34484829Y-71988640D01*
X34511000Y-71857073D01*
X34511000Y-71722927D01*
X34484829Y-71591360D01*
X34433494Y-71467426D01*
X34358967Y-71355888D01*
X34264112Y-71261033D01*
X34152574Y-71186506D01*
X34028640Y-71135171D01*
X33897073Y-71109000D01*
X33762927Y-71109000D01*
X33631360Y-71135171D01*
X33507426Y-71186506D01*
X33395888Y-71261033D01*
X33364592Y-71292329D01*
X33050676Y-71298002D01*
X33045487Y-71245311D01*
X33023701Y-71173492D01*
X32988322Y-71107304D01*
X32940711Y-71049289D01*
X32882696Y-71001678D01*
X32816508Y-70966299D01*
X32744689Y-70944513D01*
X32670000Y-70937157D01*
X31670000Y-70937157D01*
X31595311Y-70944513D01*
X31523492Y-70966299D01*
X31457304Y-71001678D01*
X31399289Y-71049289D01*
X31351678Y-71107304D01*
X31316299Y-71173492D01*
X31294513Y-71245311D01*
X31287157Y-71320000D01*
X30631484Y-71320000D01*
X30603494Y-71252426D01*
X30528967Y-71140888D01*
X30434112Y-71046033D01*
X30322574Y-70971506D01*
X30198640Y-70920171D01*
X30067073Y-70894000D01*
X29932927Y-70894000D01*
X29801360Y-70920171D01*
X29677426Y-70971506D01*
X29565888Y-71046033D01*
X29471033Y-71140888D01*
X29396506Y-71252426D01*
X29345171Y-71376360D01*
X29319000Y-71507927D01*
X26798226Y-71507927D01*
X26654074Y-69864227D01*
X26640980Y-69320000D01*
X31287157Y-69320000D01*
X31287157Y-70320000D01*
X31294513Y-70394689D01*
X31316299Y-70466508D01*
X31351678Y-70532696D01*
X31399289Y-70590711D01*
X31457304Y-70638322D01*
X31523492Y-70673701D01*
X31595311Y-70695487D01*
X31670000Y-70702843D01*
X32670000Y-70702843D01*
X32744689Y-70695487D01*
X32816508Y-70673701D01*
X32882696Y-70638322D01*
X32940711Y-70590711D01*
X32988322Y-70532696D01*
X33023701Y-70466508D01*
X33045487Y-70394689D01*
X33052843Y-70320000D01*
X33052843Y-70301273D01*
X33079193Y-70298678D01*
X33174575Y-70269745D01*
X33262479Y-70222759D01*
X33339527Y-70159527D01*
X33355376Y-70140215D01*
X34394592Y-69101000D01*
X34427073Y-69101000D01*
X34558640Y-69074829D01*
X34599445Y-69057927D01*
X43494000Y-69057927D01*
X43494000Y-69192073D01*
X43520171Y-69323640D01*
X43571506Y-69447574D01*
X43646033Y-69559112D01*
X43740888Y-69653967D01*
X43852426Y-69728494D01*
X43976360Y-69779829D01*
X44107927Y-69806000D01*
X44242073Y-69806000D01*
X44373640Y-69779829D01*
X44462729Y-69742927D01*
X49109000Y-69742927D01*
X49109000Y-69877073D01*
X49135171Y-70008640D01*
X49186506Y-70132574D01*
X49261033Y-70244112D01*
X49355888Y-70338967D01*
X49467426Y-70413494D01*
X49591360Y-70464829D01*
X49722927Y-70491000D01*
X49755409Y-70491000D01*
X50679000Y-71414592D01*
X50679000Y-71447073D01*
X50705171Y-71578640D01*
X50756506Y-71702574D01*
X50831033Y-71814112D01*
X50925888Y-71908967D01*
X51037426Y-71983494D01*
X51161360Y-72034829D01*
X51292927Y-72061000D01*
X51427073Y-72061000D01*
X51558640Y-72034829D01*
X51682574Y-71983494D01*
X51794112Y-71908967D01*
X51888967Y-71814112D01*
X51963494Y-71702574D01*
X52014829Y-71578640D01*
X52041000Y-71447073D01*
X52041000Y-71312927D01*
X53589000Y-71312927D01*
X53589000Y-71447073D01*
X53615171Y-71578640D01*
X53666506Y-71702574D01*
X53741033Y-71814112D01*
X53835888Y-71908967D01*
X53947426Y-71983494D01*
X54071360Y-72034829D01*
X54202927Y-72061000D01*
X54337073Y-72061000D01*
X54468640Y-72034829D01*
X54592574Y-71983494D01*
X54704112Y-71908967D01*
X54798967Y-71814112D01*
X54873494Y-71702574D01*
X54924829Y-71578640D01*
X54951000Y-71447073D01*
X54951000Y-71312927D01*
X54924829Y-71181360D01*
X54873494Y-71057426D01*
X54798967Y-70945888D01*
X54704112Y-70851033D01*
X54592574Y-70776506D01*
X54468640Y-70725171D01*
X54337073Y-70699000D01*
X54202927Y-70699000D01*
X54071360Y-70725171D01*
X53947426Y-70776506D01*
X53835888Y-70851033D01*
X53741033Y-70945888D01*
X53666506Y-71057426D01*
X53615171Y-71181360D01*
X53589000Y-71312927D01*
X52041000Y-71312927D01*
X52014829Y-71181360D01*
X51963494Y-71057426D01*
X51888967Y-70945888D01*
X51794112Y-70851033D01*
X51682574Y-70776506D01*
X51558640Y-70725171D01*
X51427073Y-70699000D01*
X51394592Y-70699000D01*
X50471000Y-69775409D01*
X50471000Y-69742927D01*
X50459065Y-69682927D01*
X55394000Y-69682927D01*
X55394000Y-69817073D01*
X55420171Y-69948640D01*
X55471506Y-70072574D01*
X55546033Y-70184112D01*
X55640888Y-70278967D01*
X55752426Y-70353494D01*
X55876360Y-70404829D01*
X56007927Y-70431000D01*
X56142073Y-70431000D01*
X56273640Y-70404829D01*
X56339000Y-70377756D01*
X56339000Y-70417073D01*
X56365171Y-70548640D01*
X56416506Y-70672574D01*
X56491033Y-70784112D01*
X56585888Y-70878967D01*
X56697426Y-70953494D01*
X56821360Y-71004829D01*
X56952927Y-71031000D01*
X57087073Y-71031000D01*
X57218640Y-71004829D01*
X57342574Y-70953494D01*
X57454112Y-70878967D01*
X57548967Y-70784112D01*
X57623494Y-70672574D01*
X57674829Y-70548640D01*
X57701000Y-70417073D01*
X57701000Y-70282927D01*
X57674829Y-70151360D01*
X57623494Y-70027426D01*
X57548967Y-69915888D01*
X57454112Y-69821033D01*
X57342574Y-69746506D01*
X57218640Y-69695171D01*
X57087073Y-69669000D01*
X56952927Y-69669000D01*
X56821360Y-69695171D01*
X56756000Y-69722244D01*
X56756000Y-69682927D01*
X56729829Y-69551360D01*
X56678494Y-69427426D01*
X56603967Y-69315888D01*
X56509112Y-69221033D01*
X56397574Y-69146506D01*
X56273640Y-69095171D01*
X56142073Y-69069000D01*
X56007927Y-69069000D01*
X55876360Y-69095171D01*
X55752426Y-69146506D01*
X55640888Y-69221033D01*
X55546033Y-69315888D01*
X55471506Y-69427426D01*
X55420171Y-69551360D01*
X55394000Y-69682927D01*
X50459065Y-69682927D01*
X50444829Y-69611360D01*
X50393494Y-69487426D01*
X50318967Y-69375888D01*
X50224112Y-69281033D01*
X50112574Y-69206506D01*
X49988640Y-69155171D01*
X49857073Y-69129000D01*
X49722927Y-69129000D01*
X49591360Y-69155171D01*
X49467426Y-69206506D01*
X49355888Y-69281033D01*
X49261033Y-69375888D01*
X49186506Y-69487426D01*
X49135171Y-69611360D01*
X49109000Y-69742927D01*
X44462729Y-69742927D01*
X44497574Y-69728494D01*
X44609112Y-69653967D01*
X44703967Y-69559112D01*
X44778494Y-69447574D01*
X44829829Y-69323640D01*
X44856000Y-69192073D01*
X44856000Y-69140698D01*
X44932927Y-69156000D01*
X45067073Y-69156000D01*
X45198640Y-69129829D01*
X45322574Y-69078494D01*
X45434112Y-69003967D01*
X45528967Y-68909112D01*
X45603494Y-68797574D01*
X45654829Y-68673640D01*
X45661257Y-68641324D01*
X50007397Y-68641324D01*
X50007397Y-68775470D01*
X50033568Y-68907037D01*
X50084903Y-69030971D01*
X50159430Y-69142509D01*
X50254285Y-69237364D01*
X50365823Y-69311891D01*
X50489757Y-69363226D01*
X50621324Y-69389397D01*
X50755470Y-69389397D01*
X50887037Y-69363226D01*
X51010971Y-69311891D01*
X51122509Y-69237364D01*
X51217364Y-69142509D01*
X51291891Y-69030971D01*
X51343226Y-68907037D01*
X51369397Y-68775470D01*
X51369397Y-68641324D01*
X51343226Y-68509757D01*
X51291891Y-68385823D01*
X51217364Y-68274285D01*
X51122509Y-68179430D01*
X51010971Y-68104903D01*
X50887037Y-68053568D01*
X50755470Y-68027397D01*
X50621324Y-68027397D01*
X50489757Y-68053568D01*
X50365823Y-68104903D01*
X50254285Y-68179430D01*
X50159430Y-68274285D01*
X50084903Y-68385823D01*
X50033568Y-68509757D01*
X50007397Y-68641324D01*
X45661257Y-68641324D01*
X45681000Y-68542073D01*
X45681000Y-68506000D01*
X45742073Y-68506000D01*
X45873640Y-68479829D01*
X45997574Y-68428494D01*
X46109112Y-68353967D01*
X46203967Y-68259112D01*
X46278494Y-68147574D01*
X46329829Y-68023640D01*
X46356000Y-67892073D01*
X46356000Y-67757927D01*
X46329829Y-67626360D01*
X46278494Y-67502426D01*
X46203967Y-67390888D01*
X46109112Y-67296033D01*
X45997574Y-67221506D01*
X45873640Y-67170171D01*
X45742073Y-67144000D01*
X45607927Y-67144000D01*
X45476360Y-67170171D01*
X45352426Y-67221506D01*
X45240888Y-67296033D01*
X45146033Y-67390888D01*
X45071506Y-67502426D01*
X45020171Y-67626360D01*
X44994000Y-67757927D01*
X44994000Y-67794000D01*
X44932927Y-67794000D01*
X44801360Y-67820171D01*
X44677426Y-67871506D01*
X44565888Y-67946033D01*
X44471033Y-68040888D01*
X44396506Y-68152426D01*
X44345171Y-68276360D01*
X44319000Y-68407927D01*
X44319000Y-68459302D01*
X44242073Y-68444000D01*
X44107927Y-68444000D01*
X43976360Y-68470171D01*
X43852426Y-68521506D01*
X43740888Y-68596033D01*
X43646033Y-68690888D01*
X43571506Y-68802426D01*
X43520171Y-68926360D01*
X43494000Y-69057927D01*
X34599445Y-69057927D01*
X34682574Y-69023494D01*
X34794112Y-68948967D01*
X34888967Y-68854112D01*
X34963494Y-68742574D01*
X35014829Y-68618640D01*
X35041000Y-68487073D01*
X35041000Y-68352927D01*
X35014829Y-68221360D01*
X34963494Y-68097426D01*
X34920398Y-68032927D01*
X42494000Y-68032927D01*
X42494000Y-68167073D01*
X42520171Y-68298640D01*
X42571506Y-68422574D01*
X42646033Y-68534112D01*
X42740888Y-68628967D01*
X42852426Y-68703494D01*
X42976360Y-68754829D01*
X43107927Y-68781000D01*
X43242073Y-68781000D01*
X43373640Y-68754829D01*
X43497574Y-68703494D01*
X43609112Y-68628967D01*
X43703967Y-68534112D01*
X43778494Y-68422574D01*
X43829829Y-68298640D01*
X43856000Y-68167073D01*
X43856000Y-68032927D01*
X43829829Y-67901360D01*
X43778494Y-67777426D01*
X43703967Y-67665888D01*
X43609112Y-67571033D01*
X43497574Y-67496506D01*
X43373640Y-67445171D01*
X43242073Y-67419000D01*
X43107927Y-67419000D01*
X42976360Y-67445171D01*
X42852426Y-67496506D01*
X42740888Y-67571033D01*
X42646033Y-67665888D01*
X42571506Y-67777426D01*
X42520171Y-67901360D01*
X42494000Y-68032927D01*
X34920398Y-68032927D01*
X34888967Y-67985888D01*
X34794112Y-67891033D01*
X34682574Y-67816506D01*
X34558640Y-67765171D01*
X34427073Y-67739000D01*
X34292927Y-67739000D01*
X34161360Y-67765171D01*
X34037426Y-67816506D01*
X33925888Y-67891033D01*
X33831033Y-67985888D01*
X33756506Y-68097426D01*
X33705171Y-68221360D01*
X33679000Y-68352927D01*
X33679000Y-68385408D01*
X32974251Y-69090158D01*
X32940711Y-69049289D01*
X32882696Y-69001678D01*
X32816508Y-68966299D01*
X32744689Y-68944513D01*
X32670000Y-68937157D01*
X31670000Y-68937157D01*
X31595311Y-68944513D01*
X31523492Y-68966299D01*
X31457304Y-69001678D01*
X31399289Y-69049289D01*
X31351678Y-69107304D01*
X31316299Y-69173492D01*
X31294513Y-69245311D01*
X31287157Y-69320000D01*
X26640980Y-69320000D01*
X26602985Y-67740871D01*
X26627252Y-67320000D01*
X31287157Y-67320000D01*
X31287157Y-68320000D01*
X31294513Y-68394689D01*
X31316299Y-68466508D01*
X31351678Y-68532696D01*
X31399289Y-68590711D01*
X31457304Y-68638322D01*
X31523492Y-68673701D01*
X31595311Y-68695487D01*
X31670000Y-68702843D01*
X32670000Y-68702843D01*
X32744689Y-68695487D01*
X32816508Y-68673701D01*
X32882696Y-68638322D01*
X32940711Y-68590711D01*
X32988322Y-68532696D01*
X33023701Y-68466508D01*
X33045487Y-68394689D01*
X33052843Y-68320000D01*
X33052843Y-67320000D01*
X33045487Y-67245311D01*
X33023701Y-67173492D01*
X32988322Y-67107304D01*
X32940711Y-67049289D01*
X32882696Y-67001678D01*
X32816508Y-66966299D01*
X32794246Y-66959546D01*
X32829829Y-66873640D01*
X32856000Y-66742073D01*
X32856000Y-66607927D01*
X32829829Y-66476360D01*
X32778494Y-66352426D01*
X32703967Y-66240888D01*
X32609112Y-66146033D01*
X32497574Y-66071506D01*
X32373640Y-66020171D01*
X32242073Y-65994000D01*
X32107927Y-65994000D01*
X31976360Y-66020171D01*
X31852426Y-66071506D01*
X31740888Y-66146033D01*
X31646033Y-66240888D01*
X31571506Y-66352426D01*
X31520171Y-66476360D01*
X31494000Y-66607927D01*
X31494000Y-66742073D01*
X31520171Y-66873640D01*
X31554638Y-66956851D01*
X31523492Y-66966299D01*
X31457304Y-67001678D01*
X31399289Y-67049289D01*
X31351678Y-67107304D01*
X31316299Y-67173492D01*
X31294513Y-67245311D01*
X31287157Y-67320000D01*
X26627252Y-67320000D01*
X26678336Y-66434061D01*
X26901056Y-65157927D01*
X49969000Y-65157927D01*
X49969000Y-65292073D01*
X49995171Y-65423640D01*
X50046506Y-65547574D01*
X50121033Y-65659112D01*
X50215888Y-65753967D01*
X50327426Y-65828494D01*
X50451360Y-65879829D01*
X50452497Y-65880055D01*
X50352426Y-65921506D01*
X50240888Y-65996033D01*
X50146033Y-66090888D01*
X50071506Y-66202426D01*
X50020171Y-66326360D01*
X49994000Y-66457927D01*
X49994000Y-66592073D01*
X50020171Y-66723640D01*
X50071506Y-66847574D01*
X50146033Y-66959112D01*
X50240888Y-67053967D01*
X50352426Y-67128494D01*
X50476360Y-67179829D01*
X50607927Y-67206000D01*
X50742073Y-67206000D01*
X50873640Y-67179829D01*
X50997574Y-67128494D01*
X51109112Y-67053967D01*
X51203967Y-66959112D01*
X51278494Y-66847574D01*
X51329829Y-66723640D01*
X51356000Y-66592073D01*
X51356000Y-66550644D01*
X51382927Y-66556000D01*
X51517073Y-66556000D01*
X51648640Y-66529829D01*
X51772574Y-66478494D01*
X51825803Y-66442927D01*
X58219000Y-66442927D01*
X58219000Y-66577073D01*
X58245171Y-66708640D01*
X58296506Y-66832574D01*
X58371033Y-66944112D01*
X58465888Y-67038967D01*
X58577426Y-67113494D01*
X58701360Y-67164829D01*
X58832927Y-67191000D01*
X58967073Y-67191000D01*
X59098640Y-67164829D01*
X59222574Y-67113494D01*
X59334112Y-67038967D01*
X59428967Y-66944112D01*
X59503494Y-66832574D01*
X59554829Y-66708640D01*
X59581000Y-66577073D01*
X59581000Y-66442927D01*
X59554829Y-66311360D01*
X59503494Y-66187426D01*
X59428967Y-66075888D01*
X59334112Y-65981033D01*
X59222574Y-65906506D01*
X59098640Y-65855171D01*
X58967073Y-65829000D01*
X58832927Y-65829000D01*
X58701360Y-65855171D01*
X58577426Y-65906506D01*
X58465888Y-65981033D01*
X58371033Y-66075888D01*
X58296506Y-66187426D01*
X58245171Y-66311360D01*
X58219000Y-66442927D01*
X51825803Y-66442927D01*
X51884112Y-66403967D01*
X51978967Y-66309112D01*
X52053494Y-66197574D01*
X52104829Y-66073640D01*
X52131000Y-65942073D01*
X52131000Y-65807927D01*
X52104829Y-65676360D01*
X52053494Y-65552426D01*
X51978967Y-65440888D01*
X51884112Y-65346033D01*
X51772574Y-65271506D01*
X51660298Y-65225000D01*
X51772574Y-65178494D01*
X51884112Y-65103967D01*
X51978967Y-65009112D01*
X52053494Y-64897574D01*
X52104829Y-64773640D01*
X52131000Y-64642073D01*
X52131000Y-64507927D01*
X52104829Y-64376360D01*
X52053494Y-64252426D01*
X51978967Y-64140888D01*
X51884112Y-64046033D01*
X51772574Y-63971506D01*
X51648640Y-63920171D01*
X51517073Y-63894000D01*
X51382927Y-63894000D01*
X51251360Y-63920171D01*
X51127426Y-63971506D01*
X51015888Y-64046033D01*
X50921033Y-64140888D01*
X50846506Y-64252426D01*
X50795171Y-64376360D01*
X50769000Y-64507927D01*
X50769000Y-64554329D01*
X50717073Y-64544000D01*
X50582927Y-64544000D01*
X50451360Y-64570171D01*
X50327426Y-64621506D01*
X50215888Y-64696033D01*
X50121033Y-64790888D01*
X50046506Y-64902426D01*
X49995171Y-65026360D01*
X49969000Y-65157927D01*
X26901056Y-65157927D01*
X26902270Y-65150972D01*
X27272199Y-63902118D01*
X27653603Y-63007927D01*
X29319000Y-63007927D01*
X29319000Y-63142073D01*
X29345171Y-63273640D01*
X29396506Y-63397574D01*
X29471033Y-63509112D01*
X29565888Y-63603967D01*
X29677426Y-63678494D01*
X29801360Y-63729829D01*
X29932927Y-63756000D01*
X30067073Y-63756000D01*
X30198640Y-63729829D01*
X30322574Y-63678494D01*
X30434112Y-63603967D01*
X30528967Y-63509112D01*
X30603494Y-63397574D01*
X30654829Y-63273640D01*
X30681000Y-63142073D01*
X30681000Y-63007927D01*
X30658125Y-62892927D01*
X30769000Y-62892927D01*
X30769000Y-63027073D01*
X30795171Y-63158640D01*
X30846506Y-63282574D01*
X30921033Y-63394112D01*
X31015888Y-63488967D01*
X31127426Y-63563494D01*
X31251360Y-63614829D01*
X31382927Y-63641000D01*
X31517073Y-63641000D01*
X31648640Y-63614829D01*
X31772574Y-63563494D01*
X31884112Y-63488967D01*
X31909799Y-63463280D01*
X32003410Y-63462724D01*
X32009513Y-63524689D01*
X32024775Y-63575000D01*
X32009513Y-63625311D01*
X32002157Y-63700000D01*
X32002157Y-64250000D01*
X32004565Y-64274450D01*
X32004565Y-64299009D01*
X32011921Y-64373698D01*
X32031043Y-64469831D01*
X32052828Y-64541648D01*
X32090337Y-64632204D01*
X32125717Y-64698394D01*
X32180173Y-64779893D01*
X32227784Y-64837908D01*
X32297092Y-64907216D01*
X32355107Y-64954827D01*
X32436606Y-65009283D01*
X32502796Y-65044663D01*
X32593352Y-65082172D01*
X32665169Y-65103957D01*
X32761302Y-65123079D01*
X32835991Y-65130435D01*
X32860550Y-65130435D01*
X32885000Y-65132843D01*
X33385000Y-65132843D01*
X33409450Y-65130435D01*
X33434009Y-65130435D01*
X33508698Y-65123079D01*
X33604831Y-65103957D01*
X33676648Y-65082172D01*
X33767204Y-65044663D01*
X33833394Y-65009283D01*
X33914893Y-64954827D01*
X33972908Y-64907216D01*
X34042216Y-64837908D01*
X34089827Y-64779893D01*
X34105792Y-64756000D01*
X36029208Y-64756000D01*
X36045173Y-64779893D01*
X36092784Y-64837908D01*
X36162092Y-64907216D01*
X36220107Y-64954827D01*
X36301606Y-65009283D01*
X36367796Y-65044663D01*
X36458352Y-65082172D01*
X36530169Y-65103957D01*
X36626302Y-65123079D01*
X36700991Y-65130435D01*
X36725550Y-65130435D01*
X36750000Y-65132843D01*
X37250000Y-65132843D01*
X37274450Y-65130435D01*
X37299009Y-65130435D01*
X37373698Y-65123079D01*
X37469831Y-65103957D01*
X37541648Y-65082172D01*
X37632204Y-65044663D01*
X37698394Y-65009283D01*
X37779893Y-64954827D01*
X37837908Y-64907216D01*
X37907216Y-64837908D01*
X37954827Y-64779893D01*
X37966894Y-64761833D01*
X38200160Y-64763239D01*
X38225888Y-64788967D01*
X38337426Y-64863494D01*
X38461360Y-64914829D01*
X38592927Y-64941000D01*
X38727073Y-64941000D01*
X38858640Y-64914829D01*
X38982574Y-64863494D01*
X39094112Y-64788967D01*
X39188967Y-64694112D01*
X39263494Y-64582574D01*
X39314829Y-64458640D01*
X39341000Y-64327073D01*
X39341000Y-64192927D01*
X39314829Y-64061360D01*
X39263494Y-63937426D01*
X39188967Y-63825888D01*
X39094112Y-63731033D01*
X38982574Y-63656506D01*
X38858640Y-63605171D01*
X38851327Y-63603716D01*
X38972574Y-63553494D01*
X39084112Y-63478967D01*
X39178967Y-63384112D01*
X39253494Y-63272574D01*
X39304829Y-63148640D01*
X39331000Y-63017073D01*
X39331000Y-62882927D01*
X39304829Y-62751360D01*
X39253494Y-62627426D01*
X39178967Y-62515888D01*
X39084112Y-62421033D01*
X38972574Y-62346506D01*
X38848640Y-62295171D01*
X38841327Y-62293716D01*
X38962574Y-62243494D01*
X39074112Y-62168967D01*
X39168967Y-62074112D01*
X39243494Y-61962574D01*
X39294829Y-61838640D01*
X39321000Y-61707073D01*
X39321000Y-61572927D01*
X39294829Y-61441360D01*
X39243494Y-61317426D01*
X39168967Y-61205888D01*
X39074112Y-61111033D01*
X38962574Y-61036506D01*
X38838640Y-60985171D01*
X38707073Y-60959000D01*
X38572927Y-60959000D01*
X38441360Y-60985171D01*
X38317426Y-61036506D01*
X38205888Y-61111033D01*
X38180126Y-61136795D01*
X37966846Y-61138095D01*
X37954827Y-61120107D01*
X37907216Y-61062092D01*
X37837908Y-60992784D01*
X37779893Y-60945173D01*
X37698394Y-60890717D01*
X37632204Y-60855337D01*
X37541648Y-60817828D01*
X37469831Y-60796043D01*
X37373698Y-60776921D01*
X37299009Y-60769565D01*
X37274450Y-60769565D01*
X37250000Y-60767157D01*
X36750000Y-60767157D01*
X36725550Y-60769565D01*
X36700991Y-60769565D01*
X36626302Y-60776921D01*
X36530169Y-60796043D01*
X36458352Y-60817828D01*
X36367796Y-60855337D01*
X36301606Y-60890717D01*
X36220107Y-60945173D01*
X36162092Y-60992784D01*
X36092784Y-61062092D01*
X36045173Y-61120107D01*
X36029208Y-61144000D01*
X34105792Y-61144000D01*
X34089827Y-61120107D01*
X34042216Y-61062092D01*
X33972908Y-60992784D01*
X33914893Y-60945173D01*
X33833394Y-60890717D01*
X33767204Y-60855337D01*
X33676648Y-60817828D01*
X33604831Y-60796043D01*
X33508698Y-60776921D01*
X33434009Y-60769565D01*
X33409450Y-60769565D01*
X33385000Y-60767157D01*
X32885000Y-60767157D01*
X32860550Y-60769565D01*
X32835991Y-60769565D01*
X32761302Y-60776921D01*
X32665169Y-60796043D01*
X32593352Y-60817828D01*
X32502796Y-60855337D01*
X32436606Y-60890717D01*
X32355107Y-60945173D01*
X32297092Y-60992784D01*
X32227784Y-61062092D01*
X32180173Y-61120107D01*
X32125717Y-61201606D01*
X32090337Y-61267796D01*
X32052828Y-61358352D01*
X32031043Y-61430169D01*
X32011921Y-61526302D01*
X32004565Y-61600991D01*
X32004565Y-61625550D01*
X32002157Y-61650000D01*
X32002157Y-62200000D01*
X32009513Y-62274689D01*
X32024775Y-62325000D01*
X32009513Y-62375311D01*
X32002157Y-62450000D01*
X32002157Y-62450715D01*
X31904374Y-62451295D01*
X31884112Y-62431033D01*
X31772574Y-62356506D01*
X31648640Y-62305171D01*
X31517073Y-62279000D01*
X31382927Y-62279000D01*
X31251360Y-62305171D01*
X31127426Y-62356506D01*
X31015888Y-62431033D01*
X30921033Y-62525888D01*
X30846506Y-62637426D01*
X30795171Y-62761360D01*
X30769000Y-62892927D01*
X30658125Y-62892927D01*
X30654829Y-62876360D01*
X30603494Y-62752426D01*
X30528967Y-62640888D01*
X30434112Y-62546033D01*
X30322574Y-62471506D01*
X30198640Y-62420171D01*
X30067073Y-62394000D01*
X29932927Y-62394000D01*
X29801360Y-62420171D01*
X29677426Y-62471506D01*
X29565888Y-62546033D01*
X29471033Y-62640888D01*
X29396506Y-62752426D01*
X29345171Y-62876360D01*
X29319000Y-63007927D01*
X27653603Y-63007927D01*
X27783208Y-62704073D01*
X28428539Y-61572687D01*
X29199622Y-60522984D01*
X29678242Y-60007927D01*
X44319000Y-60007927D01*
X44319000Y-60142073D01*
X44345171Y-60273640D01*
X44396506Y-60397574D01*
X44471033Y-60509112D01*
X44565888Y-60603967D01*
X44677426Y-60678494D01*
X44801360Y-60729829D01*
X44932927Y-60756000D01*
X45067073Y-60756000D01*
X45198640Y-60729829D01*
X45322574Y-60678494D01*
X45395882Y-60629511D01*
X48269000Y-60629511D01*
X48269000Y-60970489D01*
X48335521Y-61304914D01*
X48466007Y-61619936D01*
X48655444Y-61903448D01*
X48896552Y-62144556D01*
X49180064Y-62333993D01*
X49495086Y-62464479D01*
X49829511Y-62531000D01*
X50170489Y-62531000D01*
X50504914Y-62464479D01*
X50819936Y-62333993D01*
X51103448Y-62144556D01*
X51344556Y-61903448D01*
X51533993Y-61619936D01*
X51664479Y-61304914D01*
X51731000Y-60970489D01*
X51731000Y-60629511D01*
X51664479Y-60295086D01*
X51545535Y-60007927D01*
X54319000Y-60007927D01*
X54319000Y-60142073D01*
X54345171Y-60273640D01*
X54396506Y-60397574D01*
X54471033Y-60509112D01*
X54565888Y-60603967D01*
X54677426Y-60678494D01*
X54801360Y-60729829D01*
X54932927Y-60756000D01*
X55067073Y-60756000D01*
X55198640Y-60729829D01*
X55322574Y-60678494D01*
X55434112Y-60603967D01*
X55528967Y-60509112D01*
X55603494Y-60397574D01*
X55654829Y-60273640D01*
X55681000Y-60142073D01*
X55681000Y-60007927D01*
X55654829Y-59876360D01*
X55603494Y-59752426D01*
X55528967Y-59640888D01*
X55434112Y-59546033D01*
X55322574Y-59471506D01*
X55198640Y-59420171D01*
X55067073Y-59394000D01*
X54932927Y-59394000D01*
X54801360Y-59420171D01*
X54677426Y-59471506D01*
X54565888Y-59546033D01*
X54471033Y-59640888D01*
X54396506Y-59752426D01*
X54345171Y-59876360D01*
X54319000Y-60007927D01*
X51545535Y-60007927D01*
X51533993Y-59980064D01*
X51344556Y-59696552D01*
X51103448Y-59455444D01*
X50819936Y-59266007D01*
X50504914Y-59135521D01*
X50170489Y-59069000D01*
X49829511Y-59069000D01*
X49495086Y-59135521D01*
X49180064Y-59266007D01*
X48896552Y-59455444D01*
X48655444Y-59696552D01*
X48466007Y-59980064D01*
X48335521Y-60295086D01*
X48269000Y-60629511D01*
X45395882Y-60629511D01*
X45434112Y-60603967D01*
X45528967Y-60509112D01*
X45603494Y-60397574D01*
X45654829Y-60273640D01*
X45681000Y-60142073D01*
X45681000Y-60007927D01*
X45654829Y-59876360D01*
X45603494Y-59752426D01*
X45528967Y-59640888D01*
X45434112Y-59546033D01*
X45322574Y-59471506D01*
X45198640Y-59420171D01*
X45067073Y-59394000D01*
X44932927Y-59394000D01*
X44801360Y-59420171D01*
X44677426Y-59471506D01*
X44565888Y-59546033D01*
X44471033Y-59640888D01*
X44396506Y-59752426D01*
X44345171Y-59876360D01*
X44319000Y-60007927D01*
X29678242Y-60007927D01*
X30086253Y-59568856D01*
X31076665Y-58722964D01*
X31843119Y-58207927D01*
X34319000Y-58207927D01*
X34319000Y-58342073D01*
X34345171Y-58473640D01*
X34396506Y-58597574D01*
X34471033Y-58709112D01*
X34565888Y-58803967D01*
X34677426Y-58878494D01*
X34801360Y-58929829D01*
X34932927Y-58956000D01*
X35067073Y-58956000D01*
X35198640Y-58929829D01*
X35322574Y-58878494D01*
X35434112Y-58803967D01*
X35528967Y-58709112D01*
X35603494Y-58597574D01*
X35654829Y-58473640D01*
X35681000Y-58342073D01*
X35681000Y-58207927D01*
X35654829Y-58076360D01*
X35626484Y-58007927D01*
X39319000Y-58007927D01*
X39319000Y-58142073D01*
X39345171Y-58273640D01*
X39396506Y-58397574D01*
X39471033Y-58509112D01*
X39565888Y-58603967D01*
X39677426Y-58678494D01*
X39801360Y-58729829D01*
X39932927Y-58756000D01*
X40067073Y-58756000D01*
X40198640Y-58729829D01*
X40322574Y-58678494D01*
X40434112Y-58603967D01*
X40528967Y-58509112D01*
X40603494Y-58397574D01*
X40654829Y-58273640D01*
X40681000Y-58142073D01*
X40681000Y-58007927D01*
X40654829Y-57876360D01*
X40603494Y-57752426D01*
X40528967Y-57640888D01*
X40434112Y-57546033D01*
X40322574Y-57471506D01*
X40198640Y-57420171D01*
X40067073Y-57394000D01*
X39932927Y-57394000D01*
X39801360Y-57420171D01*
X39677426Y-57471506D01*
X39565888Y-57546033D01*
X39471033Y-57640888D01*
X39396506Y-57752426D01*
X39345171Y-57876360D01*
X39319000Y-58007927D01*
X35626484Y-58007927D01*
X35603494Y-57952426D01*
X35528967Y-57840888D01*
X35434112Y-57746033D01*
X35322574Y-57671506D01*
X35198640Y-57620171D01*
X35067073Y-57594000D01*
X34932927Y-57594000D01*
X34801360Y-57620171D01*
X34677426Y-57671506D01*
X34565888Y-57746033D01*
X34471033Y-57840888D01*
X34396506Y-57952426D01*
X34345171Y-58076360D01*
X34319000Y-58207927D01*
X31843119Y-58207927D01*
X32157749Y-57996504D01*
X33315159Y-57399120D01*
X34533556Y-56938726D01*
X35796807Y-56621420D01*
X37088153Y-56451411D01*
X38390473Y-56430953D01*
X39686509Y-56560314D01*
G37*
%TD.AperFunction*%
%TD*%
M02*
