%FSLAX45Y45*%
G04 Gerber Fmt 4.5, Leading zero omitted, Abs format (unit mm)*
G04 Created by KiCad (PCBNEW (5.1.9)-1) date 2021-12-29 15:03:50*
%MOMM*%
%LPD*%
G01*
G04 APERTURE LIST*
%TA.AperFunction,Profile*%
%ADD10C,0.010000*%
%TD*%
%ADD11C,0.200000*%
%ADD12C,0.300000*%
G04 APERTURE END LIST*
D10*
X5415378Y-5913130D02*
G75*
G02*
X5283506Y-5902419I-60996J66178D01*
G01*
X4716494Y-5902419D02*
G75*
G02*
X5283506Y-5902419I283506J-221866D01*
G01*
X4716494Y-5902419D02*
G75*
G02*
X4584622Y-5913130I-70876J55467D01*
G01*
X2621672Y-6773439D02*
G75*
G02*
X4584622Y-5913130I1170000J0D01*
G01*
X4829332Y-10086401D02*
G75*
G02*
X2621672Y-6773439I1348896J3290905D01*
G01*
X5170668Y-10086401D02*
G75*
G02*
X4829332Y-10086401I-170668J416380D01*
G01*
X7378328Y-6773439D02*
G75*
G02*
X5170668Y-10086401I-3556555J-22057D01*
G01*
X5415378Y-5913130D02*
G75*
G02*
X7378328Y-6773439I792950J-860308D01*
G01*
D11*
X4865000Y-5945000D02*
X5135000Y-6215000D01*
X5135000Y-5945000D02*
X4865000Y-6215000D01*
D12*
X2907532Y-12106963D02*
X2907532Y-11806963D01*
X2978960Y-11806963D01*
X3021817Y-11821249D01*
X3050389Y-11849820D01*
X3064675Y-11878392D01*
X3078960Y-11935534D01*
X3078960Y-11978392D01*
X3064675Y-12035534D01*
X3050389Y-12064106D01*
X3021817Y-12092677D01*
X2978960Y-12106963D01*
X2907532Y-12106963D01*
X3207532Y-12106963D02*
X3207532Y-11906963D01*
X3207532Y-11964106D02*
X3221817Y-11935534D01*
X3236103Y-11921249D01*
X3264675Y-11906963D01*
X3293246Y-11906963D01*
X3393246Y-12106963D02*
X3393246Y-11906963D01*
X3393246Y-11806963D02*
X3378960Y-11821249D01*
X3393246Y-11835534D01*
X3407532Y-11821249D01*
X3393246Y-11806963D01*
X3393246Y-11835534D01*
X3578960Y-12106963D02*
X3550389Y-12092677D01*
X3536103Y-12064106D01*
X3536103Y-11806963D01*
X3736103Y-12106963D02*
X3707532Y-12092677D01*
X3693246Y-12064106D01*
X3693246Y-11806963D01*
X4078960Y-12106963D02*
X4078960Y-11806963D01*
X4178960Y-12021249D01*
X4278960Y-11806963D01*
X4278960Y-12106963D01*
X4550389Y-12106963D02*
X4550389Y-11949820D01*
X4536103Y-11921249D01*
X4507532Y-11906963D01*
X4450389Y-11906963D01*
X4421818Y-11921249D01*
X4550389Y-12092677D02*
X4521818Y-12106963D01*
X4450389Y-12106963D01*
X4421818Y-12092677D01*
X4407532Y-12064106D01*
X4407532Y-12035534D01*
X4421818Y-12006963D01*
X4450389Y-11992677D01*
X4521818Y-11992677D01*
X4550389Y-11978392D01*
X4693246Y-11906963D02*
X4693246Y-12206963D01*
X4693246Y-11921249D02*
X4721818Y-11906963D01*
X4778960Y-11906963D01*
X4807532Y-11921249D01*
X4821818Y-11935534D01*
X4836103Y-11964106D01*
X4836103Y-12049820D01*
X4821818Y-12078392D01*
X4807532Y-12092677D01*
X4778960Y-12106963D01*
X4721818Y-12106963D01*
X4693246Y-12092677D01*
X4964675Y-12078392D02*
X4978960Y-12092677D01*
X4964675Y-12106963D01*
X4950389Y-12092677D01*
X4964675Y-12078392D01*
X4964675Y-12106963D01*
X4964675Y-11921249D02*
X4978960Y-11935534D01*
X4964675Y-11949820D01*
X4950389Y-11935534D01*
X4964675Y-11921249D01*
X4964675Y-11949820D01*
X2351103Y-12466249D02*
X2621103Y-12736249D01*
X2621103Y-12466249D02*
X2351103Y-12736249D01*
X2893246Y-12465534D02*
X2907532Y-12451249D01*
X2936103Y-12436963D01*
X3007532Y-12436963D01*
X3036103Y-12451249D01*
X3050389Y-12465534D01*
X3064675Y-12494106D01*
X3064675Y-12522677D01*
X3050389Y-12565534D01*
X2878960Y-12736963D01*
X3064675Y-12736963D01*
X3193246Y-12708392D02*
X3207532Y-12722677D01*
X3193246Y-12736963D01*
X3178960Y-12722677D01*
X3193246Y-12708392D01*
X3193246Y-12736963D01*
X3307532Y-12436963D02*
X3507532Y-12436963D01*
X3378960Y-12736963D01*
X3678960Y-12436963D02*
X3707532Y-12436963D01*
X3736103Y-12451249D01*
X3750389Y-12465534D01*
X3764675Y-12494106D01*
X3778960Y-12551249D01*
X3778960Y-12622677D01*
X3764675Y-12679820D01*
X3750389Y-12708392D01*
X3736103Y-12722677D01*
X3707532Y-12736963D01*
X3678960Y-12736963D01*
X3650389Y-12722677D01*
X3636103Y-12708392D01*
X3621817Y-12679820D01*
X3607532Y-12622677D01*
X3607532Y-12551249D01*
X3621817Y-12494106D01*
X3636103Y-12465534D01*
X3650389Y-12451249D01*
X3678960Y-12436963D01*
X3907532Y-12736963D02*
X3907532Y-12536963D01*
X3907532Y-12565534D02*
X3921817Y-12551249D01*
X3950389Y-12536963D01*
X3993246Y-12536963D01*
X4021817Y-12551249D01*
X4036103Y-12579820D01*
X4036103Y-12736963D01*
X4036103Y-12579820D02*
X4050389Y-12551249D01*
X4078960Y-12536963D01*
X4121817Y-12536963D01*
X4150389Y-12551249D01*
X4164675Y-12579820D01*
X4164675Y-12736963D01*
X4307532Y-12736963D02*
X4307532Y-12536963D01*
X4307532Y-12565534D02*
X4321818Y-12551249D01*
X4350389Y-12536963D01*
X4393246Y-12536963D01*
X4421818Y-12551249D01*
X4436103Y-12579820D01*
X4436103Y-12736963D01*
X4436103Y-12579820D02*
X4450389Y-12551249D01*
X4478960Y-12536963D01*
X4521818Y-12536963D01*
X4550389Y-12551249D01*
X4564675Y-12579820D01*
X4564675Y-12736963D01*
X5150389Y-12422677D02*
X4893246Y-12808392D01*
X5536103Y-12436963D02*
X5564675Y-12436963D01*
X5593246Y-12451249D01*
X5607532Y-12465534D01*
X5621817Y-12494106D01*
X5636103Y-12551249D01*
X5636103Y-12622677D01*
X5621817Y-12679820D01*
X5607532Y-12708392D01*
X5593246Y-12722677D01*
X5564675Y-12736963D01*
X5536103Y-12736963D01*
X5507532Y-12722677D01*
X5493246Y-12708392D01*
X5478960Y-12679820D01*
X5464675Y-12622677D01*
X5464675Y-12551249D01*
X5478960Y-12494106D01*
X5493246Y-12465534D01*
X5507532Y-12451249D01*
X5536103Y-12436963D01*
X5764675Y-12708392D02*
X5778960Y-12722677D01*
X5764675Y-12736963D01*
X5750389Y-12722677D01*
X5764675Y-12708392D01*
X5764675Y-12736963D01*
X6064675Y-12736963D02*
X5893246Y-12736963D01*
X5978960Y-12736963D02*
X5978960Y-12436963D01*
X5950389Y-12479820D01*
X5921817Y-12508392D01*
X5893246Y-12522677D01*
X6250389Y-12436963D02*
X6278960Y-12436963D01*
X6307532Y-12451249D01*
X6321817Y-12465534D01*
X6336103Y-12494106D01*
X6350389Y-12551249D01*
X6350389Y-12622677D01*
X6336103Y-12679820D01*
X6321817Y-12708392D01*
X6307532Y-12722677D01*
X6278960Y-12736963D01*
X6250389Y-12736963D01*
X6221817Y-12722677D01*
X6207532Y-12708392D01*
X6193246Y-12679820D01*
X6178960Y-12622677D01*
X6178960Y-12551249D01*
X6193246Y-12494106D01*
X6207532Y-12465534D01*
X6221817Y-12451249D01*
X6250389Y-12436963D01*
X6607532Y-12436963D02*
X6550389Y-12436963D01*
X6521817Y-12451249D01*
X6507532Y-12465534D01*
X6478960Y-12508392D01*
X6464675Y-12565534D01*
X6464675Y-12679820D01*
X6478960Y-12708392D01*
X6493246Y-12722677D01*
X6521817Y-12736963D01*
X6578960Y-12736963D01*
X6607532Y-12722677D01*
X6621817Y-12708392D01*
X6636103Y-12679820D01*
X6636103Y-12608392D01*
X6621817Y-12579820D01*
X6607532Y-12565534D01*
X6578960Y-12551249D01*
X6521817Y-12551249D01*
X6493246Y-12565534D01*
X6478960Y-12579820D01*
X6464675Y-12608392D01*
X6750389Y-12436963D02*
X6750389Y-12494106D01*
X6864675Y-12436963D02*
X6864675Y-12494106D01*
X7307532Y-12851249D02*
X7293246Y-12836963D01*
X7264675Y-12794106D01*
X7250389Y-12765534D01*
X7236103Y-12722677D01*
X7221817Y-12651249D01*
X7221817Y-12594106D01*
X7236103Y-12522677D01*
X7250389Y-12479820D01*
X7264675Y-12451249D01*
X7293246Y-12408392D01*
X7307532Y-12394106D01*
X7578960Y-12736963D02*
X7407532Y-12736963D01*
X7493246Y-12736963D02*
X7493246Y-12436963D01*
X7464675Y-12479820D01*
X7436103Y-12508392D01*
X7407532Y-12522677D01*
X7936103Y-12736963D02*
X7936103Y-12436963D01*
X8064675Y-12736963D02*
X8064675Y-12579820D01*
X8050389Y-12551249D01*
X8021817Y-12536963D01*
X7978960Y-12536963D01*
X7950389Y-12551249D01*
X7936103Y-12565534D01*
X8250389Y-12736963D02*
X8221817Y-12722677D01*
X8207532Y-12708392D01*
X8193246Y-12679820D01*
X8193246Y-12594106D01*
X8207532Y-12565534D01*
X8221817Y-12551249D01*
X8250389Y-12536963D01*
X8293246Y-12536963D01*
X8321817Y-12551249D01*
X8336103Y-12565534D01*
X8350389Y-12594106D01*
X8350389Y-12679820D01*
X8336103Y-12708392D01*
X8321817Y-12722677D01*
X8293246Y-12736963D01*
X8250389Y-12736963D01*
X8521818Y-12736963D02*
X8493246Y-12722677D01*
X8478960Y-12694106D01*
X8478960Y-12436963D01*
X8750389Y-12722677D02*
X8721818Y-12736963D01*
X8664675Y-12736963D01*
X8636103Y-12722677D01*
X8621818Y-12694106D01*
X8621818Y-12579820D01*
X8636103Y-12551249D01*
X8664675Y-12536963D01*
X8721818Y-12536963D01*
X8750389Y-12551249D01*
X8764675Y-12579820D01*
X8764675Y-12608392D01*
X8621818Y-12636963D01*
X8864675Y-12851249D02*
X8878960Y-12836963D01*
X8907532Y-12794106D01*
X8921818Y-12765534D01*
X8936103Y-12722677D01*
X8950389Y-12651249D01*
X8950389Y-12594106D01*
X8936103Y-12522677D01*
X8921818Y-12479820D01*
X8907532Y-12451249D01*
X8878960Y-12408392D01*
X8864675Y-12394106D01*
X9407532Y-12851249D02*
X9393246Y-12836963D01*
X9364675Y-12794106D01*
X9350389Y-12765534D01*
X9336103Y-12722677D01*
X9321818Y-12651249D01*
X9321818Y-12594106D01*
X9336103Y-12522677D01*
X9350389Y-12479820D01*
X9364675Y-12451249D01*
X9393246Y-12408392D01*
X9407532Y-12394106D01*
X9521818Y-12536963D02*
X9521818Y-12736963D01*
X9521818Y-12565534D02*
X9536103Y-12551249D01*
X9564675Y-12536963D01*
X9607532Y-12536963D01*
X9636103Y-12551249D01*
X9650389Y-12579820D01*
X9650389Y-12736963D01*
X9836103Y-12736963D02*
X9807532Y-12722677D01*
X9793246Y-12708392D01*
X9778960Y-12679820D01*
X9778960Y-12594106D01*
X9793246Y-12565534D01*
X9807532Y-12551249D01*
X9836103Y-12536963D01*
X9878960Y-12536963D01*
X9907532Y-12551249D01*
X9921818Y-12565534D01*
X9936103Y-12594106D01*
X9936103Y-12679820D01*
X9921818Y-12708392D01*
X9907532Y-12722677D01*
X9878960Y-12736963D01*
X9836103Y-12736963D01*
X10021818Y-12536963D02*
X10136103Y-12536963D01*
X10064675Y-12436963D02*
X10064675Y-12694106D01*
X10078960Y-12722677D01*
X10107532Y-12736963D01*
X10136103Y-12736963D01*
X10464675Y-12536963D02*
X10464675Y-12836963D01*
X10464675Y-12551249D02*
X10493246Y-12536963D01*
X10550389Y-12536963D01*
X10578960Y-12551249D01*
X10593246Y-12565534D01*
X10607532Y-12594106D01*
X10607532Y-12679820D01*
X10593246Y-12708392D01*
X10578960Y-12722677D01*
X10550389Y-12736963D01*
X10493246Y-12736963D01*
X10464675Y-12722677D01*
X10778960Y-12736963D02*
X10750389Y-12722677D01*
X10736103Y-12694106D01*
X10736103Y-12436963D01*
X11021818Y-12736963D02*
X11021818Y-12579820D01*
X11007532Y-12551249D01*
X10978960Y-12536963D01*
X10921818Y-12536963D01*
X10893246Y-12551249D01*
X11021818Y-12722677D02*
X10993246Y-12736963D01*
X10921818Y-12736963D01*
X10893246Y-12722677D01*
X10878960Y-12694106D01*
X10878960Y-12665534D01*
X10893246Y-12636963D01*
X10921818Y-12622677D01*
X10993246Y-12622677D01*
X11021818Y-12608392D01*
X11121818Y-12536963D02*
X11236103Y-12536963D01*
X11164675Y-12436963D02*
X11164675Y-12694106D01*
X11178960Y-12722677D01*
X11207532Y-12736963D01*
X11236103Y-12736963D01*
X11450389Y-12722677D02*
X11421817Y-12736963D01*
X11364675Y-12736963D01*
X11336103Y-12722677D01*
X11321817Y-12694106D01*
X11321817Y-12579820D01*
X11336103Y-12551249D01*
X11364675Y-12536963D01*
X11421817Y-12536963D01*
X11450389Y-12551249D01*
X11464675Y-12579820D01*
X11464675Y-12608392D01*
X11321817Y-12636963D01*
X11721817Y-12736963D02*
X11721817Y-12436963D01*
X11721817Y-12722677D02*
X11693246Y-12736963D01*
X11636103Y-12736963D01*
X11607532Y-12722677D01*
X11593246Y-12708392D01*
X11578960Y-12679820D01*
X11578960Y-12594106D01*
X11593246Y-12565534D01*
X11607532Y-12551249D01*
X11636103Y-12536963D01*
X11693246Y-12536963D01*
X11721817Y-12551249D01*
X11836103Y-12851249D02*
X11850389Y-12836963D01*
X11878960Y-12794106D01*
X11893246Y-12765534D01*
X11907532Y-12722677D01*
X11921817Y-12651249D01*
X11921817Y-12594106D01*
X11907532Y-12522677D01*
X11893246Y-12479820D01*
X11878960Y-12451249D01*
X11850389Y-12408392D01*
X11836103Y-12394106D01*
M02*
