999
"DXF R12 Output" (www.mydxf.blogspot.com)
 0 
SECTION
 2 
HEADER
 9 
$ACADVER
 1 
AC1009
 9 
$EXTMIN
 10 
 0 
 20 
 0 
 9 
$EXTMAX
 10 
 8.5 
 20 
 11 
 0 
ENDSEC
 0 
SECTION
 2 
ENTITIES
0
LINE
8
Layer 1
10
83.903900
20
9.632870
11
80.014994
21
13.572586
0
LINE
8
Layer 1
10
80.014994
20
13.572586
11
74.651550
21
18.444234
0
LINE
8
Layer 1
10
74.651550
20
18.444234
11
68.521381
21
23.628532
0
LINE
8
Layer 1
10
68.521381
20
23.628532
11
62.332300
21
28.506200
0
LINE
8
Layer 1
10
62.332300
20
28.506200
11
48.016130
21
39.366405
0
LINE
8
Layer 1
10
48.016130
20
39.366405
11
38.844387
21
46.519463
0
LINE
8
Layer 1
10
38.844387
20
46.519463
11
32.304827
21
51.982714
0
LINE
8
Layer 1
10
32.304827
20
51.982714
11
25.885200
21
57.773500
0
LINE
8
Layer 1
10
25.885200
20
57.773500
11
22.686771
21
60.830153
0
LINE
8
Layer 1
10
22.686771
20
60.830153
11
19.723022
21
63.897011
0
LINE
8
Layer 1
10
19.723022
20
63.897011
11
16.990085
21
66.982496
0
LINE
8
Layer 1
10
16.990085
20
66.982496
11
14.484096
21
70.095028
0
LINE
8
Layer 1
10
14.484096
20
70.095028
11
12.201188
21
73.243027
0
LINE
8
Layer 1
10
12.201188
20
73.243027
11
10.137495
21
76.434912
0
LINE
8
Layer 1
10
10.137495
20
76.434912
11
8.289152
21
79.679105
0
LINE
8
Layer 1
10
8.289152
20
79.679105
11
6.652293
21
82.984025
0
LINE
8
Layer 1
10
6.652293
20
82.984025
11
5.223051
21
86.358093
0
LINE
8
Layer 1
10
5.223051
20
86.358093
11
3.997562
21
89.809729
0
LINE
8
Layer 1
10
3.997562
20
89.809729
11
2.971958
21
93.347352
0
LINE
8
Layer 1
10
2.971958
20
93.347352
11
2.142375
21
96.979384
0
LINE
8
Layer 1
10
2.142375
20
96.979384
11
1.504945
21
100.714245
0
LINE
8
Layer 1
10
1.504945
20
100.714245
11
1.055804
21
104.560354
0
LINE
8
Layer 1
10
1.055804
20
104.560354
11
0.791085
21
108.526133
0
LINE
8
Layer 1
10
0.791085
20
108.526133
11
0.706923
21
112.620000
0
LINE
8
Layer 1
10
0.706923
20
112.620000
11
0.876956
21
119.634781
0
LINE
8
Layer 1
10
0.876956
20
119.634781
11
1.110019
21
122.465613
0
LINE
8
Layer 1
10
1.110019
20
122.465613
11
1.466302
21
124.984000
0
LINE
8
Layer 1
10
1.466302
20
124.984000
11
1.964199
21
127.293887
0
LINE
8
Layer 1
10
1.964199
20
127.293887
11
2.622101
21
129.499219
0
LINE
8
Layer 1
10
2.622101
20
129.499219
11
4.491490
21
134.012000
0
LINE
8
Layer 1
10
4.491490
20
134.012000
11
6.535036
21
137.943252
0
LINE
8
Layer 1
10
6.535036
20
137.943252
11
8.803046
21
141.609578
0
LINE
8
Layer 1
10
8.803046
20
141.609578
11
11.291733
21
145.006959
0
LINE
8
Layer 1
10
11.291733
20
145.006959
11
13.997307
21
148.131375
0
LINE
8
Layer 1
10
13.997307
20
148.131375
11
16.915980
21
150.978807
0
LINE
8
Layer 1
10
16.915980
20
150.978807
11
20.043962
21
153.545234
0
LINE
8
Layer 1
10
20.043962
20
153.545234
11
23.377465
21
155.826639
0
LINE
8
Layer 1
10
23.377465
20
155.826639
11
26.912700
21
157.819000
0
LINE
8
Layer 1
10
26.912700
20
157.819000
11
31.589820
21
160.077953
0
LINE
8
Layer 1
10
31.589820
20
160.077953
11
33.777708
21
160.948170
0
LINE
8
Layer 1
10
33.777708
20
160.948170
11
36.045738
21
161.652625
0
LINE
8
Layer 1
10
36.045738
20
161.652625
11
38.529349
21
162.196627
0
LINE
8
Layer 1
10
38.529349
20
162.196627
11
41.363986
21
162.585484
0
LINE
8
Layer 1
10
41.363986
20
162.585484
11
44.685089
21
162.824506
0
LINE
8
Layer 1
10
44.685089
20
162.824506
11
48.628100
21
162.919000
0
LINE
8
Layer 1
10
48.628100
20
162.919000
11
52.708848
21
162.873145
0
LINE
8
Layer 1
10
52.708848
20
162.873145
11
56.066002
21
162.678156
0
LINE
8
Layer 1
10
56.066002
20
162.678156
11
58.863601
21
162.322152
0
LINE
8
Layer 1
10
58.863601
20
162.322152
11
61.265687
21
161.793250
0
LINE
8
Layer 1
10
61.265687
20
161.793250
11
63.436300
21
161.079566
0
LINE
8
Layer 1
10
63.436300
20
161.079566
11
65.539480
21
160.169219
0
LINE
8
Layer 1
10
65.539480
20
160.169219
11
70.199700
21
157.711000
0
LINE
8
Layer 1
10
70.199700
20
157.711000
11
73.417204
21
155.706865
0
LINE
8
Layer 1
10
73.417204
20
155.706865
11
76.573180
21
153.296922
0
LINE
8
Layer 1
10
76.573180
20
153.296922
11
79.582518
21
150.578236
0
LINE
8
Layer 1
10
79.582518
20
150.578236
11
82.360112
21
147.647875
0
LINE
8
Layer 1
10
82.360112
20
147.647875
11
84.820855
21
144.602904
0
LINE
8
Layer 1
10
84.820855
20
144.602904
11
86.879639
21
141.540391
0
LINE
8
Layer 1
10
86.879639
20
141.540391
11
88.451356
21
138.557400
0
LINE
8
Layer 1
10
88.451356
20
138.557400
11
89.450900
21
135.751000
0
LINE
8
Layer 1
10
89.450900
20
135.751000
11
90.579300
21
131.328000
0
LINE
8
Layer 1
10
90.579300
20
131.328000
11
93.361900
21
137.420000
0
LINE
8
Layer 1
10
93.361900
20
137.420000
11
94.934993
21
140.544820
0
LINE
8
Layer 1
10
94.934993
20
140.544820
11
96.697798
21
143.465051
0
LINE
8
Layer 1
10
96.697798
20
143.465051
11
98.638010
21
146.180820
0
LINE
8
Layer 1
10
98.638010
20
146.180820
11
100.743322
21
148.692252
0
LINE
8
Layer 1
10
100.743322
20
148.692252
11
103.001427
21
150.999474
0
LINE
8
Layer 1
10
103.001427
20
150.999474
11
105.400020
21
153.102612
0
LINE
8
Layer 1
10
105.400020
20
153.102612
11
107.926794
21
155.001792
0
LINE
8
Layer 1
10
107.926794
20
155.001792
11
110.569442
21
156.697141
0
LINE
8
Layer 1
10
110.569442
20
156.697141
11
113.315659
21
158.188783
0
LINE
8
Layer 1
10
113.315659
20
158.188783
11
116.153138
21
159.476847
0
LINE
8
Layer 1
10
116.153138
20
159.476847
11
119.069573
21
160.561457
0
LINE
8
Layer 1
10
119.069573
20
160.561457
11
122.052657
21
161.442740
0
LINE
8
Layer 1
10
122.052657
20
161.442740
11
125.090085
21
162.120822
0
LINE
8
Layer 1
10
125.090085
20
162.120822
11
128.169549
21
162.595830
0
LINE
8
Layer 1
10
128.169549
20
162.595830
11
131.278744
21
162.867889
0
LINE
8
Layer 1
10
131.278744
20
162.867889
11
134.405363
21
162.937125
0
LINE
8
Layer 1
10
134.405363
20
162.937125
11
137.537099
21
162.803665
0
LINE
8
Layer 1
10
137.537099
20
162.803665
11
140.661648
21
162.467635
0
LINE
8
Layer 1
10
140.661648
20
162.467635
11
143.766701
21
161.929161
0
LINE
8
Layer 1
10
143.766701
20
161.929161
11
146.839954
21
161.188369
0
LINE
8
Layer 1
10
146.839954
20
161.188369
11
149.869099
21
160.245386
0
LINE
8
Layer 1
10
149.869099
20
160.245386
11
152.841830
21
159.100337
0
LINE
8
Layer 1
10
152.841830
20
159.100337
11
155.745842
21
157.753348
0
LINE
8
Layer 1
10
155.745842
20
157.753348
11
158.568827
21
156.204547
0
LINE
8
Layer 1
10
158.568827
20
156.204547
11
161.298479
21
154.454058
0
LINE
8
Layer 1
10
161.298479
20
154.454058
11
163.922492
21
152.502009
0
LINE
8
Layer 1
10
163.922492
20
152.502009
11
166.428560
21
150.348525
0
LINE
8
Layer 1
10
166.428560
20
150.348525
11
168.804377
21
147.993732
0
LINE
8
Layer 1
10
168.804377
20
147.993732
11
171.037635
21
145.437757
0
LINE
8
Layer 1
10
171.037635
20
145.437757
11
173.116030
21
142.680726
0
LINE
8
Layer 1
10
173.116030
20
142.680726
11
175.027253
21
139.722765
0
LINE
8
Layer 1
10
175.027253
20
139.722765
11
176.759000
21
136.564000
0
LINE
8
Layer 1
10
176.759000
20
136.564000
11
177.740172
21
134.355099
0
LINE
8
Layer 1
10
177.740172
20
134.355099
11
178.604861
21
131.886164
0
LINE
8
Layer 1
10
178.604861
20
131.886164
11
179.352202
21
129.190599
0
LINE
8
Layer 1
10
179.352202
20
129.190599
11
179.981328
21
126.301809
0
LINE
8
Layer 1
10
179.981328
20
126.301809
11
180.881475
21
120.078169
0
LINE
8
Layer 1
10
180.881475
20
120.078169
11
181.298375
21
113.482475
0
LINE
8
Layer 1
10
181.298375
20
113.482475
11
181.225104
21
106.781959
0
LINE
8
Layer 1
10
181.225104
20
106.781959
11
180.654734
21
100.243853
0
LINE
8
Layer 1
10
180.654734
20
100.243853
11
180.180974
21
97.119214
0
LINE
8
Layer 1
10
180.180974
20
97.119214
11
179.580342
21
94.135389
0
LINE
8
Layer 1
10
179.580342
20
94.135389
11
178.851972
21
91.325783
0
LINE
8
Layer 1
10
178.851972
20
91.325783
11
177.995000
21
88.723800
0
LINE
8
Layer 1
10
177.995000
20
88.723800
11
176.724656
21
85.524987
0
LINE
8
Layer 1
10
176.724656
20
85.524987
11
175.307447
21
82.406225
0
LINE
8
Layer 1
10
175.307447
20
82.406225
11
173.728488
21
79.351204
0
LINE
8
Layer 1
10
173.728488
20
79.351204
11
171.972891
21
76.343613
0
LINE
8
Layer 1
10
171.972891
20
76.343613
11
170.025768
21
73.367142
0
LINE
8
Layer 1
10
170.025768
20
73.367142
11
167.872232
21
70.405481
0
LINE
8
Layer 1
10
167.872232
20
70.405481
11
165.497397
21
67.442321
0
LINE
8
Layer 1
10
165.497397
20
67.442321
11
162.886375
21
64.461350
0
LINE
8
Layer 1
10
162.886375
20
64.461350
11
160.024279
21
61.446259
0
LINE
8
Layer 1
10
160.024279
20
61.446259
11
156.896221
21
58.380737
0
LINE
8
Layer 1
10
156.896221
20
58.380737
11
149.782672
21
52.033163
0
LINE
8
Layer 1
10
149.782672
20
52.033163
11
141.426631
21
45.288144
0
LINE
8
Layer 1
10
141.426631
20
45.288144
11
131.709000
21
38.015200
0
LINE
8
Layer 1
10
131.709000
20
38.015200
11
124.793211
21
32.771977
0
LINE
8
Layer 1
10
124.793211
20
32.771977
11
117.905309
21
27.172888
0
LINE
8
Layer 1
10
117.905309
20
27.172888
11
111.298747
21
21.499676
0
LINE
8
Layer 1
10
111.298747
20
21.499676
11
105.226975
21
16.034086
0
LINE
8
Layer 1
10
105.226975
20
16.034086
11
99.943443
21
11.057863
0
LINE
8
Layer 1
10
99.943443
20
11.057863
11
95.701603
21
6.852749
0
LINE
8
Layer 1
10
95.701603
20
6.852749
11
92.754905
21
3.700490
0
LINE
8
Layer 1
10
92.754905
20
3.700490
11
91.356800
21
1.882830
0
LINE
8
Layer 1
10
91.356800
20
1.882830
11
90.859650
21
0.938024
0
LINE
8
Layer 1
10
90.859650
20
0.938024
11
90.524834
21
0.552215
0
LINE
8
Layer 1
10
90.524834
20
0.552215
11
90.209121
21
0.719268
0
LINE
8
Layer 1
10
90.209121
20
0.719268
11
89.769275
21
1.433054
0
LINE
8
Layer 1
10
89.769275
20
1.433054
11
87.944253
21
4.476291
0
LINE
8
Layer 1
10
87.944253
20
4.476291
11
86.272610
21
6.793479
0
LINE
8
Layer 1
10
86.272610
20
6.793479
11
83.903900
21
9.632870
0
LINE
8
Layer 1
10
83.903900
20
9.632870
11
83.903900
21
9.632870
 0 
ENDSEC
 0 
EOF