999
"DXF R12 Output" (www.mydxf.blogspot.com)
 0 
SECTION
 2 
HEADER
 9 
$ACADVER
 1 
AC1009
 9 
$EXTMIN
 10 
 0 
 20 
 0 
 9 
$EXTMAX
 10 
 8.5 
 20 
 11 
 0 
ENDSEC
 0 
SECTION
 2 
ENTITIES
0
LINE
8
Warstwa 1
10
4.193410
20
22.040900
11
3.421178
21
21.959528
0
LINE
8
Warstwa 1
10
3.421178
20
21.959528
11
2.671629
21
21.715425
0
LINE
8
Warstwa 1
10
2.671629
20
21.715425
11
1.967430
21
21.308609
0
LINE
8
Warstwa 1
10
1.967430
20
21.308609
11
1.331250
21
20.739100
0
LINE
8
Warstwa 1
10
1.331250
20
20.739100
11
0.810962
21
20.042709
0
LINE
8
Warstwa 1
10
0.810962
20
20.042709
11
0.439328
21
19.271856
0
LINE
8
Warstwa 1
10
0.439328
20
19.271856
11
0.216348
21
18.451363
0
LINE
8
Warstwa 1
10
0.216348
20
18.451363
11
0.142021
21
17.606050
0
LINE
8
Warstwa 1
10
0.142021
20
17.606050
11
0.216348
21
16.760737
0
LINE
8
Warstwa 1
10
0.216348
20
16.760737
11
0.439328
21
15.940244
0
LINE
8
Warstwa 1
10
0.439328
20
15.940244
11
0.810962
21
15.169391
0
LINE
8
Warstwa 1
10
0.810962
20
15.169391
11
1.331250
21
14.473000
0
LINE
8
Warstwa 1
10
1.331250
20
14.473000
11
7.055560
21
8.207010
0
LINE
8
Warstwa 1
10
7.055560
20
8.207010
11
12.779900
21
14.473000
0
LINE
8
Warstwa 1
10
12.779900
20
14.473000
11
13.300175
21
15.169391
0
LINE
8
Warstwa 1
10
13.300175
20
15.169391
11
13.671800
21
15.940244
0
LINE
8
Warstwa 1
10
13.671800
20
15.940244
11
13.894775
21
16.760737
0
LINE
8
Warstwa 1
10
13.894775
20
16.760737
11
13.969100
21
17.606050
0
LINE
8
Warstwa 1
10
13.969100
20
17.606050
11
13.894775
21
18.451363
0
LINE
8
Warstwa 1
10
13.894775
20
18.451363
11
13.671800
21
19.271856
0
LINE
8
Warstwa 1
10
13.671800
20
19.271856
11
13.300175
21
20.042709
0
LINE
8
Warstwa 1
10
13.300175
20
20.042709
11
12.779900
21
20.739100
0
LINE
8
Warstwa 1
10
12.779900
20
20.739100
11
11.634470
21
21.621809
0
LINE
8
Warstwa 1
10
11.634470
20
21.621809
11
10.334970
21
22.016775
0
LINE
8
Warstwa 1
10
10.334970
20
22.016775
11
8.998907
21
21.924203
0
LINE
8
Warstwa 1
10
8.998907
20
21.924203
11
7.743790
21
21.344300
0
LINE
8
Warstwa 1
10
7.743790
20
21.344300
11
7.496304
21
21.740467
0
LINE
8
Warstwa 1
10
7.496304
20
21.740467
11
7.055560
21
21.895200
0
LINE
8
Warstwa 1
10
7.055560
20
21.895200
11
6.614816
21
21.740467
0
LINE
8
Warstwa 1
10
6.614816
20
21.740467
11
6.367330
21
21.344300
0
LINE
8
Warstwa 1
10
6.367330
20
21.344300
11
5.315789
21
21.866488
0
LINE
8
Warstwa 1
10
5.315789
20
21.866488
11
4.193410
21
22.040900
0
LINE
8
Warstwa 1
10
4.193410
20
22.040900
11
4.193410
21
22.040900
 0 
ENDSEC
 0 
EOF